<?xml version="1.0" encoding="utf-8"?>
<svg version="1.1" id="Tank_Outlines" xmlns="http://www.w3.org/2000/svg" xmlns:xlink="http://www.w3.org/1999/xlink" x="0px"
	 y="0px" viewBox="0 0 810.1 693.5" style="enable-background:new 0 0 810.1 693.5;" xml:space="preserve">

<style type="text/css">
	.st1-yellow {
		fill: #E0F500;
	}
	.st1-orange {
		fill: #FF5400;
	}
	.st1-grey {
		fill: #231F20;
	}
	@keyframes st1TankTop {
	  0% {
	    transform: translateX(0);
	  }
	  100% {
	    transform: translateX(48.5%);
	  }
	}

	@keyframes st1TankMiddle {
	  0% {
	    transform: translateX(0);
	  }
	  100% {
	    transform: translateX(-48.5%);
	  }
	}

	@keyframes st1TankBottom {
	  0% {
	    transform: translateX(0);
	  }
	  100% {
	    transform: translateX(48.5%);
	  }
	}

	.st1-top-pattern-inside {
	  animation: st1TankTop 2s infinite linear;
	}

	.st1-middle-pattern-inside {
	  animation: st1TankMiddle 2s infinite linear;
	}

	.st1-bottom-pattern-inside {
	  animation: st1TankBottom 2s infinite linear;
	}
</style>


<!-- masks defined -->
<defs>
  <!-- top piece -->
  <mask id="top-mask">
    <path fill="#fff" d="M83.5,115.5c0,0,335.4-181,641.9,0C390,115.5,83.5,115.5,83.5,115.5"/>
  </mask>
  <!-- middle piece -->
  <mask id="middle-mask">
    <rect x="51.2" y="123.7" width="705.2" height="272" fill="#fff"/>
  </mask>
    <!-- bottom piece -->
  <mask id="bottom-mask">
		<rect x="17.5" y="398.1" width="774.6" height="269.2" fill="#fff"/>
  </mask>
</defs>

<!-- top section pattern -->
<g id="top-pattern" mask="url(#top-mask)">
  <g class="st1-top-pattern-inside">
    <rect x="-3575.3" y="-949.3" class="st1-yellow" width="5373.3" height="2767.6"/>
    <path class="st1-orange" d="M414.2,1818.1c-763,0-1383.7-620.7-1383.7-1383.7S-348.7-949.3,414.2-949.3
      c763,0,1383.7,620.7,1383.7,1383.7S1177.2,1818.1,414.2,1818.1z M414.2-787.8c-673.9,0-1222.2,548.3-1222.2,1222.2
      s548.3,1222.2,1222.2,1222.2c673.9,0,1222.2-548.3,1222.2-1222.2S1088.2-787.8,414.2-787.8z M414.2,1492.4
      c-583.4,0-1058-474.6-1058-1057.9s474.6-1058,1058-1058s1058,474.6,1058,1058S997.6,1492.4,414.2,1492.4z M414.2-462
      c-494.3,0-896.5,402.1-896.5,896.5c0,494.3,402.2,896.4,896.5,896.4s896.5-402.1,896.5-896.4C1310.7-59.9,908.6-462,414.2-462z
      M414.2,1166.6C10.5,1166.6-318,838.2-318,434.4c0-403.8,328.5-732.2,732.2-732.2s732.2,328.5,732.2,732.2
      C1146.5,838.2,818,1166.6,414.2,1166.6z M414.2-136.3c-314.7,0-570.7,256-570.7,570.7s256,570.7,570.7,570.7
      S985,749.1,985,434.4S728.9-136.3,414.2-136.3z M414.2,840.9C190.1,840.9,7.8,658.6,7.8,434.4S190.1,27.9,414.2,27.9
      c224.1,0,406.5,182.4,406.5,406.5S638.4,840.9,414.2,840.9z M414.2,189.4c-135.1,0-245,109.9-245,245s109.9,245,245,245
      c135.1,0,245-109.9,245-245S549.3,189.4,414.2,189.4z"/>
    <path class="st1-orange" d="M-2191.6,1818.1c-763,0-1383.7-620.7-1383.7-1383.7s620.7-1383.7,1383.7-1383.7
      c763,0,1383.7,620.7,1383.7,1383.7S-1428.7,1818.1-2191.6,1818.1z M-2191.6-787.8c-673.9,0-1222.2,548.3-1222.2,1222.2
      s548.3,1222.2,1222.2,1222.2c673.9,0,1222.2-548.3,1222.2-1222.2S-1517.7-787.8-2191.6-787.8z M-2191.6,1492.4
      c-583.4,0-1058-474.6-1058-1057.9s474.6-1058,1058-1058s1058,474.6,1058,1058S-1608.3,1492.4-2191.6,1492.4z M-2191.6-462
      c-494.3,0-896.5,402.1-896.5,896.5c0,494.3,402.2,896.4,896.5,896.4s896.5-402.1,896.5-896.4
      C-1295.2-59.9-1697.3-462-2191.6-462z M-2191.6,1166.6c-403.7,0-732.2-328.5-732.2-732.2c0-403.8,328.5-732.2,732.2-732.2
      s732.2,328.5,732.2,732.2C-1459.4,838.2-1787.9,1166.6-2191.6,1166.6z M-2191.6-136.3c-314.7,0-570.7,256-570.7,570.7
      s256,570.7,570.7,570.7s570.7-256,570.7-570.7S-1877-136.3-2191.6-136.3z M-2191.6,840.9c-224.1,0-406.5-182.4-406.5-406.5
      s182.3-406.5,406.5-406.5c224.1,0,406.5,182.4,406.5,406.5S-1967.5,840.9-2191.6,840.9z M-2191.6,189.4
      c-135.1,0-245,109.9-245,245s109.9,245,245,245c135.1,0,245-109.9,245-245S-2056.6,189.4-2191.6,189.4z"/>
    </g>
</g>

<!-- middle section pattern -->
<g id="middle-pattern" mask="url(#middle-mask)">
  <g class="st1-middle-pattern-inside">
    <rect x="-969.4" y="-375.6" class="st1-yellow" width="5370.2" height="2773.8"/>
    <path class="st1-orange" d="M414.2,2397c-763,0-1383.7-620.7-1383.7-1383.7S-348.7-370.4,414.2-370.4
      c763,0,1383.7,620.7,1383.7,1383.7S1177.2,2397,414.2,2397z M414.2-208.9c-673.9,0-1222.2,548.3-1222.2,1222.2
      s548.3,1222.2,1222.2,1222.2c673.9,0,1222.2-548.3,1222.2-1222.2S1088.2-208.9,414.2-208.9z M414.2,2071.3
      c-583.4,0-1058-474.6-1058-1057.9s474.6-1058,1058-1058s1058,474.6,1058,1058S997.6,2071.3,414.2,2071.3z M414.2,116.8
      c-494.3,0-896.5,402.1-896.5,896.5c0,494.3,402.2,896.4,896.5,896.4s896.5-402.1,896.5-896.4
      C1310.7,519,908.6,116.8,414.2,116.8z M414.2,1745.5C10.5,1745.5-318,1417-318,1013.3c0-403.8,328.5-732.2,732.2-732.2
      s732.2,328.5,732.2,732.2C1146.5,1417,818,1745.5,414.2,1745.5z M414.2,442.6c-314.7,0-570.7,256-570.7,570.7
      S99.6,1584,414.2,1584S985,1328,985,1013.3S728.9,442.6,414.2,442.6z M414.2,1419.8c-224.1,0-406.5-182.4-406.5-406.5
      s182.3-406.5,406.5-406.5c224.1,0,406.5,182.4,406.5,406.5S638.4,1419.8,414.2,1419.8z M414.2,768.3
      c-135.1,0-245,109.9-245,245s109.9,245,245,245c135.1,0,245-109.9,245-245S549.3,768.3,414.2,768.3z"/>
    <path class="st1-orange" d="M3017.1,2397c-763,0-1383.7-620.7-1383.7-1383.7S2254.1-370.4,3017.1-370.4
      c763,0,1383.7,620.7,1383.7,1383.7S3780.1,2397,3017.1,2397z M3017.1-208.9c-673.9,0-1222.2,548.3-1222.2,1222.2
      s548.3,1222.2,1222.2,1222.2c673.9,0,1222.2-548.3,1222.2-1222.2S3691-208.9,3017.1-208.9z M3017.1,2071.3
      c-583.4,0-1058-474.6-1058-1057.9s474.6-1058,1058-1058s1058,474.6,1058,1058S3600.4,2071.3,3017.1,2071.3z M3017.1,116.8
      c-494.3,0-896.5,402.1-896.5,896.5c0,494.3,402.2,896.4,896.5,896.4s896.5-402.1,896.5-896.4
      C3913.6,519,3511.4,116.8,3017.1,116.8z M3017.1,1745.5c-403.7,0-732.2-328.5-732.2-732.2c0-403.8,328.5-732.2,732.2-732.2
      s732.2,328.5,732.2,732.2C3749.3,1417,3420.8,1745.5,3017.1,1745.5z M3017.1,442.6c-314.7,0-570.7,256-570.7,570.7
      s256,570.7,570.7,570.7s570.7-256,570.7-570.7S3331.8,442.6,3017.1,442.6z M3017.1,1419.8c-224.1,0-406.5-182.4-406.5-406.5
      s182.3-406.5,406.5-406.5c224.1,0,406.5,182.4,406.5,406.5S3241.2,1419.8,3017.1,1419.8z M3017.1,768.3
      c-135.1,0-245,109.9-245,245s109.9,245,245,245c135.1,0,245-109.9,245-245S3152.2,768.3,3017.1,768.3z"/>
  </g>
</g>

<!-- bottom section pattern -->
<g id="bottom-pattern" mask="url(#bottom-mask)">
  <g class="st1-bottom-pattern-inside">
    <rect x="-3575.3" y="-949.3" class="st1-yellow" width="5373.3" height="2767.6"/>
    <path class="st1-orange" d="M414.2,1818.1c-763,0-1383.7-620.7-1383.7-1383.7S-348.7-949.3,414.2-949.3
      c763,0,1383.7,620.7,1383.7,1383.7S1177.2,1818.1,414.2,1818.1z M414.2-787.8c-673.9,0-1222.2,548.3-1222.2,1222.2
      s548.3,1222.2,1222.2,1222.2c673.9,0,1222.2-548.3,1222.2-1222.2S1088.2-787.8,414.2-787.8z M414.2,1492.4
      c-583.4,0-1058-474.6-1058-1057.9s474.6-1058,1058-1058s1058,474.6,1058,1058S997.6,1492.4,414.2,1492.4z M414.2-462
      c-494.3,0-896.5,402.1-896.5,896.5c0,494.3,402.2,896.4,896.5,896.4s896.5-402.1,896.5-896.4C1310.7-59.9,908.6-462,414.2-462z
      M414.2,1166.6C10.5,1166.6-318,838.2-318,434.4c0-403.8,328.5-732.2,732.2-732.2s732.2,328.5,732.2,732.2
      C1146.5,838.2,818,1166.6,414.2,1166.6z M414.2-136.3c-314.7,0-570.7,256-570.7,570.7s256,570.7,570.7,570.7
      S985,749.1,985,434.4S728.9-136.3,414.2-136.3z M414.2,840.9C190.1,840.9,7.8,658.6,7.8,434.4S190.1,27.9,414.2,27.9
      c224.1,0,406.5,182.4,406.5,406.5S638.4,840.9,414.2,840.9z M414.2,189.4c-135.1,0-245,109.9-245,245s109.9,245,245,245
      c135.1,0,245-109.9,245-245S549.3,189.4,414.2,189.4z"/>
    <path class="st1-orange" d="M-2191.6,1818.1c-763,0-1383.7-620.7-1383.7-1383.7s620.7-1383.7,1383.7-1383.7
      c763,0,1383.7,620.7,1383.7,1383.7S-1428.7,1818.1-2191.6,1818.1z M-2191.6-787.8c-673.9,0-1222.2,548.3-1222.2,1222.2
      s548.3,1222.2,1222.2,1222.2c673.9,0,1222.2-548.3,1222.2-1222.2S-1517.7-787.8-2191.6-787.8z M-2191.6,1492.4
      c-583.4,0-1058-474.6-1058-1057.9s474.6-1058,1058-1058s1058,474.6,1058,1058S-1608.3,1492.4-2191.6,1492.4z M-2191.6-462
      c-494.3,0-896.5,402.1-896.5,896.5c0,494.3,402.2,896.4,896.5,896.4s896.5-402.1,896.5-896.4
      C-1295.2-59.9-1697.3-462-2191.6-462z M-2191.6,1166.6c-403.7,0-732.2-328.5-732.2-732.2c0-403.8,328.5-732.2,732.2-732.2
      s732.2,328.5,732.2,732.2C-1459.4,838.2-1787.9,1166.6-2191.6,1166.6z M-2191.6-136.3c-314.7,0-570.7,256-570.7,570.7
      s256,570.7,570.7,570.7s570.7-256,570.7-570.7S-1877-136.3-2191.6-136.3z M-2191.6,840.9c-224.1,0-406.5-182.4-406.5-406.5
      s182.3-406.5,406.5-406.5c224.1,0,406.5,182.4,406.5,406.5S-1967.5,840.9-2191.6,840.9z M-2191.6,189.4
      c-135.1,0-245,109.9-245,245s109.9,245,245,245c135.1,0,245-109.9,245-245S-2056.6,189.4-2191.6,189.4z"/>
  </g>
</g>

<!-- outline -->
<path class="st1-grey" d="M794.1,380.8h-21.2V126.4c0-4.5-2.2-8.6-5.9-11.1C760.6,111,609.2,11.4,405,11.4S49.4,111,43.1,115.3
  c-3.7,2.5-5.9,6.6-5.9,11.1v254.4H16c-7.4,0-13.4,6-13.4,13.4v274.5c0,7.4,6,13.4,13.4,13.4h778.1c7.4,0,13.4-6,13.4-13.4V394.2
  C807.4,386.8,801.4,380.8,794.1,380.8z M129.7,104.1C195.3,74.4,292.4,42.2,405,42.2c112.4,0,209.6,32.2,275.2,61.9
  c2.5,1.1,1.7,4.9-1.1,4.9H130.8C128,109,127.2,105.2,129.7,104.1z M68,144.1c0-2.4,2-4.4,4.4-4.4H738c2.4,0,4.4,2,4.4,4.4v232.3
  c0,2.4-2,4.4-4.4,4.4H72.4c-2.4,0-4.4-2-4.4-4.4V144.1z M776.7,646.2c0,2.5-2,4.5-4.5,4.5H37.9c-2.5,0-4.5-2-4.5-4.5V416.1
  c0-2.5,2-4.5,4.5-4.5h734.2c2.5,0,4.5,2,4.5,4.5V646.2z"/>

</svg>
