<?xml version="1.0" encoding="utf-8"?>
<svg version="1.1" id="Tank_Outlines" xmlns="http://www.w3.org/2000/svg" xmlns:xlink="http://www.w3.org/1999/xlink" x="0px"
	 y="0px" viewBox="0 0 810.1 693.5" style="enable-background:new 0 0 810.1 693.5;" xml:space="preserve">

<style type="text/css">
	.st3-white{
		fill: #FFFFFF;
	}
	.st3-blue {
		fill: #4000FF;
	}
	.st3-red {
		fill: #FF151E;
	}
	.st3-grey {
		fill:#231F20;
	}
	@keyframes st3TankTop {
	  0% {
		transform: translateX(0);
	  }
	  100% {
		transform: translateX(40%);
	  }
	}

	@keyframes st3TankMiddle {
	  0% {
		transform: translateX(0);
	  }
	  100% {
		transform: translateX(-40%);
	  }
	}

	@keyframes st3TankBottom {
	  0% {
		transform: translateX(0);
	  }
	  100% {
		transform: translateX(40%);
	  }
	}

	.st3-top-pattern-inside {
	  animation: st3TankTop 2s infinite linear;
	}

	.st3-middle-pattern-inside {
	  animation: st3TankMiddle 2s infinite linear;
	}

	.st3-bottom-pattern-inside {
	  animation: st3TankBottom 2s infinite linear;
	}
</style>

<!-- masks defined -->
<defs>
	<!-- top piece -->
	<mask id="st3-top-mask">
		<path fill="#fff" d="M83.5,115.5c0,0,335.4-181,641.9,0C390,115.5,83.5,115.5,83.5,115.5"/>
	</mask>
	<!-- middle piece -->
	<mask id="st3-middle-mask">
		<rect x="51.2" y="123.7" width="705.2" height="272" fill="#fff"/>
	</mask>
	<!-- bottom piece -->
	<mask id="st3-bottom-mask">
		<rect x="17.5" y="398.1" width="774.6" height="269.2" fill="#fff"/>
	</mask>
</defs>

<g class="st3-top-pattern" mask="url(#st3-top-mask)">
	<g class="st3-top-pattern-inside">
		<rect x="-2668.8" y="-408" class="st3-blue" width="3466.3" height="2007.4"/>
		<path class="st3-red" d="M-1642,1421.7c-53.8,0-97.5,43.7-97.5,97.5s43.7,97.5,97.5,97.5c53.8,0,97.5-43.7,97.5-97.5
			S-1588.3,1421.7-1642,1421.7z"/>
		<path class="st3-red" d="M-1175.1,1421.7c-53.8,0-97.5,43.7-97.5,97.5s43.7,97.5,97.5,97.5c53.8,0,97.5-43.7,97.5-97.5
			S-1121.3,1421.7-1175.1,1421.7z"/>
		<path class="st3-red" d="M-708.2,1421.7c-53.8,0-97.5,43.7-97.5,97.5s43.7,97.5,97.5,97.5c53.8,0,97.5-43.7,97.5-97.5
			S-654.4,1421.7-708.2,1421.7z"/>
		<path class="st3-red" d="M-241.3,1421.7c-53.8,0-97.5,43.7-97.5,97.5s43.7,97.5,97.5,97.5s97.5-43.7,97.5-97.5
			S-187.5,1421.7-241.3,1421.7z"/>
		<path class="st3-red" d="M225.6,1421.7c-53.8,0-97.5,43.7-97.5,97.5s43.7,97.5,97.5,97.5s97.5-43.7,97.5-97.5
			S279.4,1421.7,225.6,1421.7z"/>
		<path class="st3-red" d="M692.5,1421.7c-53.8,0-97.5,43.7-97.5,97.5s43.7,97.5,97.5,97.5c53.8,0,97.5-43.7,97.5-97.5
			S746.3,1421.7,692.5,1421.7z"/>
		<path class="st3-red" d="M-1408.8,1195.5c-53.8,0-97.5,43.7-97.5,97.5c0,53.8,43.7,97.5,97.5,97.5c53.8,0,97.5-43.7,97.5-97.5
			C-1311.3,1239.3-1355,1195.5-1408.8,1195.5z"/>
		<path class="st3-red" d="M-941.9,1195.5c-53.8,0-97.5,43.7-97.5,97.5c0,53.8,43.7,97.5,97.5,97.5c53.8,0,97.5-43.7,97.5-97.5
			C-844.4,1239.3-888.1,1195.5-941.9,1195.5z"/>
		<path class="st3-red" d="M-475,1195.5c-53.8,0-97.5,43.7-97.5,97.5c0,53.8,43.7,97.5,97.5,97.5c53.8,0,97.5-43.7,97.5-97.5
			C-377.5,1239.3-421.2,1195.5-475,1195.5z"/>
		<path class="st3-red" d="M-8.1,1195.5c-53.8,0-97.5,43.7-97.5,97.5c0,53.8,43.7,97.5,97.5,97.5s97.5-43.7,97.5-97.5
			C89.5,1239.3,45.7,1195.5-8.1,1195.5z"/>
		<path class="st3-red" d="M458.9,1195.5c-53.8,0-97.5,43.7-97.5,97.5c0,53.8,43.7,97.5,97.5,97.5c53.8,0,97.5-43.7,97.5-97.5
			C556.4,1239.3,512.6,1195.5,458.9,1195.5z"/>
		<path class="st3-red" d="M-1642,1164.4c53.8,0,97.5-43.7,97.5-97.5c0-53.8-43.7-97.5-97.5-97.5c-53.8,0-97.5,43.7-97.5,97.5
			C-1739.5,1120.6-1695.8,1164.4-1642,1164.4z"/>
		<path class="st3-red" d="M-1175.1,1164.4c53.8,0,97.5-43.7,97.5-97.5c0-53.8-43.7-97.5-97.5-97.5c-53.8,0-97.5,43.7-97.5,97.5
			C-1272.6,1120.6-1228.9,1164.4-1175.1,1164.4z"/>
		<path class="st3-red" d="M-708.2,1164.4c53.8,0,97.5-43.7,97.5-97.5c0-53.8-43.7-97.5-97.5-97.5c-53.8,0-97.5,43.7-97.5,97.5
			C-805.7,1120.6-762,1164.4-708.2,1164.4z"/>
		<path class="st3-red" d="M-241.3,1164.4c53.8,0,97.5-43.7,97.5-97.5c0-53.8-43.7-97.5-97.5-97.5s-97.5,43.7-97.5,97.5
			C-338.8,1120.6-295.1,1164.4-241.3,1164.4z"/>
		<path class="st3-red" d="M225.6,1164.4c53.8,0,97.5-43.7,97.5-97.5c0-53.8-43.7-97.5-97.5-97.5s-97.5,43.7-97.5,97.5
			C128.1,1120.6,171.8,1164.4,225.6,1164.4z"/>
		<path class="st3-red" d="M692.5,969.4c-53.8,0-97.5,43.7-97.5,97.5c0,53.8,43.7,97.5,97.5,97.5c53.8,0,97.5-43.7,97.5-97.5
			C790,1013.1,746.3,969.4,692.5,969.4z"/>
		<path class="st3-red" d="M-1408.8,938.2c53.8,0,97.5-43.7,97.5-97.5c0-53.8-43.7-97.5-97.5-97.5c-53.8,0-97.5,43.7-97.5,97.5
			C-1506.3,894.5-1462.6,938.2-1408.8,938.2z"/>
		<path class="st3-red" d="M-941.9,938.2c53.8,0,97.5-43.7,97.5-97.5c0-53.8-43.7-97.5-97.5-97.5c-53.8,0-97.5,43.7-97.5,97.5
			C-1039.4,894.5-995.6,938.2-941.9,938.2z"/>
		<path class="st3-red" d="M-475,938.2c53.8,0,97.5-43.7,97.5-97.5c0-53.8-43.7-97.5-97.5-97.5c-53.8,0-97.5,43.7-97.5,97.5
			C-572.5,894.5-528.7,938.2-475,938.2z"/>
		<path class="st3-red" d="M-8.1,938.2c53.8,0,97.5-43.7,97.5-97.5c0-53.8-43.7-97.5-97.5-97.5s-97.5,43.7-97.5,97.5
			C-105.6,894.5-61.8,938.2-8.1,938.2z"/>
		<path class="st3-red" d="M458.9,938.2c53.8,0,97.5-43.7,97.5-97.5c0-53.8-43.7-97.5-97.5-97.5c-53.8,0-97.5,43.7-97.5,97.5
			C361.3,894.5,405.1,938.2,458.9,938.2z"/>
		<path class="st3-red" d="M-1642,712c53.8,0,97.5-43.7,97.5-97.5c0-53.8-43.7-97.5-97.5-97.5c-53.8,0-97.5,43.7-97.5,97.5
			C-1739.5,668.3-1695.8,712-1642,712z"/>
		<path class="st3-red" d="M-1175.1,517c-53.8,0-97.5,43.7-97.5,97.5c0,53.8,43.7,97.5,97.5,97.5c53.8,0,97.5-43.7,97.5-97.5
			C-1077.6,560.8-1121.3,517-1175.1,517z"/>
		<path class="st3-red" d="M-708.2,517c-53.8,0-97.5,43.7-97.5,97.5c0,53.8,43.7,97.5,97.5,97.5c53.8,0,97.5-43.7,97.5-97.5
			C-610.7,560.8-654.4,517-708.2,517z"/>
		<path class="st3-red" d="M-241.3,517c-53.8,0-97.5,43.7-97.5,97.5c0,53.8,43.7,97.5,97.5,97.5s97.5-43.7,97.5-97.5
			C-143.8,560.8-187.5,517-241.3,517z"/>
		<path class="st3-red" d="M128.1,614.5c0,53.8,43.7,97.5,97.5,97.5s97.5-43.7,97.5-97.5c0-53.8-43.7-97.5-97.5-97.5
			S128.1,560.8,128.1,614.5z"/>
		<path class="st3-red" d="M692.5,517c-53.8,0-97.5,43.7-97.5,97.5c0,53.8,43.7,97.5,97.5,97.5c53.8,0,97.5-43.7,97.5-97.5
			C790,560.8,746.3,517,692.5,517z"/>
		<path class="st3-red" d="M-1408.8,290.8c-53.8,0-97.5,43.7-97.5,97.5c0,53.8,43.7,97.5,97.5,97.5c53.8,0,97.5-43.7,97.5-97.5
			C-1311.3,334.6-1355,290.8-1408.8,290.8z"/>
		<path class="st3-red" d="M-941.9,290.8c-53.8,0-97.5,43.7-97.5,97.5c0,53.8,43.7,97.5,97.5,97.5c53.8,0,97.5-43.7,97.5-97.5
			C-844.4,334.6-888.1,290.8-941.9,290.8z"/>
		<path class="st3-red" d="M-475,290.8c-53.8,0-97.5,43.7-97.5,97.5c0,53.8,43.7,97.5,97.5,97.5c53.8,0,97.5-43.7,97.5-97.5
			C-377.5,334.6-421.2,290.8-475,290.8z"/>
		<path class="st3-red" d="M-8.1,290.8c-53.8,0-97.5,43.7-97.5,97.5c0,53.8,43.7,97.5,97.5,97.5s97.5-43.7,97.5-97.5
			C89.5,334.6,45.7,290.8-8.1,290.8z"/>
		<path class="st3-red" d="M458.9,290.8c-53.8,0-97.5,43.7-97.5,97.5c0,53.8,43.7,97.5,97.5,97.5c53.8,0,97.5-43.7,97.5-97.5
			C556.4,334.6,512.6,290.8,458.9,290.8z"/>
		<path class="st3-red" d="M-1642,259.7c53.8,0,97.5-43.7,97.5-97.5c0-53.8-43.7-97.5-97.5-97.5c-53.8,0-97.5,43.7-97.5,97.5
			C-1739.5,215.9-1695.8,259.7-1642,259.7z"/>
		<path class="st3-red" d="M-1175.1,64.7c-53.8,0-97.5,43.7-97.5,97.5c0,53.8,43.7,97.5,97.5,97.5c53.8,0,97.5-43.7,97.5-97.5
			C-1077.6,108.4-1121.3,64.7-1175.1,64.7z"/>
		<path class="st3-red" d="M-708.2,64.7c-53.8,0-97.5,43.7-97.5,97.5c0,53.8,43.7,97.5,97.5,97.5c53.8,0,97.5-43.7,97.5-97.5
			C-610.7,108.4-654.4,64.7-708.2,64.7z"/>
		<path class="st3-red" d="M-241.3,64.7c-53.8,0-97.5,43.7-97.5,97.5c0,53.8,43.7,97.5,97.5,97.5s97.5-43.7,97.5-97.5
			C-143.8,108.4-187.5,64.7-241.3,64.7z"/>
		<path class="st3-red" d="M225.6,64.7c-53.8,0-97.5,43.7-97.5,97.5c0,53.8,43.7,97.5,97.5,97.5s97.5-43.7,97.5-97.5
			C323.1,108.4,279.4,64.7,225.6,64.7z"/>
		<path class="st3-red" d="M692.5,64.7c-53.8,0-97.5,43.7-97.5,97.5c0,53.8,43.7,97.5,97.5,97.5c53.8,0,97.5-43.7,97.5-97.5
			C790,108.4,746.3,64.7,692.5,64.7z"/>
		<path class="st3-red" d="M-1408.8,33.5c53.8,0,97.5-43.7,97.5-97.5c0-53.8-43.7-97.5-97.5-97.5c-53.8,0-97.5,43.7-97.5,97.5
			C-1506.3-10.2-1462.6,33.5-1408.8,33.5z"/>
		<path class="st3-red" d="M-941.9,33.5c53.8,0,97.5-43.7,97.5-97.5c0-53.8-43.7-97.5-97.5-97.5c-53.8,0-97.5,43.7-97.5,97.5
			C-1039.4-10.2-995.6,33.5-941.9,33.5z"/>
		<path class="st3-red" d="M-475,33.5c53.8,0,97.5-43.7,97.5-97.5c0-53.8-43.7-97.5-97.5-97.5c-53.8,0-97.5,43.7-97.5,97.5
			C-572.5-10.2-528.7,33.5-475,33.5z"/>
		<path class="st3-red" d="M-8.1,33.5c53.8,0,97.5-43.7,97.5-97.5c0-53.8-43.7-97.5-97.5-97.5s-97.5,43.7-97.5,97.5
			C-105.6-10.2-61.8,33.5-8.1,33.5z"/>
		<path class="st3-red" d="M458.9,33.5c53.8,0,97.5-43.7,97.5-97.5c0-53.8-43.7-97.5-97.5-97.5c-53.8,0-97.5,43.7-97.5,97.5
			C361.3-10.2,405.1,33.5,458.9,33.5z"/>
		<path class="st3-red" d="M-1642-192.6c53.8,0,97.5-43.7,97.5-97.5c0-53.8-43.7-97.5-97.5-97.5c-53.8,0-97.5,43.7-97.5,97.5
			C-1739.5-236.4-1695.8-192.6-1642-192.6z"/>
		<path class="st3-red" d="M-1175.1-192.6c53.8,0,97.5-43.7,97.5-97.5c0-53.8-43.7-97.5-97.5-97.5c-53.8,0-97.5,43.7-97.5,97.5
			C-1272.6-236.4-1228.9-192.6-1175.1-192.6z"/>
		<path class="st3-red" d="M-708.2-192.6c53.8,0,97.5-43.7,97.5-97.5c0-53.8-43.7-97.5-97.5-97.5c-53.8,0-97.5,43.7-97.5,97.5
			C-805.7-236.4-762-192.6-708.2-192.6z"/>
		<path class="st3-red" d="M-241.3-192.6c53.8,0,97.5-43.7,97.5-97.5c0-53.8-43.7-97.5-97.5-97.5s-97.5,43.7-97.5,97.5
			C-338.8-236.4-295.1-192.6-241.3-192.6z"/>
		<path class="st3-red" d="M225.6-192.6c53.8,0,97.5-43.7,97.5-97.5c0-53.8-43.7-97.5-97.5-97.5s-97.5,43.7-97.5,97.5
			C128.1-236.4,171.8-192.6,225.6-192.6z"/>
		<path class="st3-red" d="M692.5-192.6c53.8,0,97.5-43.7,97.5-97.5c0-53.8-43.7-97.5-97.5-97.5c-53.8,0-97.5,43.7-97.5,97.5
			C595-236.4,638.8-192.6,692.5-192.6z"/>
		<path class="st3-red" d="M-2575.8,1421.7c-53.8,0-97.5,43.7-97.5,97.5s43.7,97.5,97.5,97.5s97.5-43.7,97.5-97.5
			S-2522.1,1421.7-2575.8,1421.7z"/>
		<path class="st3-red" d="M-2108.9,1421.7c-53.8,0-97.5,43.7-97.5,97.5s43.7,97.5,97.5,97.5s97.5-43.7,97.5-97.5
			S-2055.2,1421.7-2108.9,1421.7z"/>
		<path class="st3-red" d="M-2342.6,1195.5c-53.8,0-97.5,43.7-97.5,97.5c0,53.8,43.7,97.5,97.5,97.5s97.5-43.7,97.5-97.5
			C-2245.1,1239.3-2288.8,1195.5-2342.6,1195.5z"/>
		<path class="st3-red" d="M-1875.7,1195.5c-53.8,0-97.5,43.7-97.5,97.5c0,53.8,43.7,97.5,97.5,97.5c53.8,0,97.5-43.7,97.5-97.5
			C-1778.2,1239.3-1821.9,1195.5-1875.7,1195.5z"/>
		<path class="st3-red" d="M-2575.8,1164.4c53.8,0,97.5-43.7,97.5-97.5c0-53.8-43.7-97.5-97.5-97.5s-97.5,43.7-97.5,97.5
			C-2673.4,1120.6-2629.6,1164.4-2575.8,1164.4z"/>
		<path class="st3-red" d="M-2108.9,1164.4c53.8,0,97.5-43.7,97.5-97.5c0-53.8-43.7-97.5-97.5-97.5s-97.5,43.7-97.5,97.5
			C-2206.4,1120.6-2162.7,1164.4-2108.9,1164.4z"/>
		<path class="st3-red" d="M-2342.6,938.2c53.8,0,97.5-43.7,97.5-97.5c0-53.8-43.7-97.5-97.5-97.5s-97.5,43.7-97.5,97.5
			C-2440.1,894.5-2396.4,938.2-2342.6,938.2z"/>
		<path class="st3-red" d="M-1875.7,938.2c53.8,0,97.5-43.7,97.5-97.5c0-53.8-43.7-97.5-97.5-97.5c-53.8,0-97.5,43.7-97.5,97.5
			C-1973.2,894.5-1929.5,938.2-1875.7,938.2z"/>
		<path class="st3-red" d="M-2575.8,517c-53.8,0-97.5,43.7-97.5,97.5c0,53.8,43.7,97.5,97.5,97.5s97.5-43.7,97.5-97.5
			C-2478.3,560.8-2522.1,517-2575.8,517z"/>
		<path class="st3-red" d="M-2206.4,614.5c0,53.8,43.7,97.5,97.5,97.5s97.5-43.7,97.5-97.5c0-53.8-43.7-97.5-97.5-97.5
			S-2206.4,560.8-2206.4,614.5z"/>
		<path class="st3-red" d="M-2342.6,290.8c-53.8,0-97.5,43.7-97.5,97.5c0,53.8,43.7,97.5,97.5,97.5s97.5-43.7,97.5-97.5
			C-2245.1,334.6-2288.8,290.8-2342.6,290.8z"/>
		<path class="st3-red" d="M-1875.7,290.8c-53.8,0-97.5,43.7-97.5,97.5c0,53.8,43.7,97.5,97.5,97.5c53.8,0,97.5-43.7,97.5-97.5
			C-1778.2,334.6-1821.9,290.8-1875.7,290.8z"/>
		<path class="st3-red" d="M-2575.8,64.7c-53.8,0-97.5,43.7-97.5,97.5c0,53.8,43.7,97.5,97.5,97.5s97.5-43.7,97.5-97.5
			C-2478.3,108.4-2522.1,64.7-2575.8,64.7z"/>
		<path class="st3-red" d="M-2108.9,64.7c-53.8,0-97.5,43.7-97.5,97.5c0,53.8,43.7,97.5,97.5,97.5s97.5-43.7,97.5-97.5
			C-2011.4,108.4-2055.2,64.7-2108.9,64.7z"/>
		<path class="st3-red" d="M-2342.6,33.5c53.8,0,97.5-43.7,97.5-97.5c0-53.8-43.7-97.5-97.5-97.5s-97.5,43.7-97.5,97.5
			C-2440.1-10.2-2396.4,33.5-2342.6,33.5z"/>
		<path class="st3-red" d="M-1875.7,33.5c53.8,0,97.5-43.7,97.5-97.5c0-53.8-43.7-97.5-97.5-97.5c-53.8,0-97.5,43.7-97.5,97.5
			C-1973.2-10.2-1929.5,33.5-1875.7,33.5z"/>
		<path class="st3-red" d="M-2575.8-192.6c53.8,0,97.5-43.7,97.5-97.5c0-53.8-43.7-97.5-97.5-97.5s-97.5,43.7-97.5,97.5
			C-2673.4-236.4-2629.6-192.6-2575.8-192.6z"/>
		<path class="st3-red" d="M-2108.9-192.6c53.8,0,97.5-43.7,97.5-97.5c0-53.8-43.7-97.5-97.5-97.5s-97.5,43.7-97.5,97.5
			C-2206.4-236.4-2162.7-192.6-2108.9-192.6z"/>
	</g>
</g>

<g class="st3-middle-pattern" mask="url(#st3-middle-mask)">
	<g class="st3-middle-pattern-inside">
		<rect x="-96.9" y="-429.7" class="st3-red" width="3479.5" height="2004.4"/>
		<path class="st3-blue" d="M934.4,1379.7c-53.8,0-97.5,43.7-97.5,97.5c0,53.8,43.7,97.5,97.5,97.5c53.8,0,97.5-43.7,97.5-97.5
			C1032,1423.4,988.2,1379.7,934.4,1379.7z"/>
		<path class="st3-blue" d="M1401.4,1379.7c-53.8,0-97.5,43.7-97.5,97.5c0,53.8,43.7,97.5,97.5,97.5c53.8,0,97.5-43.7,97.5-97.5
			C1498.9,1423.4,1455.1,1379.7,1401.4,1379.7z"/>
		<path class="st3-blue" d="M1868.3,1379.7c-53.8,0-97.5,43.7-97.5,97.5c0,53.8,43.7,97.5,97.5,97.5c53.8,0,97.5-43.7,97.5-97.5
			C1965.8,1423.4,1922,1379.7,1868.3,1379.7z"/>
		<path class="st3-blue" d="M2335.2,1379.7c-53.8,0-97.5,43.7-97.5,97.5c0,53.8,43.7,97.5,97.5,97.5s97.5-43.7,97.5-97.5
			C2432.7,1423.4,2388.9,1379.7,2335.2,1379.7z"/>
		<path class="st3-blue" d="M2802.1,1379.7c-53.8,0-97.5,43.7-97.5,97.5c0,53.8,43.7,97.5,97.5,97.5s97.5-43.7,97.5-97.5
			C2899.6,1423.4,2855.8,1379.7,2802.1,1379.7z"/>
		<path class="st3-blue" d="M3269,1379.7c-53.8,0-97.5,43.7-97.5,97.5c0,53.8,43.7,97.5,97.5,97.5c53.8,0,97.5-43.7,97.5-97.5
			C3366.5,1423.4,3322.8,1379.7,3269,1379.7z"/>
		<path class="st3-blue" d="M1167.7,1153.5c-53.8,0-97.5,43.7-97.5,97.5c0,53.8,43.7,97.5,97.5,97.5c53.8,0,97.5-43.7,97.5-97.5
			C1265.2,1197.2,1221.4,1153.5,1167.7,1153.5z"/>
		<path class="st3-blue" d="M1634.6,1153.5c-53.8,0-97.5,43.7-97.5,97.5c0,53.8,43.7,97.5,97.5,97.5c53.8,0,97.5-43.7,97.5-97.5
			C1732.1,1197.2,1688.4,1153.5,1634.6,1153.5z"/>
		<path class="st3-blue" d="M2101.5,1153.5c-53.8,0-97.5,43.7-97.5,97.5c0,53.8,43.7,97.5,97.5,97.5c53.8,0,97.5-43.7,97.5-97.5
			C2199,1197.2,2155.3,1153.5,2101.5,1153.5z"/>
		<path class="st3-blue" d="M2568.4,1153.5c-53.8,0-97.5,43.7-97.5,97.5c0,53.8,43.7,97.5,97.5,97.5c53.8,0,97.5-43.7,97.5-97.5
			C2665.9,1197.2,2622.2,1153.5,2568.4,1153.5z"/>
		<path class="st3-blue" d="M3035.3,1153.5c-53.8,0-97.5,43.7-97.5,97.5c0,53.8,43.7,97.5,97.5,97.5c53.8,0,97.5-43.7,97.5-97.5
			C3132.8,1197.2,3089.1,1153.5,3035.3,1153.5z"/>
		<path class="st3-blue" d="M934.4,1122.4c53.8,0,97.5-43.7,97.5-97.5c0-53.8-43.7-97.5-97.5-97.5c-53.8,0-97.5,43.7-97.5,97.5
			C836.9,1078.6,880.7,1122.4,934.4,1122.4z"/>
		<path class="st3-blue" d="M1401.4,1122.4c53.8,0,97.5-43.7,97.5-97.5c0-53.8-43.7-97.5-97.5-97.5c-53.8,0-97.5,43.7-97.5,97.5
			C1303.8,1078.6,1347.6,1122.4,1401.4,1122.4z"/>
		<path class="st3-blue" d="M1868.3,1122.4c53.8,0,97.5-43.7,97.5-97.5c0-53.8-43.7-97.5-97.5-97.5c-53.8,0-97.5,43.7-97.5,97.5
			C1770.7,1078.6,1814.5,1122.4,1868.3,1122.4z"/>
		<path class="st3-blue" d="M2335.2,1122.4c53.8,0,97.5-43.7,97.5-97.5c0-53.8-43.7-97.5-97.5-97.5s-97.5,43.7-97.5,97.5
			C2237.7,1078.6,2281.4,1122.4,2335.2,1122.4z"/>
		<path class="st3-blue" d="M2802.1,1122.4c53.8,0,97.5-43.7,97.5-97.5c0-53.8-43.7-97.5-97.5-97.5s-97.5,43.7-97.5,97.5
			C2704.6,1078.6,2748.3,1122.4,2802.1,1122.4z"/>
		<path class="st3-blue" d="M3269,927.3c-53.8,0-97.5,43.7-97.5,97.5c0,53.8,43.7,97.5,97.5,97.5c53.8,0,97.5-43.7,97.5-97.5
			C3366.5,971.1,3322.8,927.3,3269,927.3z"/>
		<path class="st3-blue" d="M1167.7,896.2c53.8,0,97.5-43.7,97.5-97.5c0-53.8-43.7-97.5-97.5-97.5c-53.8,0-97.5,43.7-97.5,97.5
			C1070.2,852.4,1113.9,896.2,1167.7,896.2z"/>
		<path class="st3-blue" d="M1634.6,896.2c53.8,0,97.5-43.7,97.5-97.5c0-53.8-43.7-97.5-97.5-97.5c-53.8,0-97.5,43.7-97.5,97.5
			C1537.1,852.4,1580.8,896.2,1634.6,896.2z"/>
		<path class="st3-blue" d="M2101.5,896.2c53.8,0,97.5-43.7,97.5-97.5c0-53.8-43.7-97.5-97.5-97.5c-53.8,0-97.5,43.7-97.5,97.5
			C2004,852.4,2047.7,896.2,2101.5,896.2z"/>
		<path class="st3-blue" d="M2568.4,896.2c53.8,0,97.5-43.7,97.5-97.5c0-53.8-43.7-97.5-97.5-97.5c-53.8,0-97.5,43.7-97.5,97.5
			C2470.9,852.4,2514.6,896.2,2568.4,896.2z"/>
		<path class="st3-blue" d="M3035.3,896.2c53.8,0,97.5-43.7,97.5-97.5c0-53.8-43.7-97.5-97.5-97.5c-53.8,0-97.5,43.7-97.5,97.5
			C2937.8,852.4,2981.5,896.2,3035.3,896.2z"/>
		<path class="st3-blue" d="M934.4,670c53.8,0,97.5-43.7,97.5-97.5c0-53.8-43.7-97.5-97.5-97.5c-53.8,0-97.5,43.7-97.5,97.5
			C836.9,626.3,880.7,670,934.4,670z"/>
		<path class="st3-blue" d="M1401.4,475c-53.8,0-97.5,43.7-97.5,97.5c0,53.8,43.7,97.5,97.5,97.5c53.8,0,97.5-43.7,97.5-97.5
			C1498.9,518.7,1455.1,475,1401.4,475z"/>
		<path class="st3-blue" d="M1868.3,475c-53.8,0-97.5,43.7-97.5,97.5c0,53.8,43.7,97.5,97.5,97.5c53.8,0,97.5-43.7,97.5-97.5
			C1965.8,518.7,1922,475,1868.3,475z"/>
		<path class="st3-blue" d="M2335.2,475c-53.8,0-97.5,43.7-97.5,97.5c0,53.8,43.7,97.5,97.5,97.5s97.5-43.7,97.5-97.5
			C2432.7,518.7,2388.9,475,2335.2,475z"/>
		<path class="st3-blue" d="M2704.6,572.5c0,53.8,43.7,97.5,97.5,97.5s97.5-43.7,97.5-97.5c0-53.8-43.7-97.5-97.5-97.5
			S2704.6,518.7,2704.6,572.5z"/>
		<path class="st3-blue" d="M3269,475c-53.8,0-97.5,43.7-97.5,97.5c0,53.8,43.7,97.5,97.5,97.5c53.8,0,97.5-43.7,97.5-97.5
			C3366.5,518.7,3322.8,475,3269,475z"/>
		<path class="st3-blue" d="M1167.7,248.8c-53.8,0-97.5,43.7-97.5,97.5c0,53.8,43.7,97.5,97.5,97.5c53.8,0,97.5-43.7,97.5-97.5
			C1265.2,292.6,1221.4,248.8,1167.7,248.8z"/>
		<path class="st3-blue" d="M1634.6,248.8c-53.8,0-97.5,43.7-97.5,97.5c0,53.8,43.7,97.5,97.5,97.5c53.8,0,97.5-43.7,97.5-97.5
			C1732.1,292.6,1688.4,248.8,1634.6,248.8z"/>
		<path class="st3-blue" d="M2101.5,248.8c-53.8,0-97.5,43.7-97.5,97.5c0,53.8,43.7,97.5,97.5,97.5c53.8,0,97.5-43.7,97.5-97.5
			C2199,292.6,2155.3,248.8,2101.5,248.8z"/>
		<path class="st3-blue" d="M2568.4,248.8c-53.8,0-97.5,43.7-97.5,97.5c0,53.8,43.7,97.5,97.5,97.5c53.8,0,97.5-43.7,97.5-97.5
			C2665.9,292.6,2622.2,248.8,2568.4,248.8z"/>
		<path class="st3-blue" d="M3035.3,248.8c-53.8,0-97.5,43.7-97.5,97.5c0,53.8,43.7,97.5,97.5,97.5c53.8,0,97.5-43.7,97.5-97.5
			C3132.8,292.6,3089.1,248.8,3035.3,248.8z"/>
		<path class="st3-blue" d="M934.4,217.7c53.8,0,97.5-43.7,97.5-97.5c0-53.8-43.7-97.5-97.5-97.5c-53.8,0-97.5,43.7-97.5,97.5
			C836.9,173.9,880.7,217.7,934.4,217.7z"/>
		<path class="st3-blue" d="M1401.4,22.6c-53.8,0-97.5,43.7-97.5,97.5c0,53.8,43.7,97.5,97.5,97.5c53.8,0,97.5-43.7,97.5-97.5
			C1498.9,66.4,1455.1,22.6,1401.4,22.6z"/>
		<path class="st3-blue" d="M1868.3,22.6c-53.8,0-97.5,43.7-97.5,97.5c0,53.8,43.7,97.5,97.5,97.5c53.8,0,97.5-43.7,97.5-97.5
			C1965.8,66.4,1922,22.6,1868.3,22.6z"/>
		<path class="st3-blue" d="M2335.2,22.6c-53.8,0-97.5,43.7-97.5,97.5c0,53.8,43.7,97.5,97.5,97.5s97.5-43.7,97.5-97.5
			C2432.7,66.4,2388.9,22.6,2335.2,22.6z"/>
		<path class="st3-blue" d="M2802.1,22.6c-53.8,0-97.5,43.7-97.5,97.5c0,53.8,43.7,97.5,97.5,97.5s97.5-43.7,97.5-97.5
			C2899.6,66.4,2855.8,22.6,2802.1,22.6z"/>
		<path class="st3-blue" d="M3269,22.6c-53.8,0-97.5,43.7-97.5,97.5c0,53.8,43.7,97.5,97.5,97.5c53.8,0,97.5-43.7,97.5-97.5
			C3366.5,66.4,3322.8,22.6,3269,22.6z"/>
		<path class="st3-blue" d="M1167.7-8.5c53.8,0,97.5-43.7,97.5-97.5c0-53.8-43.7-97.5-97.5-97.5c-53.8,0-97.5,43.7-97.5,97.5
			C1070.2-52.3,1113.9-8.5,1167.7-8.5z"/>
		<path class="st3-blue" d="M1634.6-8.5c53.8,0,97.5-43.7,97.5-97.5c0-53.8-43.7-97.5-97.5-97.5c-53.8,0-97.5,43.7-97.5,97.5
			C1537.1-52.3,1580.8-8.5,1634.6-8.5z"/>
		<path class="st3-blue" d="M2101.5-8.5c53.8,0,97.5-43.7,97.5-97.5c0-53.8-43.7-97.5-97.5-97.5c-53.8,0-97.5,43.7-97.5,97.5
			C2004-52.3,2047.7-8.5,2101.5-8.5z"/>
		<path class="st3-blue" d="M2568.4-8.5c53.8,0,97.5-43.7,97.5-97.5c0-53.8-43.7-97.5-97.5-97.5c-53.8,0-97.5,43.7-97.5,97.5
			C2470.9-52.3,2514.6-8.5,2568.4-8.5z"/>
		<path class="st3-blue" d="M3035.3-8.5c53.8,0,97.5-43.7,97.5-97.5c0-53.8-43.7-97.5-97.5-97.5c-53.8,0-97.5,43.7-97.5,97.5
			C2937.8-52.3,2981.5-8.5,3035.3-8.5z"/>
		<path class="st3-blue" d="M934.4-234.7c53.8,0,97.5-43.7,97.5-97.5c0-53.8-43.7-97.5-97.5-97.5c-53.8,0-97.5,43.7-97.5,97.5
			C836.9-278.4,880.7-234.7,934.4-234.7z"/>
		<path class="st3-blue" d="M1401.4-234.7c53.8,0,97.5-43.7,97.5-97.5c0-53.8-43.7-97.5-97.5-97.5c-53.8,0-97.5,43.7-97.5,97.5
			C1303.8-278.4,1347.6-234.7,1401.4-234.7z"/>
		<path class="st3-blue" d="M1868.3-234.7c53.8,0,97.5-43.7,97.5-97.5c0-53.8-43.7-97.5-97.5-97.5c-53.8,0-97.5,43.7-97.5,97.5
			C1770.7-278.4,1814.5-234.7,1868.3-234.7z"/>
		<path class="st3-blue" d="M2335.2-234.7c53.8,0,97.5-43.7,97.5-97.5c0-53.8-43.7-97.5-97.5-97.5s-97.5,43.7-97.5,97.5
			C2237.7-278.4,2281.4-234.7,2335.2-234.7z"/>
		<path class="st3-blue" d="M2802.1-234.7c53.8,0,97.5-43.7,97.5-97.5c0-53.8-43.7-97.5-97.5-97.5s-97.5,43.7-97.5,97.5
			C2704.6-278.4,2748.3-234.7,2802.1-234.7z"/>
		<path class="st3-blue" d="M3269-234.7c53.8,0,97.5-43.7,97.5-97.5c0-53.8-43.7-97.5-97.5-97.5c-53.8,0-97.5,43.7-97.5,97.5
			C3171.5-278.4,3215.2-234.7,3269-234.7z"/>
		<path class="st3-blue" d="M0.6,1379.7c-53.8,0-97.5,43.7-97.5,97.5c0,53.8,43.7,97.5,97.5,97.5s97.5-43.7,97.5-97.5
			C98.1,1423.4,54.4,1379.7,0.6,1379.7z"/>
		<path class="st3-blue" d="M467.5,1379.7c-53.8,0-97.5,43.7-97.5,97.5c0,53.8,43.7,97.5,97.5,97.5c53.8,0,97.5-43.7,97.5-97.5
			C565.1,1423.4,521.3,1379.7,467.5,1379.7z"/>
		<path class="st3-blue" d="M233.9,1153.5c-53.8,0-97.5,43.7-97.5,97.5c0,53.8,43.7,97.5,97.5,97.5s97.5-43.7,97.5-97.5
			C331.4,1197.2,287.6,1153.5,233.9,1153.5z"/>
		<path class="st3-blue" d="M700.8,1153.5c-53.8,0-97.5,43.7-97.5,97.5c0,53.8,43.7,97.5,97.5,97.5c53.8,0,97.5-43.7,97.5-97.5
			C798.3,1197.2,754.5,1153.5,700.8,1153.5z"/>
		<path class="st3-blue" d="M0.6,1122.4c53.8,0,97.5-43.7,97.5-97.5c0-53.8-43.7-97.5-97.5-97.5s-97.5,43.7-97.5,97.5
			C-96.9,1078.6-53.1,1122.4,0.6,1122.4z"/>
		<path class="st3-blue" d="M467.5,1122.4c53.8,0,97.5-43.7,97.5-97.5c0-53.8-43.7-97.5-97.5-97.5c-53.8,0-97.5,43.7-97.5,97.5
			C370,1078.6,413.8,1122.4,467.5,1122.4z"/>
		<path class="st3-blue" d="M233.9,896.2c53.8,0,97.5-43.7,97.5-97.5c0-53.8-43.7-97.5-97.5-97.5s-97.5,43.7-97.5,97.5
			C136.3,852.4,180.1,896.2,233.9,896.2z"/>
		<path class="st3-blue" d="M700.8,896.2c53.8,0,97.5-43.7,97.5-97.5c0-53.8-43.7-97.5-97.5-97.5c-53.8,0-97.5,43.7-97.5,97.5
			C603.3,852.4,647,896.2,700.8,896.2z"/>
		<path class="st3-blue" d="M0.6,475c-53.8,0-97.5,43.7-97.5,97.5c0,53.8,43.7,97.5,97.5,97.5s97.5-43.7,97.5-97.5
			C98.1,518.7,54.4,475,0.6,475z"/>
		<path class="st3-blue" d="M370,572.5c0,53.8,43.7,97.5,97.5,97.5c53.8,0,97.5-43.7,97.5-97.5c0-53.8-43.7-97.5-97.5-97.5
			C413.8,475,370,518.7,370,572.5z"/>
		<path class="st3-blue" d="M233.9,248.8c-53.8,0-97.5,43.7-97.5,97.5c0,53.8,43.7,97.5,97.5,97.5s97.5-43.7,97.5-97.5
			C331.4,292.6,287.6,248.8,233.9,248.8z"/>
		<path class="st3-blue" d="M700.8,248.8c-53.8,0-97.5,43.7-97.5,97.5c0,53.8,43.7,97.5,97.5,97.5c53.8,0,97.5-43.7,97.5-97.5
			C798.3,292.6,754.5,248.8,700.8,248.8z"/>
		<path class="st3-blue" d="M0.6,22.6c-53.8,0-97.5,43.7-97.5,97.5c0,53.8,43.7,97.5,97.5,97.5s97.5-43.7,97.5-97.5
			C98.1,66.4,54.4,22.6,0.6,22.6z"/>
		<path class="st3-blue" d="M467.5,22.6c-53.8,0-97.5,43.7-97.5,97.5c0,53.8,43.7,97.5,97.5,97.5c53.8,0,97.5-43.7,97.5-97.5
			C565.1,66.4,521.3,22.6,467.5,22.6z"/>
		<path class="st3-blue" d="M233.9-8.5c53.8,0,97.5-43.7,97.5-97.5c0-53.8-43.7-97.5-97.5-97.5s-97.5,43.7-97.5,97.5
			C136.3-52.3,180.1-8.5,233.9-8.5z"/>
		<path class="st3-blue" d="M700.8-8.5c53.8,0,97.5-43.7,97.5-97.5c0-53.8-43.7-97.5-97.5-97.5c-53.8,0-97.5,43.7-97.5,97.5
			C603.3-52.3,647-8.5,700.8-8.5z"/>
		<path class="st3-blue" d="M0.6-234.7c53.8,0,97.5-43.7,97.5-97.5c0-53.8-43.7-97.5-97.5-97.5s-97.5,43.7-97.5,97.5
			C-96.9-278.4-53.1-234.7,0.6-234.7z"/>
		<path class="st3-blue" d="M467.5-234.7c53.8,0,97.5-43.7,97.5-97.5c0-53.8-43.7-97.5-97.5-97.5c-53.8,0-97.5,43.7-97.5,97.5
			C370-278.4,413.8-234.7,467.5-234.7z"/>
	</g>
</g>

<g class="st3-bottom-pattern" mask="url(#st3-bottom-mask)">
	<g class="st3-bottom-pattern-inside">
		<rect x="-2668.8" y="-377" class="st3-blue" width="3466.3" height="2007.4"/>
		<path class="st3-red" d="M-1642,1452.7c-53.8,0-97.5,43.7-97.5,97.5c0,53.8,43.7,97.5,97.5,97.5c53.8,0,97.5-43.7,97.5-97.5
			C-1544.5,1496.5-1588.3,1452.7-1642,1452.7z"/>
		<path class="st3-red" d="M-1175.1,1452.7c-53.8,0-97.5,43.7-97.5,97.5c0,53.8,43.7,97.5,97.5,97.5c53.8,0,97.5-43.7,97.5-97.5
			C-1077.6,1496.5-1121.3,1452.7-1175.1,1452.7z"/>
		<path class="st3-red" d="M-708.2,1452.7c-53.8,0-97.5,43.7-97.5,97.5c0,53.8,43.7,97.5,97.5,97.5c53.8,0,97.5-43.7,97.5-97.5
			C-610.7,1496.5-654.4,1452.7-708.2,1452.7z"/>
		<path class="st3-red" d="M-241.3,1452.7c-53.8,0-97.5,43.7-97.5,97.5c0,53.8,43.7,97.5,97.5,97.5s97.5-43.7,97.5-97.5
			C-143.8,1496.5-187.5,1452.7-241.3,1452.7z"/>
		<path class="st3-red" d="M225.6,1452.7c-53.8,0-97.5,43.7-97.5,97.5c0,53.8,43.7,97.5,97.5,97.5s97.5-43.7,97.5-97.5
			C323.1,1496.5,279.4,1452.7,225.6,1452.7z"/>
		<path class="st3-red" d="M692.5,1452.7c-53.8,0-97.5,43.7-97.5,97.5c0,53.8,43.7,97.5,97.5,97.5c53.8,0,97.5-43.7,97.5-97.5
			C790,1496.5,746.3,1452.7,692.5,1452.7z"/>
		<path class="st3-red" d="M-1408.8,1226.6c-53.8,0-97.5,43.7-97.5,97.5c0,53.8,43.7,97.5,97.5,97.5c53.8,0,97.5-43.7,97.5-97.5
			C-1311.3,1270.3-1355,1226.6-1408.8,1226.6z"/>
		<path class="st3-red" d="M-941.9,1226.6c-53.8,0-97.5,43.7-97.5,97.5c0,53.8,43.7,97.5,97.5,97.5c53.8,0,97.5-43.7,97.5-97.5
			C-844.4,1270.3-888.1,1226.6-941.9,1226.6z"/>
		<path class="st3-red" d="M-475,1226.6c-53.8,0-97.5,43.7-97.5,97.5c0,53.8,43.7,97.5,97.5,97.5c53.8,0,97.5-43.7,97.5-97.5
			C-377.5,1270.3-421.2,1226.6-475,1226.6z"/>
		<path class="st3-red" d="M-8.1,1226.6c-53.8,0-97.5,43.7-97.5,97.5c0,53.8,43.7,97.5,97.5,97.5s97.5-43.7,97.5-97.5
			C89.5,1270.3,45.7,1226.6-8.1,1226.6z"/>
		<path class="st3-red" d="M458.9,1226.6c-53.8,0-97.5,43.7-97.5,97.5c0,53.8,43.7,97.5,97.5,97.5c53.8,0,97.5-43.7,97.5-97.5
			C556.4,1270.3,512.6,1226.6,458.9,1226.6z"/>
		<path class="st3-red" d="M-1642,1195.4c53.8,0,97.5-43.7,97.5-97.5c0-53.8-43.7-97.5-97.5-97.5c-53.8,0-97.5,43.7-97.5,97.5
			C-1739.5,1151.7-1695.8,1195.4-1642,1195.4z"/>
		<path class="st3-red" d="M-1175.1,1195.4c53.8,0,97.5-43.7,97.5-97.5c0-53.8-43.7-97.5-97.5-97.5c-53.8,0-97.5,43.7-97.5,97.5
			C-1272.6,1151.7-1228.9,1195.4-1175.1,1195.4z"/>
		<path class="st3-red" d="M-708.2,1195.4c53.8,0,97.5-43.7,97.5-97.5c0-53.8-43.7-97.5-97.5-97.5c-53.8,0-97.5,43.7-97.5,97.5
			C-805.7,1151.7-762,1195.4-708.2,1195.4z"/>
		<path class="st3-red" d="M-241.3,1195.4c53.8,0,97.5-43.7,97.5-97.5c0-53.8-43.7-97.5-97.5-97.5s-97.5,43.7-97.5,97.5
			C-338.8,1151.7-295.1,1195.4-241.3,1195.4z"/>
		<path class="st3-red" d="M225.6,1195.4c53.8,0,97.5-43.7,97.5-97.5c0-53.8-43.7-97.5-97.5-97.5s-97.5,43.7-97.5,97.5
			C128.1,1151.7,171.8,1195.4,225.6,1195.4z"/>
		<path class="st3-red" d="M692.5,1000.4c-53.8,0-97.5,43.7-97.5,97.5c0,53.8,43.7,97.5,97.5,97.5c53.8,0,97.5-43.7,97.5-97.5
			C790,1044.1,746.3,1000.4,692.5,1000.4z"/>
		<path class="st3-red" d="M-1408.8,969.2c53.8,0,97.5-43.7,97.5-97.5c0-53.8-43.7-97.5-97.5-97.5c-53.8,0-97.5,43.7-97.5,97.5
			C-1506.3,925.5-1462.6,969.2-1408.8,969.2z"/>
		<path class="st3-red" d="M-941.9,969.2c53.8,0,97.5-43.7,97.5-97.5c0-53.8-43.7-97.5-97.5-97.5c-53.8,0-97.5,43.7-97.5,97.5
			C-1039.4,925.5-995.6,969.2-941.9,969.2z"/>
		<path class="st3-red" d="M-475,969.2c53.8,0,97.5-43.7,97.5-97.5c0-53.8-43.7-97.5-97.5-97.5c-53.8,0-97.5,43.7-97.5,97.5
			C-572.5,925.5-528.7,969.2-475,969.2z"/>
		<path class="st3-red" d="M-8.1,969.2c53.8,0,97.5-43.7,97.5-97.5c0-53.8-43.7-97.5-97.5-97.5s-97.5,43.7-97.5,97.5
			C-105.6,925.5-61.8,969.2-8.1,969.2z"/>
		<path class="st3-red" d="M458.9,969.2c53.8,0,97.5-43.7,97.5-97.5c0-53.8-43.7-97.5-97.5-97.5c-53.8,0-97.5,43.7-97.5,97.5
			C361.3,925.5,405.1,969.2,458.9,969.2z"/>
		<path class="st3-red" d="M-1642,743.1c53.8,0,97.5-43.7,97.5-97.5c0-53.8-43.7-97.5-97.5-97.5c-53.8,0-97.5,43.7-97.5,97.5
			C-1739.5,699.3-1695.8,743.1-1642,743.1z"/>
		<path class="st3-red" d="M-1175.1,548c-53.8,0-97.5,43.7-97.5,97.5c0,53.8,43.7,97.5,97.5,97.5c53.8,0,97.5-43.7,97.5-97.5
			C-1077.6,591.8-1121.3,548-1175.1,548z"/>
		<path class="st3-red" d="M-708.2,548c-53.8,0-97.5,43.7-97.5,97.5c0,53.8,43.7,97.5,97.5,97.5c53.8,0,97.5-43.7,97.5-97.5
			C-610.7,591.8-654.4,548-708.2,548z"/>
		<path class="st3-red" d="M-241.3,548c-53.8,0-97.5,43.7-97.5,97.5c0,53.8,43.7,97.5,97.5,97.5s97.5-43.7,97.5-97.5
			C-143.8,591.8-187.5,548-241.3,548z"/>
		<path class="st3-red" d="M128.1,645.5c0,53.8,43.7,97.5,97.5,97.5s97.5-43.7,97.5-97.5c0-53.8-43.7-97.5-97.5-97.5
			S128.1,591.8,128.1,645.5z"/>
		<path class="st3-red" d="M692.5,548c-53.8,0-97.5,43.7-97.5,97.5c0,53.8,43.7,97.5,97.5,97.5c53.8,0,97.5-43.7,97.5-97.5
			C790,591.8,746.3,548,692.5,548z"/>
		<path class="st3-red" d="M-1408.8,321.9c-53.8,0-97.5,43.7-97.5,97.5c0,53.8,43.7,97.5,97.5,97.5c53.8,0,97.5-43.7,97.5-97.5
			C-1311.3,365.6-1355,321.9-1408.8,321.9z"/>
		<path class="st3-red" d="M-941.9,321.9c-53.8,0-97.5,43.7-97.5,97.5c0,53.8,43.7,97.5,97.5,97.5c53.8,0,97.5-43.7,97.5-97.5
			C-844.4,365.6-888.1,321.9-941.9,321.9z"/>
		<path class="st3-red" d="M-475,321.9c-53.8,0-97.5,43.7-97.5,97.5c0,53.8,43.7,97.5,97.5,97.5c53.8,0,97.5-43.7,97.5-97.5
			C-377.5,365.6-421.2,321.9-475,321.9z"/>
		<path class="st3-red" d="M-8.1,321.9c-53.8,0-97.5,43.7-97.5,97.5c0,53.8,43.7,97.5,97.5,97.5s97.5-43.7,97.5-97.5
			C89.5,365.6,45.7,321.9-8.1,321.9z"/>
		<path class="st3-red" d="M458.9,321.9c-53.8,0-97.5,43.7-97.5,97.5c0,53.8,43.7,97.5,97.5,97.5c53.8,0,97.5-43.7,97.5-97.5
			C556.4,365.6,512.6,321.9,458.9,321.9z"/>
		<path class="st3-red" d="M-1642,290.7c53.8,0,97.5-43.7,97.5-97.5c0-53.8-43.7-97.5-97.5-97.5c-53.8,0-97.5,43.7-97.5,97.5
			C-1739.5,247-1695.8,290.7-1642,290.7z"/>
		<path class="st3-red" d="M-1175.1,95.7c-53.8,0-97.5,43.7-97.5,97.5c0,53.8,43.7,97.5,97.5,97.5c53.8,0,97.5-43.7,97.5-97.5
			C-1077.6,139.4-1121.3,95.7-1175.1,95.7z"/>
		<path class="st3-red" d="M-708.2,95.7c-53.8,0-97.5,43.7-97.5,97.5c0,53.8,43.7,97.5,97.5,97.5c53.8,0,97.5-43.7,97.5-97.5
			C-610.7,139.4-654.4,95.7-708.2,95.7z"/>
		<path class="st3-red" d="M-241.3,95.7c-53.8,0-97.5,43.7-97.5,97.5c0,53.8,43.7,97.5,97.5,97.5s97.5-43.7,97.5-97.5
			C-143.8,139.4-187.5,95.7-241.3,95.7z"/>
		<path class="st3-red" d="M225.6,95.7c-53.8,0-97.5,43.7-97.5,97.5c0,53.8,43.7,97.5,97.5,97.5s97.5-43.7,97.5-97.5
			C323.1,139.4,279.4,95.7,225.6,95.7z"/>
		<path class="st3-red" d="M692.5,95.7c-53.8,0-97.5,43.7-97.5,97.5c0,53.8,43.7,97.5,97.5,97.5c53.8,0,97.5-43.7,97.5-97.5
			C790,139.4,746.3,95.7,692.5,95.7z"/>
		<path class="st3-red" d="M-1408.8,64.6c53.8,0,97.5-43.7,97.5-97.5c0-53.8-43.7-97.5-97.5-97.5c-53.8,0-97.5,43.7-97.5,97.5
			C-1506.3,20.8-1462.6,64.6-1408.8,64.6z"/>
		<path class="st3-red" d="M-941.9,64.6c53.8,0,97.5-43.7,97.5-97.5c0-53.8-43.7-97.5-97.5-97.5c-53.8,0-97.5,43.7-97.5,97.5
			C-1039.4,20.8-995.6,64.6-941.9,64.6z"/>
		<path class="st3-red" d="M-475,64.6c53.8,0,97.5-43.7,97.5-97.5c0-53.8-43.7-97.5-97.5-97.5c-53.8,0-97.5,43.7-97.5,97.5
			C-572.5,20.8-528.7,64.6-475,64.6z"/>
		<path class="st3-red" d="M-8.1,64.6c53.8,0,97.5-43.7,97.5-97.5c0-53.8-43.7-97.5-97.5-97.5s-97.5,43.7-97.5,97.5
			C-105.6,20.8-61.8,64.6-8.1,64.6z"/>
		<path class="st3-red" d="M458.9,64.6c53.8,0,97.5-43.7,97.5-97.5c0-53.8-43.7-97.5-97.5-97.5c-53.8,0-97.5,43.7-97.5,97.5
			C361.3,20.8,405.1,64.6,458.9,64.6z"/>
		<path class="st3-red" d="M-1642-161.6c53.8,0,97.5-43.7,97.5-97.5c0-53.8-43.7-97.5-97.5-97.5c-53.8,0-97.5,43.7-97.5,97.5
			C-1739.5-205.4-1695.8-161.6-1642-161.6z"/>
		<path class="st3-red" d="M-1175.1-161.6c53.8,0,97.5-43.7,97.5-97.5c0-53.8-43.7-97.5-97.5-97.5c-53.8,0-97.5,43.7-97.5,97.5
			C-1272.6-205.4-1228.9-161.6-1175.1-161.6z"/>
		<path class="st3-red" d="M-708.2-161.6c53.8,0,97.5-43.7,97.5-97.5c0-53.8-43.7-97.5-97.5-97.5c-53.8,0-97.5,43.7-97.5,97.5
			C-805.7-205.4-762-161.6-708.2-161.6z"/>
		<path class="st3-red" d="M-241.3-161.6c53.8,0,97.5-43.7,97.5-97.5c0-53.8-43.7-97.5-97.5-97.5s-97.5,43.7-97.5,97.5
			C-338.8-205.4-295.1-161.6-241.3-161.6z"/>
		<path class="st3-red" d="M225.6-161.6c53.8,0,97.5-43.7,97.5-97.5c0-53.8-43.7-97.5-97.5-97.5s-97.5,43.7-97.5,97.5
			C128.1-205.4,171.8-161.6,225.6-161.6z"/>
		<path class="st3-red" d="M692.5-161.6c53.8,0,97.5-43.7,97.5-97.5c0-53.8-43.7-97.5-97.5-97.5c-53.8,0-97.5,43.7-97.5,97.5
			C595-205.4,638.8-161.6,692.5-161.6z"/>
		<path class="st3-red" d="M-2575.8,1452.7c-53.8,0-97.5,43.7-97.5,97.5c0,53.8,43.7,97.5,97.5,97.5s97.5-43.7,97.5-97.5
			C-2478.3,1496.5-2522.1,1452.7-2575.8,1452.7z"/>
		<path class="st3-red" d="M-2108.9,1452.7c-53.8,0-97.5,43.7-97.5,97.5c0,53.8,43.7,97.5,97.5,97.5s97.5-43.7,97.5-97.5
			C-2011.4,1496.5-2055.2,1452.7-2108.9,1452.7z"/>
		<path class="st3-red" d="M-2342.6,1226.6c-53.8,0-97.5,43.7-97.5,97.5c0,53.8,43.7,97.5,97.5,97.5s97.5-43.7,97.5-97.5
			C-2245.1,1270.3-2288.8,1226.6-2342.6,1226.6z"/>
		<path class="st3-red" d="M-1875.7,1226.6c-53.8,0-97.5,43.7-97.5,97.5c0,53.8,43.7,97.5,97.5,97.5c53.8,0,97.5-43.7,97.5-97.5
			C-1778.2,1270.3-1821.9,1226.6-1875.7,1226.6z"/>
		<path class="st3-red" d="M-2575.8,1195.4c53.8,0,97.5-43.7,97.5-97.5c0-53.8-43.7-97.5-97.5-97.5s-97.5,43.7-97.5,97.5
			C-2673.4,1151.7-2629.6,1195.4-2575.8,1195.4z"/>
		<path class="st3-red" d="M-2108.9,1195.4c53.8,0,97.5-43.7,97.5-97.5c0-53.8-43.7-97.5-97.5-97.5s-97.5,43.7-97.5,97.5
			C-2206.4,1151.7-2162.7,1195.4-2108.9,1195.4z"/>
		<path class="st3-red" d="M-2342.6,969.2c53.8,0,97.5-43.7,97.5-97.5c0-53.8-43.7-97.5-97.5-97.5s-97.5,43.7-97.5,97.5
			C-2440.1,925.5-2396.4,969.2-2342.6,969.2z"/>
		<path class="st3-red" d="M-1875.7,969.2c53.8,0,97.5-43.7,97.5-97.5c0-53.8-43.7-97.5-97.5-97.5c-53.8,0-97.5,43.7-97.5,97.5
			C-1973.2,925.5-1929.5,969.2-1875.7,969.2z"/>
		<path class="st3-red" d="M-2575.8,548c-53.8,0-97.5,43.7-97.5,97.5c0,53.8,43.7,97.5,97.5,97.5s97.5-43.7,97.5-97.5
			C-2478.3,591.8-2522.1,548-2575.8,548z"/>
		<path class="st3-red" d="M-2206.4,645.5c0,53.8,43.7,97.5,97.5,97.5s97.5-43.7,97.5-97.5c0-53.8-43.7-97.5-97.5-97.5
			S-2206.4,591.8-2206.4,645.5z"/>
		<path class="st3-red" d="M-2342.6,321.9c-53.8,0-97.5,43.7-97.5,97.5c0,53.8,43.7,97.5,97.5,97.5s97.5-43.7,97.5-97.5
			C-2245.1,365.6-2288.8,321.9-2342.6,321.9z"/>
		<path class="st3-red" d="M-1875.7,321.9c-53.8,0-97.5,43.7-97.5,97.5c0,53.8,43.7,97.5,97.5,97.5c53.8,0,97.5-43.7,97.5-97.5
			C-1778.2,365.6-1821.9,321.9-1875.7,321.9z"/>
		<path class="st3-red" d="M-2575.8,95.7c-53.8,0-97.5,43.7-97.5,97.5c0,53.8,43.7,97.5,97.5,97.5s97.5-43.7,97.5-97.5
			C-2478.3,139.4-2522.1,95.7-2575.8,95.7z"/>
		<path class="st3-red" d="M-2108.9,95.7c-53.8,0-97.5,43.7-97.5,97.5c0,53.8,43.7,97.5,97.5,97.5s97.5-43.7,97.5-97.5
			C-2011.4,139.4-2055.2,95.7-2108.9,95.7z"/>
		<path class="st3-red" d="M-2342.6,64.6c53.8,0,97.5-43.7,97.5-97.5c0-53.8-43.7-97.5-97.5-97.5s-97.5,43.7-97.5,97.5
			C-2440.1,20.8-2396.4,64.6-2342.6,64.6z"/>
		<path class="st3-red" d="M-1875.7,64.6c53.8,0,97.5-43.7,97.5-97.5c0-53.8-43.7-97.5-97.5-97.5c-53.8,0-97.5,43.7-97.5,97.5
			C-1973.2,20.8-1929.5,64.6-1875.7,64.6z"/>
		<path class="st3-red" d="M-2575.8-161.6c53.8,0,97.5-43.7,97.5-97.5c0-53.8-43.7-97.5-97.5-97.5s-97.5,43.7-97.5,97.5
			C-2673.4-205.4-2629.6-161.6-2575.8-161.6z"/>
		<path class="st3-red" d="M-2108.9-161.6c53.8,0,97.5-43.7,97.5-97.5c0-53.8-43.7-97.5-97.5-97.5s-97.5,43.7-97.5,97.5
			C-2206.4-205.4-2162.7-161.6-2108.9-161.6z"/>
	</g>
</g>

<path class="st3-grey" d="M794.1,380.8h-21.2V126.4c0-4.5-2.2-8.6-5.9-11.1C760.6,111,609.2,11.4,405,11.4S49.4,111,43.1,115.3
	c-3.7,2.5-5.9,6.6-5.9,11.1v254.4H16c-7.4,0-13.4,6-13.4,13.4v274.5c0,7.4,6,13.4,13.4,13.4h778.1c7.4,0,13.4-6,13.4-13.4V394.2
	C807.4,386.8,801.4,380.8,794.1,380.8z M129.7,104.1C195.3,74.4,292.4,42.2,405,42.2c112.4,0,209.6,32.2,275.2,61.9
	c2.5,1.1,1.7,4.9-1.1,4.9H130.8C128,109,127.2,105.2,129.7,104.1z M68,144.1c0-2.4,2-4.4,4.4-4.4H738c2.4,0,4.4,2,4.4,4.4v232.3
	c0,2.4-2,4.4-4.4,4.4H72.4c-2.4,0-4.4-2-4.4-4.4V144.1z M776.7,646.2c0,2.5-2,4.5-4.5,4.5H37.9c-2.5,0-4.5-2-4.5-4.5V416.1
	c0-2.5,2-4.5,4.5-4.5h734.2c2.5,0,4.5,2,4.5,4.5L776.7,646.2L776.7,646.2z"/>

</svg>
