<?xml version="1.0" encoding="utf-8"?>
<svg version="1.1" id="spinning-tank-2" xmlns="http://www.w3.org/2000/svg" xmlns:xlink="http://www.w3.org/1999/xlink" x="0px"
	 y="0px" viewBox="0 0 810.1 693.5" style="enable-background:new 0 0 810.1 693.5;" xml:space="preserve">

<style type="text/css">
	.st2-white {
		fill: #FFFFFF;
	}
	.st2-purple {
		fill: #6F2EFF;
	}
	.st2-greenstroke {
		fill: none;
		stroke: #00FF92;
		stroke-width: 44.1041;
		stroke-miterlimit: 10;
	}
	.st2-grey {
		fill:#231F20;
	}
	@keyframes st2TankTop {
	  0% {
		transform: translateX(0);
	  }
	  100% {
		transform: translateX(33.3%);
	  }
	}

	@keyframes st2TankMiddle {
	  0% {
		transform: translateX(0);
	  }
	  100% {
		transform: translateX(-33.3%);
	  }
	}

	@keyframes st2TankBottom {
	  0% {
		transform: translateX(0);
	  }
	  100% {
		transform: translateX(33.3%);
	  }
	}

	.st2-top-pattern-inside {
	  animation: st2TankTop 2s infinite linear;
	}

	.st2-middle-pattern-inside {
	  animation: st2TankMiddle 2s infinite linear;
	}

	.st2-bottom-pattern-inside {
	  animation: st2TankBottom 2s infinite linear;
	}
</style>

<!-- masks defined -->
<defs>
	<!-- top piece -->
	<mask id="st2-top-mask">
		<path fill="#fff" d="M83.5,115.5c0,0,335.4-181,641.9,0C390,115.5,83.5,115.5,83.5,115.5"/>
	</mask>
	<!-- middle piece -->
	<mask id="st2-middle-mask">
		<rect x="51.2" y="123.7" width="705.2" height="272" fill="#fff"/>
	</mask>
	<!-- bottom piece -->
	<mask id="st2-bottom-mask">
		<rect x="17.5" y="398.1" width="774.6" height="269.2" fill="#fff"/>
	</mask>
</defs>

<!-- top section pattern -->
<g class="st2-top-pattern" mask="url(#st2-top-mask)">
	<g class="st2-top-pattern-inside">
		<rect x="-1759.1" y="-104.4" class="st2-purple" width="2612.2" height="1231.8"/>
		<path class="st2-greenstroke" d="M-1759.1-61.7c217.7,0,217.7,144.3,435.4,144.3c217.7,0,217.7-144.3,435.4-144.3
			c217.7,0,217.7,144.3,435.4,144.3c217.7,0,217.7-144.3,435.4-144.3c217.7,0,217.7,144.3,435.4,144.3S635.4-61.7,853.1-61.7"/>
		<path class="st2-greenstroke" d="M-1759.1,35c217.7,0,217.7,144.3,435.4,144.3C-1106,179.4-1106,35-888.3,35
			c217.7,0,217.7,144.3,435.4,144.3C-235.3,179.4-235.3,35-17.6,35c217.7,0,217.7,144.3,435.4,144.3S635.4,35,853.1,35"/>
		<path class="st2-greenstroke" d="M-1759.1,133.4c217.7,0,217.7,144.3,435.4,144.3c217.7,0,217.7-144.3,435.4-144.3
			c217.7,0,217.7,144.3,435.4,144.3c217.7,0,217.7-144.3,435.4-144.3c217.7,0,217.7,144.3,435.4,144.3s217.7-144.3,435.4-144.3"
			/>
		<path class="st2-greenstroke" d="M-1759.1,230.1c217.7,0,217.7,144.3,435.4,144.3c217.7,0,217.7-144.3,435.4-144.3
			c217.7,0,217.7,144.3,435.4,144.3c217.7,0,217.7-144.3,435.4-144.3c217.7,0,217.7,144.3,435.4,144.3s217.7-144.3,435.4-144.3"
			/>
		<path class="st2-greenstroke" d="M-1759.1,328.4c217.7,0,217.7,144.3,435.4,144.3c217.7,0,217.7-144.3,435.4-144.3
			c217.7,0,217.7,144.3,435.4,144.3c217.7,0,217.7-144.3,435.4-144.3c217.7,0,217.7,144.3,435.4,144.3s217.7-144.3,435.4-144.3"
			/>
		<path class="st2-greenstroke" d="M-1759.1,425.1c217.7,0,217.7,144.3,435.4,144.3c217.7,0,217.7-144.3,435.4-144.3
			c217.7,0,217.7,144.3,435.4,144.3c217.7,0,217.7-144.3,435.4-144.3c217.7,0,217.7,144.3,435.4,144.3s217.7-144.3,435.4-144.3"
			/>
		<path class="st2-greenstroke" d="M-1759.1,523.5c217.7,0,217.7,144.3,435.4,144.3c217.7,0,217.7-144.3,435.4-144.3
			c217.7,0,217.7,144.3,435.4,144.3c217.7,0,217.7-144.3,435.4-144.3c217.7,0,217.7,144.3,435.4,144.3s217.7-144.3,435.4-144.3"
			/>
		<path class="st2-greenstroke" d="M-1759.1,620.1c217.7,0,217.7,144.3,435.4,144.3c217.7,0,217.7-144.3,435.4-144.3
			c217.7,0,217.7,144.3,435.4,144.3c217.7,0,217.7-144.3,435.4-144.3c217.7,0,217.7,144.3,435.4,144.3s217.7-144.3,435.4-144.3"
			/>
		<path class="st2-greenstroke" d="M-1759.1,718.5c217.7,0,217.7,144.3,435.4,144.3c217.7,0,217.7-144.3,435.4-144.3
			c217.7,0,217.7,144.3,435.4,144.3c217.7,0,217.7-144.3,435.4-144.3c217.7,0,217.7,144.3,435.4,144.3s217.7-144.3,435.4-144.3"
			/>
		<path class="st2-greenstroke" d="M-1759.1,815.2c217.7,0,217.7,144.3,435.4,144.3c217.7,0,217.7-144.3,435.4-144.3
			c217.7,0,217.7,144.3,435.4,144.3c217.7,0,217.7-144.3,435.4-144.3c217.7,0,217.7,144.3,435.4,144.3s217.7-144.3,435.4-144.3"
			/>
		<path class="st2-greenstroke" d="M-1759.1,913.5c217.7,0,217.7,144.3,435.4,144.3c217.7,0,217.7-144.3,435.4-144.3
			c217.7,0,217.7,144.3,435.4,144.3c217.7,0,217.7-144.3,435.4-144.3c217.7,0,217.7,144.3,435.4,144.3s217.7-144.3,435.4-144.3"
			/>
	</g>
</g>

<!-- middle section pattern -->
<g class="st2-middle-pattern" mask="url(#st2-middle-mask)">
	<g class="st2-middle-pattern-inside">
		<rect x="-24.7" y="116.5" class="st2-purple" width="2612.2" height="620.3"/>
		<path class="st2-greenstroke" d="M2587.5,667.8c-217.7,0-217.7-144.3-435.4-144.3c-217.7,0-217.7,144.3-435.4,144.3
			c-217.7,0-217.7-144.3-435.4-144.3c-217.7,0-217.7,144.3-435.4,144.3c-217.7,0-217.7-144.3-435.4-144.3S193,667.8-24.7,667.8"
			/>
		<path class="st2-greenstroke" d="M2587.5,569.5c-217.7,0-217.7-144.3-435.4-144.3c-217.7,0-217.7,144.3-435.4,144.3
			c-217.7,0-217.7-144.3-435.4-144.3c-217.7,0-217.7,144.3-435.4,144.3c-217.7,0-217.7-144.3-435.4-144.3
			C193,425.1,193,569.5-24.7,569.5"/>
		<path class="st2-greenstroke" d="M2587.5,472.8c-217.7,0-217.7-144.3-435.4-144.3c-217.7,0-217.7,144.3-435.4,144.3
			c-217.7,0-217.7-144.3-435.4-144.3c-217.7,0-217.7,144.3-435.4,144.3c-217.7,0-217.7-144.3-435.4-144.3
			C193,328.4,193,472.8-24.7,472.8"/>
		<path class="st2-greenstroke" d="M2587.5,374.4c-217.7,0-217.7-144.3-435.4-144.3c-217.7,0-217.7,144.3-435.4,144.3
			c-217.7,0-217.7-144.3-435.4-144.3c-217.7,0-217.7,144.3-435.4,144.3c-217.7,0-217.7-144.3-435.4-144.3
			C193,230.1,193,374.4-24.7,374.4"/>
		<path class="st2-greenstroke" d="M2587.5,277.7c-217.7,0-217.7-144.3-435.4-144.3c-217.7,0-217.7,144.3-435.4,144.3
			c-217.7,0-217.7-144.3-435.4-144.3c-217.7,0-217.7,144.3-435.4,144.3c-217.7,0-217.7-144.3-435.4-144.3S193,277.7-24.7,277.7"
			/>
	</g>
</g>

<!-- bottom section pattern -->
<g class="st2-bottom-pattern" mask="url(#st2-bottom-mask)">
	<g class="st2-bottom-pattern-inside">
		<rect x="-1759.1" y="-104.4" class="st2-purple" width="2612.2" height="1231.8"/>
		<path class="st2-greenstroke" d="M-1759.1-61.7c217.7,0,217.7,144.3,435.4,144.3c217.7,0,217.7-144.3,435.4-144.3
			c217.7,0,217.7,144.3,435.4,144.3c217.7,0,217.7-144.3,435.4-144.3c217.7,0,217.7,144.3,435.4,144.3S635.4-61.7,853.1-61.7"/>
		<path class="st2-greenstroke" d="M-1759.1,35c217.7,0,217.7,144.3,435.4,144.3C-1106,179.4-1106,35-888.3,35
			c217.7,0,217.7,144.3,435.4,144.3C-235.3,179.4-235.3,35-17.6,35c217.7,0,217.7,144.3,435.4,144.3S635.4,35,853.1,35"/>
		<path class="st2-greenstroke" d="M-1759.1,133.4c217.7,0,217.7,144.3,435.4,144.3c217.7,0,217.7-144.3,435.4-144.3
			c217.7,0,217.7,144.3,435.4,144.3c217.7,0,217.7-144.3,435.4-144.3c217.7,0,217.7,144.3,435.4,144.3s217.7-144.3,435.4-144.3"
			/>
		<path class="st2-greenstroke" d="M-1759.1,230.1c217.7,0,217.7,144.3,435.4,144.3c217.7,0,217.7-144.3,435.4-144.3
			c217.7,0,217.7,144.3,435.4,144.3c217.7,0,217.7-144.3,435.4-144.3c217.7,0,217.7,144.3,435.4,144.3s217.7-144.3,435.4-144.3"
			/>
		<path class="st2-greenstroke" d="M-1759.1,328.4c217.7,0,217.7,144.3,435.4,144.3c217.7,0,217.7-144.3,435.4-144.3
			c217.7,0,217.7,144.3,435.4,144.3c217.7,0,217.7-144.3,435.4-144.3c217.7,0,217.7,144.3,435.4,144.3s217.7-144.3,435.4-144.3"
			/>
		<path class="st2-greenstroke" d="M-1759.1,425.1c217.7,0,217.7,144.3,435.4,144.3c217.7,0,217.7-144.3,435.4-144.3
			c217.7,0,217.7,144.3,435.4,144.3c217.7,0,217.7-144.3,435.4-144.3c217.7,0,217.7,144.3,435.4,144.3s217.7-144.3,435.4-144.3"
			/>
		<path class="st2-greenstroke" d="M-1759.1,523.5c217.7,0,217.7,144.3,435.4,144.3c217.7,0,217.7-144.3,435.4-144.3
			c217.7,0,217.7,144.3,435.4,144.3c217.7,0,217.7-144.3,435.4-144.3c217.7,0,217.7,144.3,435.4,144.3s217.7-144.3,435.4-144.3"
			/>
		<path class="st2-greenstroke" d="M-1759.1,620.1c217.7,0,217.7,144.3,435.4,144.3c217.7,0,217.7-144.3,435.4-144.3
			c217.7,0,217.7,144.3,435.4,144.3c217.7,0,217.7-144.3,435.4-144.3c217.7,0,217.7,144.3,435.4,144.3s217.7-144.3,435.4-144.3"
			/>
		<path class="st2-greenstroke" d="M-1759.1,718.5c217.7,0,217.7,144.3,435.4,144.3c217.7,0,217.7-144.3,435.4-144.3
			c217.7,0,217.7,144.3,435.4,144.3c217.7,0,217.7-144.3,435.4-144.3c217.7,0,217.7,144.3,435.4,144.3s217.7-144.3,435.4-144.3"
			/>
		<path class="st2-greenstroke" d="M-1759.1,815.2c217.7,0,217.7,144.3,435.4,144.3c217.7,0,217.7-144.3,435.4-144.3
			c217.7,0,217.7,144.3,435.4,144.3c217.7,0,217.7-144.3,435.4-144.3c217.7,0,217.7,144.3,435.4,144.3s217.7-144.3,435.4-144.3"
			/>
		<path class="st2-greenstroke" d="M-1759.1,913.5c217.7,0,217.7,144.3,435.4,144.3c217.7,0,217.7-144.3,435.4-144.3
			c217.7,0,217.7,144.3,435.4,144.3c217.7,0,217.7-144.3,435.4-144.3c217.7,0,217.7,144.3,435.4,144.3s217.7-144.3,435.4-144.3"
			/>
	</g>
</g>

<!-- outline -->
<path class="st2-grey" d="M794.1,380.8h-21.2V126.4c0-4.5-2.2-8.6-5.9-11.1C760.6,111,609.2,11.4,405,11.4S49.4,111,43.1,115.3
	c-3.7,2.5-5.9,6.6-5.9,11.1v254.4H16c-7.4,0-13.4,6-13.4,13.4v274.5c0,7.4,6,13.4,13.4,13.4h778.1c7.4,0,13.4-6,13.4-13.4V394.2
	C807.4,386.8,801.4,380.8,794.1,380.8z M129.7,104.1C195.3,74.4,292.4,42.2,405,42.2c112.4,0,209.6,32.2,275.2,61.9
	c2.5,1.1,1.7,4.9-1.1,4.9H130.8C128,109,127.2,105.2,129.7,104.1z M68,144.1c0-2.4,2-4.4,4.4-4.4H738c2.4,0,4.4,2,4.4,4.4v232.3
	c0,2.4-2,4.4-4.4,4.4H72.4c-2.4,0-4.4-2-4.4-4.4V144.1z M776.7,646.2c0,2.5-2,4.5-4.5,4.5H37.9c-2.5,0-4.5-2-4.5-4.5V416.1
	c0-2.5,2-4.5,4.5-4.5h734.2c2.5,0,4.5,2,4.5,4.5L776.7,646.2L776.7,646.2z"/>

</svg>
