<?xml version="1.0" encoding="utf-8"?>
<!-- Generator: Adobe Illustrator 21.1.0, SVG Export Plug-In . SVG Version: 6.00 Build 0)  -->
<svg version="1.1" id="Layer_1" xmlns="http://www.w3.org/2000/svg" xmlns:xlink="http://www.w3.org/1999/xlink" x="0px" y="0px"
	 viewBox="0 0 272 1955" style="enable-background:new 0 0 272 1955;" xml:space="preserve">
<style type="text/css">
	.st0{fill:#00FF91;}
</style>
<title>Group 13</title>
<desc>Created with Sketch.</desc>
<g id="Group-13">
	<circle id="Oval" class="st0" cx="30.5" cy="661.5" r="30.5"/>
	<circle id="Oval-Copy-38" class="st0" cx="30.5" cy="241.5" r="30.5"/>
	<circle id="Oval-Copy-22" class="st0" cx="30.5" cy="451.5" r="30.5"/>
	<circle id="Oval-Copy-39" class="st0" cx="30.5" cy="30.5" r="30.5"/>
	<circle id="Oval-Copy-14" class="st0" cx="30.5" cy="766.5" r="30.5"/>
	<circle id="Oval-Copy-40" class="st0" cx="30.5" cy="346.5" r="30.5"/>
	<circle id="Oval-Copy-23" class="st0" cx="30.5" cy="556.5" r="30.5"/>
	<circle id="Oval-Copy-41" class="st0" cx="30.5" cy="135.5" r="30.5"/>
	<circle id="Oval-Copy-8" class="st0" cx="241.5" cy="661.5" r="30.5"/>
	<circle id="Oval-Copy-42" class="st0" cx="241.5" cy="241.5" r="30.5"/>
	<circle id="Oval-Copy-24" class="st0" cx="241.5" cy="451.5" r="30.5"/>
	<circle id="Oval-Copy-43" class="st0" cx="241.5" cy="30.5" r="30.5"/>
	<circle id="Oval-Copy-15" class="st0" cx="241.5" cy="766.5" r="30.5"/>
	<circle id="Oval-Copy-44" class="st0" cx="241.5" cy="346.5" r="30.5"/>
	<circle id="Oval-Copy-25" class="st0" cx="241.5" cy="556.5" r="30.5"/>
	<circle id="Oval-Copy-45" class="st0" cx="241.5" cy="135.5" r="30.5"/>
	<circle id="Oval-Copy-12" class="st0" cx="135.5" cy="1503.5" r="30.5"/>
	<circle id="Oval-Copy-50" class="st0" cx="135.5" cy="1082.5" r="30.5"/>
	<circle id="Oval-Copy-28" class="st0" cx="135.5" cy="1292.5" r="30.5"/>
	<circle id="Oval-Copy-87" class="st0" cx="135.5" cy="1818.5" r="30.5"/>
	<circle id="Oval-Copy-51" class="st0" cx="135.5" cy="871.5" r="30.5"/>
	<circle id="Oval-Copy-17" class="st0" cx="135.5" cy="1608.5" r="30.5"/>
	<circle id="Oval-Copy-52" class="st0" cx="135.5" cy="1187.5" r="30.5"/>
	<circle id="Oval-Copy-89" class="st0" cx="135.5" cy="1713.5" r="30.5"/>
	<circle id="Oval-Copy-29" class="st0" cx="135.5" cy="1398.5" r="30.5"/>
	<circle id="Oval-Copy-90" class="st0" cx="135.5" cy="1924.5" r="30.5"/>
	<circle id="Oval-Copy-53" class="st0" cx="135.5" cy="976.5" r="30.5"/>
	<circle id="Oval-Copy-7" class="st0" cx="135.5" cy="661.5" r="30.5"/>
	<circle id="Oval-Copy-54" class="st0" cx="135.5" cy="241.5" r="30.5"/>
	<circle id="Oval-Copy-30" class="st0" cx="135.5" cy="451.5" r="30.5"/>
	<circle id="Oval-Copy-55" class="st0" cx="135.5" cy="30.5" r="30.5"/>
	<circle id="Oval-Copy-18" class="st0" cx="135.5" cy="766.5" r="30.5"/>
	<circle id="Oval-Copy-56" class="st0" cx="135.5" cy="346.5" r="30.5"/>
	<circle id="Oval-Copy-31" class="st0" cx="135.5" cy="556.5" r="30.5"/>
	<circle id="Oval-Copy-57" class="st0" cx="135.5" cy="135.5" r="30.5"/>
	<circle id="Oval-Copy-11" class="st0" cx="30.5" cy="1503.5" r="30.5"/>
	<circle id="Oval-Copy-62" class="st0" cx="30.5" cy="1082.5" r="30.5"/>
	<circle id="Oval-Copy-34" class="st0" cx="30.5" cy="1292.5" r="30.5"/>
	<circle id="Oval-Copy-92" class="st0" cx="30.5" cy="1818.5" r="30.5"/>
	<circle id="Oval-Copy-63" class="st0" cx="30.5" cy="871.5" r="30.5"/>
	<circle id="Oval-Copy-20" class="st0" cx="30.5" cy="1608.5" r="30.5"/>
	<circle id="Oval-Copy-64" class="st0" cx="30.5" cy="1187.5" r="30.5"/>
	<circle id="Oval-Copy-94" class="st0" cx="30.5" cy="1713.5" r="30.5"/>
	<circle id="Oval-Copy-35" class="st0" cx="30.5" cy="1398.5" r="30.5"/>
	<circle id="Oval-Copy-95" class="st0" cx="30.5" cy="1924.5" r="30.5"/>
	<circle id="Oval-Copy-65" class="st0" cx="30.5" cy="976.5" r="30.5"/>
	<circle id="Oval-Copy-13" class="st0" cx="241.5" cy="1503.5" r="30.5"/>
	<circle id="Oval-Copy-66" class="st0" cx="241.5" cy="1082.5" r="30.5"/>
	<circle id="Oval-Copy-36" class="st0" cx="241.5" cy="1292.5" r="30.5"/>
	<circle id="Oval-Copy-97" class="st0" cx="241.5" cy="1818.5" r="30.5"/>
	<circle id="Oval-Copy-67" class="st0" cx="241.5" cy="871.5" r="30.5"/>
	<circle id="Oval-Copy-21" class="st0" cx="241.5" cy="1608.5" r="30.5"/>
	<circle id="Oval-Copy-68" class="st0" cx="241.5" cy="1187.5" r="30.5"/>
	<circle id="Oval-Copy-99" class="st0" cx="241.5" cy="1713.5" r="30.5"/>
	<circle id="Oval-Copy-37" class="st0" cx="241.5" cy="1398.5" r="30.5"/>
	<circle id="Oval-Copy-100" class="st0" cx="241.5" cy="1924.5" r="30.5"/>
	<circle id="Oval-Copy-69" class="st0" cx="241.5" cy="976.5" r="30.5"/>
</g>
</svg>
