<?xml version="1.0" encoding="UTF-8"?>
<svg width="482px" height="1639px" viewBox="0 0 482 1639" version="1.1" xmlns="http://www.w3.org/2000/svg" xmlns:xlink="http://www.w3.org/1999/xlink">
    <!-- Generator: Sketch 46.2 (44496) - http://www.bohemiancoding.com/sketch -->
    <title>Group 12 Copy</title>
    <desc>Created with Sketch.</desc>
    <defs></defs>
    <g id="Page-6-Copy" stroke="none" stroke-width="1" fill="none" fill-rule="evenodd">
        <g id="Group-12-Copy" fill="#00FF91">
            <circle id="Oval" cx="30.5" cy="661.5" r="30.5"></circle>
            <circle id="Oval-Copy-38" cx="30.5" cy="241.5" r="30.5"></circle>
            <circle id="Oval-Copy-22" cx="30.5" cy="451.5" r="30.5"></circle>
            <circle id="Oval-Copy-39" cx="30.5" cy="30.5" r="30.5"></circle>
            <circle id="Oval-Copy-14" cx="30.5" cy="766.5" r="30.5"></circle>
            <circle id="Oval-Copy-40" cx="30.5" cy="346.5" r="30.5"></circle>
            <circle id="Oval-Copy-23" cx="30.5" cy="556.5" r="30.5"></circle>
            <circle id="Oval-Copy-41" cx="30.5" cy="135.5" r="30.5"></circle>
            <circle id="Oval-Copy-8" cx="241.5" cy="661.5" r="30.5"></circle>
            <circle id="Oval-Copy-42" cx="241.5" cy="241.5" r="30.5"></circle>
            <circle id="Oval-Copy-24" cx="241.5" cy="451.5" r="30.5"></circle>
            <circle id="Oval-Copy-43" cx="241.5" cy="30.5" r="30.5"></circle>
            <circle id="Oval-Copy-15" cx="241.5" cy="766.5" r="30.5"></circle>
            <circle id="Oval-Copy-44" cx="241.5" cy="346.5" r="30.5"></circle>
            <circle id="Oval-Copy-25" cx="241.5" cy="556.5" r="30.5"></circle>
            <circle id="Oval-Copy-45" cx="241.5" cy="135.5" r="30.5"></circle>
            <circle id="Oval-Copy-10" cx="451.5" cy="661.5" r="30.5"></circle>
            <circle id="Oval-Copy-70" cx="451.5" cy="1503.5" r="30.5"></circle>
            <circle id="Oval-Copy-46" cx="451.5" cy="241.5" r="30.5"></circle>
            <circle id="Oval-Copy-71" cx="451.5" cy="1082.5" r="30.5"></circle>
            <circle id="Oval-Copy-26" cx="451.5" cy="451.5" r="30.5"></circle>
            <circle id="Oval-Copy-72" cx="451.5" cy="1292.5" r="30.5"></circle>
            <circle id="Oval-Copy-47" cx="451.5" cy="30.5" r="30.5"></circle>
            <circle id="Oval-Copy-73" cx="451.5" cy="871.5" r="30.5"></circle>
            <circle id="Oval-Copy-16" cx="451.5" cy="766.5" r="30.5"></circle>
            <circle id="Oval-Copy-74" cx="451.5" cy="1608.5" r="30.5"></circle>
            <circle id="Oval-Copy-48" cx="451.5" cy="346.5" r="30.5"></circle>
            <circle id="Oval-Copy-75" cx="451.5" cy="1187.5" r="30.5"></circle>
            <circle id="Oval-Copy-27" cx="451.5" cy="556.5" r="30.5"></circle>
            <circle id="Oval-Copy-76" cx="451.5" cy="1398.5" r="30.5"></circle>
            <circle id="Oval-Copy-49" cx="451.5" cy="135.5" r="30.5"></circle>
            <circle id="Oval-Copy-77" cx="451.5" cy="976.5" r="30.5"></circle>
            <circle id="Oval-Copy-12" cx="135.5" cy="1503.5" r="30.5"></circle>
            <circle id="Oval-Copy-50" cx="135.5" cy="1082.5" r="30.5"></circle>
            <circle id="Oval-Copy-28" cx="135.5" cy="1292.5" r="30.5"></circle>
            <circle id="Oval-Copy-51" cx="135.5" cy="871.5" r="30.5"></circle>
            <circle id="Oval-Copy-17" cx="135.5" cy="1608.5" r="30.5"></circle>
            <circle id="Oval-Copy-52" cx="135.5" cy="1187.5" r="30.5"></circle>
            <circle id="Oval-Copy-29" cx="135.5" cy="1398.5" r="30.5"></circle>
            <circle id="Oval-Copy-53" cx="135.5" cy="976.5" r="30.5"></circle>
            <circle id="Oval-Copy-7" cx="135.5" cy="661.5" r="30.5"></circle>
            <circle id="Oval-Copy-54" cx="135.5" cy="241.5" r="30.5"></circle>
            <circle id="Oval-Copy-30" cx="135.5" cy="451.5" r="30.5"></circle>
            <circle id="Oval-Copy-55" cx="135.5" cy="30.5" r="30.5"></circle>
            <circle id="Oval-Copy-18" cx="135.5" cy="766.5" r="30.5"></circle>
            <circle id="Oval-Copy-56" cx="135.5" cy="346.5" r="30.5"></circle>
            <circle id="Oval-Copy-31" cx="135.5" cy="556.5" r="30.5"></circle>
            <circle id="Oval-Copy-57" cx="135.5" cy="135.5" r="30.5"></circle>
            <circle id="Oval-Copy-9" cx="346.5" cy="661.5" r="30.5"></circle>
            <circle id="Oval-Copy-78" cx="346.5" cy="1503.5" r="30.5"></circle>
            <circle id="Oval-Copy-58" cx="346.5" cy="241.5" r="30.5"></circle>
            <circle id="Oval-Copy-79" cx="346.5" cy="1082.5" r="30.5"></circle>
            <circle id="Oval-Copy-32" cx="346.5" cy="451.5" r="30.5"></circle>
            <circle id="Oval-Copy-80" cx="346.5" cy="1292.5" r="30.5"></circle>
            <circle id="Oval-Copy-59" cx="346.5" cy="30.5" r="30.5"></circle>
            <circle id="Oval-Copy-81" cx="346.5" cy="871.5" r="30.5"></circle>
            <circle id="Oval-Copy-19" cx="346.5" cy="766.5" r="30.5"></circle>
            <circle id="Oval-Copy-82" cx="346.5" cy="1608.5" r="30.5"></circle>
            <circle id="Oval-Copy-60" cx="346.5" cy="346.5" r="30.5"></circle>
            <circle id="Oval-Copy-83" cx="346.5" cy="1187.5" r="30.5"></circle>
            <circle id="Oval-Copy-33" cx="346.5" cy="556.5" r="30.5"></circle>
            <circle id="Oval-Copy-84" cx="346.5" cy="1398.5" r="30.5"></circle>
            <circle id="Oval-Copy-61" cx="346.5" cy="135.5" r="30.5"></circle>
            <circle id="Oval-Copy-85" cx="346.5" cy="976.5" r="30.5"></circle>
            <circle id="Oval-Copy-11" cx="30.5" cy="1503.5" r="30.5"></circle>
            <circle id="Oval-Copy-62" cx="30.5" cy="1082.5" r="30.5"></circle>
            <circle id="Oval-Copy-34" cx="30.5" cy="1292.5" r="30.5"></circle>
            <circle id="Oval-Copy-63" cx="30.5" cy="871.5" r="30.5"></circle>
            <circle id="Oval-Copy-20" cx="30.5" cy="1608.5" r="30.5"></circle>
            <circle id="Oval-Copy-64" cx="30.5" cy="1187.5" r="30.5"></circle>
            <circle id="Oval-Copy-35" cx="30.5" cy="1398.5" r="30.5"></circle>
            <circle id="Oval-Copy-65" cx="30.5" cy="976.5" r="30.5"></circle>
            <circle id="Oval-Copy-13" cx="241.5" cy="1503.5" r="30.5"></circle>
            <circle id="Oval-Copy-66" cx="241.5" cy="1082.5" r="30.5"></circle>
            <circle id="Oval-Copy-36" cx="241.5" cy="1292.5" r="30.5"></circle>
            <circle id="Oval-Copy-67" cx="241.5" cy="871.5" r="30.5"></circle>
            <circle id="Oval-Copy-21" cx="241.5" cy="1608.5" r="30.5"></circle>
            <circle id="Oval-Copy-68" cx="241.5" cy="1187.5" r="30.5"></circle>
            <circle id="Oval-Copy-37" cx="241.5" cy="1398.5" r="30.5"></circle>
            <circle id="Oval-Copy-69" cx="241.5" cy="976.5" r="30.5"></circle>
        </g>
    </g>
</svg>