<?xml version="1.0" encoding="utf-8"?>
<!-- Generator: Adobe Illustrator 21.0.0, SVG Export Plug-In . SVG Version: 6.00 Build 0)  -->
<svg version="1.1" xmlns="http://www.w3.org/2000/svg" xmlns:xlink="http://www.w3.org/1999/xlink" x="0px" y="0px"
	 viewBox="0 0 437 299.7" style="enable-background:new 0 0 437 299.7;" xml:space="preserve">
<style type="text/css">
	.st0{fill:#FF141D;}
	.st1{fill:#91E6E0;}
</style>
<g id="pattern-1-bg">
	<rect y="0" class="st0" width="437" height="299.6"/>

</g>
<g id="pattern-1-wave">
	<path class="st1" d="M1024.6,176.4v229H-295.2l2.2-281.1c73.3,0,73.3,49.1,146.5,49.1c73.3,0,73.3-49.1,146.5-49.1
		c73.3,0,73.3,49.1,146.5,49.1c73.3,0,73.3-49.1,146.5-49.1c73.3,0,73.3,49.1,146.5,49.1c73.3,0,73.3-49.1,146.5-49.1
		c73.3,0,73.3,49.1,146.5,49.1c73.3,0,73.3-49.1,146.5-49.1s73.3,49.1,146.5,49.1"/>
</g>

<animateTransform xlink:href="#pattern-1-wave"
	attributeName="transform"
	type="translate"
	from="0 0"
	to="-293 0"
	begin="0s"
	dur="1.25s"
	repeatCount="indefinite"
/>

</svg>
