<?xml version="1.0" encoding="utf-8"?>
<!-- Generator: Adobe Illustrator 21.1.0, SVG Export Plug-In . SVG Version: 6.00 Build 0)  -->
<svg version="1.1" id="Layer_1" xmlns="http://www.w3.org/2000/svg" xmlns:xlink="http://www.w3.org/1999/xlink" x="0px" y="0px"
	 viewBox="0 0 437 299.7" style="enable-background:new 0 0 437 299.7;" xml:space="preserve">
<style type="text/css">
	.st0{fill:#FF141D;}
	.st1{fill:#91E6E0;}
</style>
<g id="pattern-1-bg">
	<rect x="-223.7" class="st0" width="884.4" height="299.6"/>
</g>
<g id="pattern-1-wave">
	<path class="st1" d="M1024.6,176.4v229H-295.2l2.2-281.1c73.3,0,73.3,49.1,146.5,49.1c73.3,0,73.3-49.1,146.5-49.1
		c73.3,0,73.3,49.1,146.5,49.1c73.3,0,73.3-49.1,146.5-49.1c73.3,0,73.3,49.1,146.5,49.1c73.3,0,73.3-49.1,146.5-49.1
		c73.3,0,73.3,49.1,146.5,49.1c73.3,0,73.3-49.1,146.5-49.1s73.3,49.1,146.5,49.1"/>
</g>
<animateTransform  accumulate="none" additive="replace" attributeName="transform" begin="0s" calcMode="linear" dur="1.25s" fill="remove" from="0 0" repeatCount="indefinite" restart="always" to="-293 0" type="translate" xlink:href="#pattern-1-wave">
	</animateTransform>
</svg>
