<?xml version="1.0" encoding="UTF-8"?>
<svg width="2556px" height="2556px" viewBox="0 0 2556 2556" version="1.1" xmlns="http://www.w3.org/2000/svg" xmlns:xlink="http://www.w3.org/1999/xlink">
    <!-- Generator: Sketch 42 (36781) - http://www.bohemiancoding.com/sketch -->
    <title>Page 1 Copy 3</title>
    <desc>Created with Sketch.</desc>
    <defs>
        <polygon id="path-1" points="2555.57619 2555.61092 2555.57619 0 0 0 0 2555.61092 2555.57619 2555.61092"></polygon>
    </defs>
    <g id="Page-6-Copy" stroke="none" stroke-width="1" fill="none" fill-rule="evenodd">
        <g id="Page-1-Copy-3">
            <mask id="mask-2" fill="white">
                <use xlink:href="#path-1"></use>
            </mask>
            <g id="Clip-2"></g>
            <path d="M1277.80369,2555.61092 C573.199696,2555.61092 -0.0021265928,1982.38783 -0.0021265928,1277.80511 C-0.0021265928,573.165671 573.199696,-0.000708864266 1277.80369,-0.000708864266 C1982.41477,-0.000708864266 2555.58115,573.165671 2555.58115,1277.80511 C2555.58115,1982.38783 1982.41477,2555.61092 1277.80369,2555.61092 M1277.80369,458.244596 C825.888541,458.244596 458.243178,825.88287 458.243178,1277.80511 C458.243178,1729.72025 825.888541,2097.35853 1277.80369,2097.35853 C1729.71883,2097.35853 2097.33584,1729.72025 2097.33584,1277.80511 C2097.33584,825.88287 1729.71883,458.244596 1277.80369,458.244596" id="Fill-1" fill="#FF0061" mask="url(#mask-2)"></path>
        </g>
    </g>
</svg>