<?xml version="1.0" encoding="utf-8"?>
<!-- Generator: Adobe Illustrator 21.1.0, SVG Export Plug-In . SVG Version: 6.00 Build 0)  -->
<svg version="1.1" id="Layer_1" xmlns="http://www.w3.org/2000/svg" xmlns:xlink="http://www.w3.org/1999/xlink" x="0px" y="0px"
	 viewBox="0 0 636.6 633" style="enable-background:new 0 0 636.6 633;" xml:space="preserve">
<style type="text/css">
	.st0{fill:#6F2EFF;}
</style>
<path class="st0" d="M543,494.7L543,494.7c-9.5,6.9-20.4,11.6-33.7,11.5c-57.3-0.3-57-74.2-114.3-74.4
	c-57.3-0.3-57.6,73.8-114.8,73.5c-57.3-0.3-47.7-23.2-88.2-63.6c-40.3-40.3-63.2-30.8-63.2-87.7c0-57,74-56.9,74.1-113.8
	c0-57-74-56.9-74.1-113.8c0-13,4.5-23.6,11.4-32.9l0,0c16.2-22,14.4-53.1-5.5-73c-21.9-21.9-57.5-22-79.5,0
	c-20.9,20.9-21.8,54.1-3,76.2l-0.1,0c11,12.9,21.1,28.8,26.4,52.3c16.1,70.5-73.1,80.5-73.2,152.8c0,72.3,74.1,72.3,74.1,144.5
	c0,72-114.3,119.3-63.2,170.4c51.3,51.3,99-62.8,171.6-62.6c72.7,0.3,72.3,74.3,145,74.6s73-73.7,145.5-73.4
	c27.2,0.1,45.5,12.6,61.5,27.4v-0.1c22.1,18.8,55.3,17.8,76.2-3c21.9-21.9,22-57.5,0-79.5C596.1,480.3,565,478.5,543,494.7z"/>
</svg>
