<?xml version="1.0" encoding="UTF-8"?>
<svg width="1408px" height="1408px" viewBox="0 0 1408 1408" version="1.1" xmlns="http://www.w3.org/2000/svg" xmlns:xlink="http://www.w3.org/1999/xlink">
    <!-- Generator: Sketch 46.2 (44496) - http://www.bohemiancoding.com/sketch -->
    <title>Group 17 Copy</title>
    <desc>Created with Sketch.</desc>
    <defs>
        <polygon id="path-1" points="0.672309416 0.171147437 1407.67231 1411.17115 0.672309416 1411.17115"></polygon>
    </defs>
    <g id="Page-6-Copy" stroke="none" stroke-width="1" fill="none" fill-rule="evenodd">
        <g id="Group-17-Copy" transform="translate(0.000000, -4.000000)">
            <mask id="mask-2" fill="white">
                <use xlink:href="#path-1"></use>
            </mask>
            <g id="Mask"></g>
            <g id="Group-17" mask="url(#mask-2)" fill="#6F2EFF">
                <g transform="translate(522.101722, 1031.935405) rotate(13.000000) translate(-522.101722, -1031.935405) translate(-5996.398278, -5381.564595)">
                    <path d="M7785.04872,5348.02465 C7629.03454,5503.08466 7602.56563,5632.90929 7576.97797,5758.47822 C7552.80033,5877.09171 7529.96014,5989.13101 7391.90293,6126.34387 C7253.85609,6263.54642 7141.12734,6286.24692 7021.78395,6310.27669 C6895.44232,6335.70785 6764.8188,6362.01488 6608.82535,6517.05428 C6452.82154,6672.10399 6426.35262,6801.93892 6400.76497,6927.48724 C6376.58733,7046.10073 6353.7575,7158.14003 6215.72103,7295.33228 C6077.66382,7432.53483 5964.93507,7455.22503 5845.60205,7479.2548 C5719.28116,7504.68596 5588.6369,7530.99299 5432.64345,7686.0427 C5276.65,7841.0821 5250.18109,7970.91703 5224.59344,8096.47566 C5200.4158,8215.07884 5177.58597,8327.11814 5039.53913,8464.3207 L5099.1227,8523.52955 C5255.10578,8368.47984 5281.58506,8238.65521 5307.17271,8113.09659 C5331.35035,7994.4831 5354.18018,7882.4541 5492.22702,7745.25155 C5630.26349,7608.049 5742.99224,7585.3588 5862.33563,7561.32903 C5988.65653,7535.89787 6119.29041,7509.59084 6275.29423,7354.54113 C6431.29805,7199.50173 6457.75659,7069.6668 6483.33388,6944.11848 C6507.51152,6825.50499 6530.34134,6713.46569 6668.39855,6576.27344 C6806.43503,6439.07089 6919.15341,6416.38069 7038.50716,6392.34061 C7164.83843,6366.90945 7295.46195,6340.60242 7451.47613,6185.55272 C7607.49032,6030.50302 7633.95923,5900.66808 7659.54688,5775.10946 C7683.73489,5656.48566 7706.57508,5544.44636 7844.62192,5407.2335 C7982.67913,5270.03095 8095.40788,5247.33045 8214.75127,5223.29037 C8341.0929,5197.85921 8471.71642,5171.55218 8627.72024,5016.49217 L8568.15741,4957.28332 C8430.1002,5094.49618 8317.37145,5117.19668 8198.02806,5141.22645 C8071.67606,5166.66792 7941.06291,5192.96464 7785.04872,5348.02465" id="Fill-1"></path>
                    <path d="M7653.43943,5218.24327 C7497.41488,5373.30327 7470.95633,5503.13821 7445.36868,5628.69683 C7421.19104,5747.31032 7398.35085,5859.34963 7260.28327,5996.56248 C7122.2468,6133.76503 7009.51805,6156.46554 6890.17466,6180.49531 C6763.83303,6205.92647 6633.20951,6232.2335 6477.21606,6387.2729 C6321.21224,6542.3226 6294.73296,6672.15754 6269.15568,6797.71616 C6244.97804,6916.31934 6222.13784,7028.35865 6084.11174,7165.5509 C5946.05453,7302.75345 5833.32578,7325.44365 5713.99276,7349.47342 C5587.67186,7374.91488 5457.02761,7401.21161 5301.03416,7556.26131 C5145.04071,7711.30071 5118.5718,7841.13565 5092.97378,7966.69427 C5068.79614,8085.29745 5045.97668,8197.33676 4907.92984,8334.53931 L4967.51341,8393.74816 C5123.49649,8238.69846 5149.9654,8108.87383 5175.56342,7983.3152 C5199.74106,7864.70172 5222.56052,7752.67272 5360.61773,7615.47016 C5498.64383,7478.26761 5611.37258,7455.57741 5730.72634,7431.54764 C5857.04723,7406.11648 5987.67075,7379.80945 6143.68494,7224.75975 C6299.68876,7069.72035 6326.1473,6939.88541 6351.72459,6814.33709 C6375.90222,6695.72361 6398.73205,6583.6843 6536.78926,6446.49205 C6674.82573,6309.2895 6787.54412,6286.5993 6906.89787,6262.55923 C7033.22913,6237.12807 7163.85265,6210.82104 7319.85647,6055.77133 C7475.87066,5900.72163 7502.34994,5770.8867 7527.93759,5645.32807 C7552.1256,5526.70428 7574.96579,5414.66497 7713.00226,5277.45212 C7851.06984,5140.24957 7963.79859,5117.54906 8083.14198,5093.51929 C8209.48361,5068.07783 8340.10713,5041.7708 8496.11095,4886.71079 L8436.53775,4827.50194 C8298.4909,4964.71479 8185.76215,4987.4153 8066.4084,5011.44507 C7940.06677,5036.88653 7809.45362,5063.18326 7653.43943,5218.24327" id="Fill-4"></path>
                    <path d="M7521.81427,5086.63397 C7365.80099,5241.69398 7339.33223,5371.51861 7313.74472,5497.08754 C7289.56723,5615.70103 7266.72716,5727.75064 7128.67075,5864.95319 C6990.62471,6002.15574 6877.89661,6024.85625 6758.55391,6048.88602 C6632.21301,6074.31718 6501.59025,6100.62421 6345.5977,6255.66361 C6189.59478,6410.71331 6163.12602,6540.54824 6137.52815,6666.09656 C6113.36102,6784.71005 6090.54169,6896.74936 5952.49565,7033.9416 C5814.43924,7171.14416 5701.73187,7193.84466 5582.37881,7217.86412 C5456.05864,7243.29529 5325.41515,7269.60232 5169.4226,7424.65202 C5013.43005,7579.69142 4986.96129,7709.52635 4961.37378,7835.08498 C4937.20665,7953.69847 4914.36659,8065.72747 4776.32055,8202.93002 L4835.90377,8262.13887 C4991.89632,8107.09947 5018.36508,7977.26454 5043.95258,7851.70591 C5068.13008,7733.09242 5090.95978,7621.06342 5229.00582,7483.86087 C5367.0415,7346.65832 5479.7696,7323.96812 5599.11229,7299.93835 C5725.43246,7274.50719 5856.07596,7248.21046 6012.07887,7093.16076 C6168.07142,6938.11106 6194.52981,6808.27612 6220.10695,6682.7278 C6244.28445,6564.11431 6267.11414,6452.07501 6405.17056,6314.88276 C6543.20623,6177.68021 6655.93433,6154.99001 6775.2874,6130.94994 C6901.60756,6105.51878 7032.25106,6079.22205 7188.25398,5924.17235 C7344.25689,5769.11234 7370.72565,5639.2774 7396.31316,5513.71878 C7420.50102,5395.10529 7443.34109,5283.05568 7581.38713,5145.84283 C7719.44354,5008.64027 7832.18201,4985.93977 7951.51434,4961.91 C8077.85524,4936.46854 8208.478,4910.16151 8364.50165,4755.1118 L8304.91843,4695.89265 C8166.87239,4833.1055 8054.13392,4855.80601 7934.79122,4879.83577 C7808.43995,4905.27724 7677.82756,4931.57397 7521.81427,5086.63397" id="Fill-6"></path>
                    <path d="M5405.11403,3004.64809 C5249.09985,3159.7081 5222.63093,3289.53273 5197.04328,3415.10166 C5172.86564,3533.71515 5150.02545,3645.75445 5011.96824,3782.96731 C4873.9214,3920.16986 4761.19265,3942.87037 4641.84926,3966.90014 C4515.50763,3992.3313 4384.88411,4018.63833 4228.89066,4173.67773 C4072.88684,4328.72743 4046.41793,4458.56236 4020.83028,4584.11069 C3996.65264,4702.72417 3973.82281,4814.76348 3835.78634,4951.95573 C3697.72913,5089.15828 3585.00038,5111.84848 3465.66736,5135.87825 C3339.34646,5161.30941 3208.70221,5187.61644 3052.70876,5342.66614 C2896.71531,5497.70554 2870.2464,5627.54047 2844.65874,5753.0991 C2820.48111,5871.70228 2797.65128,5983.74159 2659.60444,6120.94414 L2719.188,6180.15299 C2875.17109,6025.10329 2901.65037,5895.27866 2927.23802,5769.72003 C2951.41566,5651.10655 2974.24549,5539.07754 3112.29233,5401.87499 C3250.3288,5264.67244 3363.05755,5241.98224 3482.40094,5217.95247 C3608.72183,5192.52131 3739.35572,5166.21428 3895.35954,5011.16458 C4051.36335,4856.12518 4077.8219,4726.29024 4103.39919,4600.74192 C4127.57682,4482.12844 4150.40665,4370.08913 4288.46386,4232.89688 C4426.50033,4095.69433 4539.21872,4073.00413 4658.57247,4048.96406 C4784.90373,4023.5329 4915.52725,3997.22587 5071.54144,3842.17616 C5227.55562,3687.12646 5254.02454,3557.29153 5279.61219,3431.7329 C5303.80019,3313.10911 5326.64039,3201.0698 5464.68723,3063.85695 C5602.74444,2926.65439 5715.47319,2903.95389 5834.81658,2879.91382 C5961.15821,2854.48266 6091.78173,2828.17563 6247.78554,2673.11562 L6188.22271,2613.90677 C6050.1655,2751.11962 5937.43675,2773.82013 5818.09337,2797.8499 C5691.74137,2823.29136 5561.12822,2849.58809 5405.11403,3004.64809" id="Fill-1"></path>
                    <path d="M5273.50474,2874.86671 C5117.48019,3029.92672 5091.02164,3159.76165 5065.43399,3285.32028 C5041.25635,3403.93376 5018.41616,3515.97307 4880.34858,3653.18593 C4742.3121,3790.38848 4629.58335,3813.08898 4510.23997,3837.11875 C4383.89834,3862.54991 4253.27482,3888.85694 4097.28137,4043.89634 C3941.27755,4198.94604 3914.79827,4328.78098 3889.22098,4454.33961 C3865.04335,4572.94279 3842.20315,4684.98209 3704.17705,4822.17434 C3566.11984,4959.37689 3453.39109,4982.06709 3334.05807,5006.09686 C3207.73717,5031.53833 3077.09292,5057.83505 2921.09947,5212.88476 C2765.10602,5367.92415 2738.6371,5497.75909 2713.03908,5623.31771 C2688.86145,5741.9209 2666.04199,5853.9602 2527.99515,5991.16275 L2587.57871,6050.37161 C2743.56179,5895.3219 2770.03071,5765.49727 2795.62873,5639.93865 C2819.80637,5521.32516 2842.62583,5409.29616 2980.68304,5272.09361 C3118.70914,5134.89106 3231.43789,5112.20085 3350.79165,5088.17109 C3477.11254,5062.73993 3607.73606,5036.4329 3763.75025,4881.38319 C3919.75406,4726.34379 3946.21261,4596.50886 3971.78989,4470.96054 C3995.96753,4352.34705 4018.79736,4240.30775 4156.85457,4103.1155 C4294.89104,3965.91295 4407.60942,3943.22274 4526.96318,3919.18267 C4653.29444,3893.75151 4783.91796,3867.44448 4939.92178,3712.39478 C5095.93596,3557.34508 5122.41524,3427.51014 5148.0029,3301.95151 C5172.1909,3183.32772 5195.0311,3071.28842 5333.06757,2934.07556 C5471.13515,2796.87301 5583.8639,2774.1725 5703.20729,2750.14274 C5829.54892,2724.70127 5960.17244,2698.39424 6116.17625,2543.33423 L6056.60305,2484.12538 C5918.55621,2621.33824 5805.82746,2644.03874 5686.47371,2668.06851 C5560.13208,2693.50998 5429.51892,2719.8067 5273.50474,2874.86671" id="Fill-4"></path>
                    <path d="M5140.05168,2743.25742 C4984.03839,2898.31743 4957.56963,3028.14206 4931.98213,3153.71099 C4907.80463,3272.32447 4884.96457,3384.37408 4746.90815,3521.57663 C4608.86211,3658.77919 4496.13401,3681.47969 4376.79131,3705.50946 C4250.45041,3730.94062 4119.82765,3757.24765 3963.8351,3912.28705 C3807.83219,4067.33675 3781.36342,4197.17169 3755.76555,4322.72001 C3731.59842,4441.3335 3708.77909,4553.3728 3570.73305,4690.56505 C3432.67664,4827.7676 3319.96928,4850.46811 3200.61621,4874.48757 C3074.29605,4899.91873 2943.65255,4926.22576 2787.66,5081.27546 C2631.66745,5236.31486 2605.19869,5366.1498 2579.61118,5491.70842 C2555.44405,5610.32191 2532.60399,5722.35091 2394.55795,5859.55346 L2454.14117,5918.76232 C2610.13372,5763.72292 2636.60248,5633.88798 2662.18998,5508.32936 C2686.36748,5389.71587 2709.19718,5277.68687 2847.24322,5140.48432 C2985.2789,5003.28176 3098.007,4980.59156 3217.34969,4956.5618 C3343.66986,4931.13064 3474.31336,4904.83391 3630.31627,4749.78421 C3786.30882,4594.7345 3812.76721,4464.89957 3838.34435,4339.35125 C3862.52185,4220.73776 3885.35154,4108.69845 4023.40796,3971.50621 C4161.44363,3834.30365 4274.17173,3811.61345 4393.5248,3787.57338 C4519.84496,3762.14222 4650.48846,3735.84549 4806.49138,3580.79579 C4962.49429,3425.73578 4988.96305,3295.90085 5014.55056,3170.34222 C5038.73842,3051.72874 5061.57849,2939.67913 5199.62453,2802.46627 C5337.68094,2665.26372 5450.41941,2642.56321 5569.75174,2618.53345 C5696.09264,2593.09198 5826.7154,2566.78495 5982.73905,2411.73525 L5923.15583,2352.51609 C5785.10979,2489.72895 5672.37132,2512.42945 5553.02862,2536.45922 C5426.67736,2561.90068 5296.06496,2588.19741 5140.05168,2743.25742" id="Fill-6"></path>
                    <path d="M8993.29514,6510.57339 C8837.28095,6665.6334 8810.81204,6795.45803 8785.22439,6921.02696 C8761.04675,7039.64045 8738.20655,7151.67975 8600.14935,7288.89261 C8462.1025,7426.09516 8349.37375,7448.79567 8230.03037,7472.82544 C8103.68874,7498.2566 7973.06522,7524.56363 7817.07177,7679.60303 C7661.06795,7834.65273 7634.59904,7964.48766 7609.01138,8090.03599 C7584.83375,8208.64947 7562.00392,8320.68878 7423.96744,8457.88103 C7285.91024,8595.08358 7173.18149,8617.77378 7053.84847,8641.80355 C6927.52757,8667.23471 6796.88332,8693.54174 6640.88987,8848.59144 C6484.89642,9003.63084 6458.4275,9133.46577 6432.83985,9259.0244 C6408.66221,9377.62758 6385.83239,9489.66689 6247.78554,9626.86944 L6307.36911,9686.07829 C6463.35219,9531.02859 6489.83148,9401.20396 6515.41913,9275.64533 C6539.59677,9157.03185 6562.42659,9045.00284 6700.47343,8907.80029 C6838.50991,8770.59774 6951.23866,8747.90754 7070.58205,8723.87777 C7196.90294,8698.44661 7327.53683,8672.13958 7483.54064,8517.08988 C7639.54446,8362.05048 7666.00301,8232.21554 7691.58029,8106.66722 C7715.75793,7988.05374 7738.58776,7876.01443 7876.64497,7738.82218 C8014.68144,7601.61963 8127.39982,7578.92943 8246.75358,7554.88936 C8373.08484,7529.4582 8503.70836,7503.15117 8659.72254,7348.10146 C8815.73673,7193.05176 8842.20564,7063.21682 8867.7933,6937.6582 C8891.9813,6819.03441 8914.8215,6706.9951 9052.86834,6569.78225 C9190.92555,6432.57969 9303.6543,6409.87919 9422.99768,6385.83912 C9549.33932,6360.40796 9679.96283,6334.10093 9835.96665,6179.04092 L9776.40382,6119.83207 C9638.34661,6257.04492 9525.61786,6279.74543 9406.27447,6303.7752 C9279.92247,6329.21666 9149.30932,6355.51339 8993.29514,6510.57339" id="Fill-1"></path>
                    <path d="M8863.51375,6380.79201 C8707.4892,6535.85202 8681.03065,6665.68695 8655.443,6791.24558 C8631.26536,6909.85906 8608.42517,7021.89837 8470.35759,7159.11123 C8332.32112,7296.31378 8219.59237,7319.01428 8100.24898,7343.04405 C7973.90735,7368.47521 7843.28383,7394.78224 7687.29038,7549.82164 C7531.28656,7704.87134 7504.80728,7834.70628 7479.23,7960.2649 C7455.05236,8078.86809 7432.21217,8190.90739 7294.18606,8328.09964 C7156.12885,8465.30219 7043.4001,8487.99239 6924.06708,8512.02216 C6797.74619,8537.46363 6667.10193,8563.76035 6511.10848,8718.81006 C6355.11503,8873.84945 6328.64612,9003.68439 6303.0481,9129.24301 C6278.87046,9247.8462 6256.051,9359.8855 6118.00416,9497.08805 L6177.58773,9556.29691 C6333.57081,9401.2472 6360.03972,9271.42257 6385.63774,9145.86395 C6409.81538,9027.25046 6432.63484,8915.22146 6570.69205,8778.01891 C6708.71816,8640.81635 6821.44691,8618.12615 6940.80066,8594.09639 C7067.12156,8568.66523 7197.74507,8542.3582 7353.75926,8387.30849 C7509.76308,8232.26909 7536.22162,8102.43416 7561.79891,7976.88584 C7585.97655,7858.27235 7608.80637,7746.23305 7746.86358,7609.0408 C7884.90006,7471.83825 7997.61844,7449.14804 8116.97219,7425.10797 C8243.30346,7399.67681 8373.92697,7373.36978 8529.93079,7218.32008 C8685.94498,7063.27037 8712.42426,6933.43544 8738.01191,6807.87681 C8762.19992,6689.25302 8785.04011,6577.21372 8923.07659,6440.00086 C9061.14416,6302.79831 9173.87291,6280.0978 9293.2163,6256.06804 C9419.55793,6230.62657 9550.18145,6204.31954 9706.18527,6049.25953 L9646.61207,5990.05068 C9508.56523,6127.26354 9395.83648,6149.96404 9276.48272,6173.99381 C9150.14109,6199.43527 9019.52794,6225.732 8863.51375,6380.79201" id="Fill-4"></path>
                    <path d="M8730.06069,6249.18272 C8574.04741,6404.24273 8547.57864,6534.06736 8521.99114,6659.63629 C8497.81364,6778.24977 8474.97358,6890.29938 8336.91717,7027.50193 C8198.87112,7164.70449 8086.14303,7187.40499 7966.80033,7211.43476 C7840.45943,7236.86592 7709.83666,7263.17295 7553.84411,7418.21235 C7397.8412,7573.26205 7371.37244,7703.09699 7345.77457,7828.64531 C7321.60744,7947.2588 7298.78811,8059.2981 7160.74206,8196.49035 C7022.68565,8333.6929 6909.97829,8356.39341 6790.62522,8380.41287 C6664.30506,8405.84403 6533.66156,8432.15106 6377.66901,8587.20076 C6221.67646,8742.24016 6195.2077,8872.0751 6169.6202,8997.63372 C6145.45307,9116.24721 6122.61301,9228.27621 5984.56696,9365.47876 L6044.15018,9424.68761 C6200.14273,9269.64822 6226.61149,9139.81328 6252.199,9014.25466 C6276.3765,8895.64117 6299.20619,8783.61217 6437.25223,8646.40962 C6575.28791,8509.20706 6688.01601,8486.51686 6807.35871,8462.4871 C6933.67887,8437.05594 7064.32237,8410.75921 7220.32529,8255.70951 C7376.31784,8100.6598 7402.77623,7970.82487 7428.35337,7845.27655 C7452.53086,7726.66306 7475.36056,7614.62375 7613.41697,7477.43151 C7751.45265,7340.22895 7864.18075,7317.53875 7983.53381,7293.49868 C8109.85398,7268.06752 8240.49748,7241.77079 8396.50039,7086.72109 C8552.50331,6931.66108 8578.97207,6801.82615 8604.55957,6676.26752 C8628.74744,6557.65404 8651.5875,6445.60443 8789.63354,6308.39157 C8927.68996,6171.18902 9040.42842,6148.48851 9159.76075,6124.45875 C9286.10165,6099.01728 9416.72442,6072.71025 9572.74807,5917.66055 L9513.16485,5858.44139 C9375.1188,5995.65425 9262.38033,6018.35475 9143.03764,6042.38452 C9016.68637,6067.82598 8886.07397,6094.12271 8730.06069,6249.18272" id="Fill-6"></path>
                    <path d="M6613.36045,4165.36893 C6457.34626,4320.42894 6430.87735,4450.25357 6405.28969,4575.8225 C6381.11206,4694.43599 6358.27186,4806.47529 6220.21465,4943.68815 C6082.16781,5080.8907 5969.43906,5103.59121 5850.09567,5127.62097 C5723.75404,5153.05213 5593.13052,5179.35916 5437.13707,5334.39856 C5281.13326,5489.44827 5254.66434,5619.2832 5229.07669,5744.83152 C5204.89905,5863.44501 5182.06923,5975.48431 5044.03275,6112.67656 C4905.97554,6249.87911 4793.24679,6272.56932 4673.91377,6296.59908 C4547.59288,6322.03024 4416.94862,6348.33727 4260.95517,6503.38698 C4104.96172,6658.42638 4078.49281,6788.26131 4052.90516,6913.81994 C4028.72752,7032.42312 4005.89769,7144.46242 3867.85085,7281.66498 L3927.43442,7340.87383 C4083.4175,7185.82413 4109.89678,7055.99949 4135.48444,6930.44087 C4159.66207,6811.82738 4182.4919,6699.79838 4320.53874,6562.59583 C4458.57522,6425.39328 4571.30397,6402.70308 4690.64735,6378.67331 C4816.96825,6353.24215 4947.60213,6326.93512 5103.60595,6171.88541 C5259.60977,6016.84602 5286.06832,5887.01108 5311.6456,5761.46276 C5335.82324,5642.84927 5358.65306,5530.80997 5496.71027,5393.61772 C5634.74675,5256.41517 5747.46513,5233.72497 5866.81889,5209.6849 C5993.15015,5184.25373 6123.77367,5157.9467 6279.78785,5002.897 C6435.80204,4847.8473 6462.27095,4718.01236 6487.8586,4592.45374 C6512.04661,4473.82995 6534.8868,4361.79064 6672.93365,4224.57778 C6810.99085,4087.37523 6923.71961,4064.67473 7043.06299,4040.63465 C7169.40462,4015.20349 7300.02814,3988.89646 7456.03196,3833.83646 L7396.46913,3774.6276 C7258.41192,3911.84046 7145.68317,3934.54097 7026.33978,3958.57073 C6899.98778,3984.0122 6769.37463,4010.30892 6613.36045,4165.36893" id="Fill-1"></path>
                    <path d="M6483.57906,4035.58755 C6327.55451,4190.64755 6301.09596,4320.48249 6275.50831,4446.04111 C6251.33067,4564.6546 6228.49048,4676.69391 6090.4229,4813.90676 C5952.38643,4951.10932 5839.65768,4973.80982 5720.31429,4997.83959 C5593.97266,5023.27075 5463.34914,5049.57778 5307.35569,5204.61718 C5151.35187,5359.66688 5124.87259,5489.50182 5099.29531,5615.06044 C5075.11767,5733.66362 5052.27747,5845.70293 4914.25137,5982.89518 C4776.19416,6120.09773 4663.46541,6142.78793 4544.13239,6166.8177 C4417.81149,6192.25916 4287.16724,6218.55589 4131.17379,6373.60559 C3975.18034,6528.64499 3948.71143,6658.47993 3923.1134,6784.03855 C3898.93577,6902.64173 3876.11631,7014.68104 3738.06947,7151.88359 L3797.65303,7211.09244 C3953.63612,7056.04274 3980.10503,6926.21811 4005.70305,6800.65948 C4029.88069,6682.046 4052.70015,6570.017 4190.75736,6432.81444 C4328.78346,6295.61189 4441.51221,6272.92169 4560.86597,6248.89192 C4687.18686,6223.46076 4817.81038,6197.15373 4973.82457,6042.10403 C5129.82838,5887.06463 5156.28693,5757.2297 5181.86422,5631.68137 C5206.04185,5513.06789 5228.87168,5401.02858 5366.92889,5263.83633 C5504.96536,5126.63378 5617.68375,5103.94358 5737.0375,5079.90351 C5863.36876,5054.47235 5993.99228,5028.16532 6149.9961,4873.11562 C6306.01028,4718.06591 6332.48957,4588.23098 6358.07722,4462.67235 C6382.26522,4344.04856 6405.10542,4232.00926 6543.14189,4094.7964 C6681.20947,3957.59385 6793.93822,3934.89334 6913.28161,3910.86357 C7039.62324,3885.42211 7170.24676,3859.11508 7326.25057,3704.05507 L7266.67737,3644.84622 C7128.63053,3782.05908 7015.90178,3804.75958 6896.54803,3828.78935 C6770.2064,3854.23081 6639.59325,3880.52754 6483.57906,4035.58755" id="Fill-4"></path>
                    <path d="M6350.126,3903.97825 C6194.11271,4059.03826 6167.64395,4188.86289 6142.05645,4314.43182 C6117.87895,4433.04531 6095.03889,4545.09492 5956.98248,4682.29747 C5818.93643,4819.50002 5706.20833,4842.20053 5586.86564,4866.2303 C5460.52473,4891.66146 5329.90197,4917.96849 5173.90942,5073.00789 C5017.90651,5228.05759 4991.43775,5357.89252 4965.83987,5483.44085 C4941.67274,5602.05433 4918.85342,5714.09364 4780.80737,5851.28589 C4642.75096,5988.48844 4530.0436,6011.18894 4410.69053,6035.20841 C4284.37037,6060.63957 4153.72687,6086.9466 3997.73432,6241.9963 C3841.74177,6397.0357 3815.27301,6526.87063 3789.6855,6652.42926 C3765.51838,6771.04275 3742.67831,6883.07175 3604.63227,7020.2743 L3664.21549,7079.48315 C3820.20804,6924.44375 3846.6768,6794.60882 3872.26431,6669.05019 C3896.4418,6550.43671 3919.2715,6438.4077 4057.31754,6301.20515 C4195.35322,6164.0026 4308.08132,6141.3124 4427.42401,6117.28263 C4553.74418,6091.85147 4684.38768,6065.55475 4840.39059,5910.50504 C4996.38314,5755.45534 5022.84154,5625.6204 5048.41867,5500.07208 C5072.59617,5381.4586 5095.42587,5269.41929 5233.48228,5132.22704 C5371.51795,4995.02449 5484.24605,4972.33429 5603.59912,4948.29422 C5729.91928,4922.86306 5860.56278,4896.56633 6016.5657,4741.51663 C6172.56861,4586.45662 6199.03737,4456.62169 6224.62488,4331.06306 C6248.81275,4212.44957 6271.65281,4100.39996 6409.69885,3963.18711 C6547.75526,3825.98455 6660.49373,3803.28405 6779.82606,3779.25428 C6906.16696,3753.81282 7036.78972,3727.50579 7192.81338,3572.45608 L7133.23015,3513.23693 C6995.18411,3650.44978 6882.44564,3673.15029 6763.10295,3697.18006 C6636.75168,3722.62152 6506.13928,3748.91825 6350.126,3903.97825" id="Fill-6"></path>
                    <path d="M8196.32776,5733.71299 C8040.31358,5888.773 8013.84466,6018.59763 7988.25701,6144.16656 C7964.07937,6262.78005 7941.23918,6374.81935 7803.18197,6512.03221 C7665.13513,6649.23476 7552.40638,6671.93527 7433.06299,6695.96503 C7306.72136,6721.39619 7176.09784,6747.70322 7020.10439,6902.74262 C6864.10057,7057.79233 6837.63166,7187.62726 6812.044,7313.17558 C6787.86637,7431.78907 6765.03654,7543.82837 6627.00007,7681.02062 C6488.94286,7818.22317 6376.21411,7840.91338 6256.88109,7864.94314 C6130.56019,7890.3743 5999.91594,7916.68133 5843.92249,8071.73104 C5687.92904,8226.77044 5661.46013,8356.60537 5635.87247,8482.164 C5611.69484,8600.76718 5588.86501,8712.80648 5450.81817,8850.00904 L5510.40173,8909.21789 C5666.38482,8754.16819 5692.8641,8624.34355 5718.45175,8498.78493 C5742.62939,8380.17144 5765.45921,8268.14244 5903.50606,8130.93989 C6041.54253,7993.73734 6154.27128,7971.04714 6273.61467,7947.01737 C6399.93556,7921.58621 6530.56945,7895.27918 6686.57327,7740.22947 C6842.57708,7585.19008 6869.03563,7455.35514 6894.61292,7329.80682 C6918.79055,7211.19333 6941.62038,7099.15403 7079.67759,6961.96178 C7217.71406,6824.75923 7330.43245,6802.06903 7449.7862,6778.02896 C7576.11746,6752.59779 7706.74098,6726.29076 7862.75517,6571.24106 C8018.76935,6416.19136 8045.23827,6286.35642 8070.82592,6160.7978 C8095.01392,6042.17401 8117.85412,5930.1347 8255.90096,5792.92184 C8393.95817,5655.71929 8506.68692,5633.01879 8626.03031,5608.97871 C8752.37194,5583.54755 8882.99546,5557.24052 9038.99927,5402.18052 L8979.43644,5342.97166 C8841.37923,5480.18452 8728.65048,5502.88503 8609.3071,5526.91479 C8482.9551,5552.35626 8352.34195,5578.65298 8196.32776,5733.71299" id="Fill-1"></path>
                    <path d="M8066.54638,5603.93161 C7910.52182,5758.99161 7884.06328,5888.82655 7858.47562,6014.38517 C7834.29799,6132.99866 7811.45779,6245.03797 7673.39021,6382.25082 C7535.35374,6519.45338 7422.62499,6542.15388 7303.2816,6566.18365 C7176.93997,6591.61481 7046.31645,6617.92184 6890.323,6772.96124 C6734.31919,6928.01094 6707.83991,7057.84588 6682.26262,7183.4045 C6658.08498,7302.00768 6635.24479,7414.04699 6497.21868,7551.23924 C6359.16147,7688.44179 6246.43272,7711.13199 6127.0997,7735.16176 C6000.77881,7760.60322 5870.13455,7786.89995 5714.1411,7941.94965 C5558.14765,8096.98905 5531.67874,8226.82399 5506.08072,8352.38261 C5481.90308,8470.98579 5459.08362,8583.0251 5321.03678,8720.22765 L5380.62035,8779.4365 C5536.60343,8624.3868 5563.07234,8494.56217 5588.67037,8369.00354 C5612.848,8250.39006 5635.66746,8138.36106 5773.72467,8001.1585 C5911.75078,7863.95595 6024.47953,7841.26575 6143.83328,7817.23598 C6270.15418,7791.80482 6400.7777,7765.49779 6556.79188,7610.44809 C6712.7957,7455.40869 6739.25424,7325.57376 6764.83153,7200.02543 C6789.00917,7081.41195 6811.83899,6969.37264 6949.8962,6832.18039 C7087.93268,6694.97784 7200.65106,6672.28764 7320.00481,6648.24757 C7446.33608,6622.81641 7576.9596,6596.50938 7732.96341,6441.45968 C7888.9776,6286.40997 7915.45688,6156.57504 7941.04453,6031.01641 C7965.23254,5912.39262 7988.07273,5800.35332 8126.10921,5663.14046 C8264.17678,5525.93791 8376.90553,5503.2374 8496.24892,5479.20763 C8622.59055,5453.76617 8753.21407,5427.45914 8909.21789,5272.39913 L8849.64469,5213.19028 C8711.59785,5350.40314 8598.8691,5373.10364 8479.51534,5397.13341 C8353.17371,5422.57487 8222.56056,5448.8716 8066.54638,5603.93161" id="Fill-4"></path>
                    <path d="M7933.09331,5470.49441 C7777.08003,5625.55442 7750.61127,5755.37905 7725.02376,5880.94798 C7700.84626,5999.56146 7678.0062,6111.61107 7539.94979,6248.81362 C7401.90375,6386.01618 7289.17565,6408.71668 7169.83295,6432.74645 C7043.49205,6458.17761 6912.86929,6484.48464 6756.87674,6639.52404 C6600.87382,6794.57374 6574.40506,6924.40868 6548.80719,7049.957 C6524.64006,7168.57049 6501.82073,7280.60979 6363.77469,7417.80204 C6225.71827,7555.00459 6113.01091,7577.7051 5993.65785,7601.72456 C5867.33768,7627.15572 5736.69418,7653.46275 5580.70163,7808.51245 C5424.70909,7963.55185 5398.24032,8093.38679 5372.65282,8218.94541 C5348.48569,8337.5589 5325.64563,8449.5879 5187.59958,8586.79045 L5247.18281,8645.99931 C5403.17535,8490.95991 5429.64412,8361.12497 5455.23162,8235.56635 C5479.40912,8116.95286 5502.23881,8004.92386 5640.28486,7867.72131 C5778.32053,7730.51875 5891.04863,7707.82855 6010.39133,7683.79879 C6136.71149,7658.36763 6267.35499,7632.0709 6423.35791,7477.0212 C6579.35046,7321.97149 6605.80885,7192.13656 6631.38599,7066.58824 C6655.56349,6947.97475 6678.39318,6835.93544 6816.44959,6698.7432 C6954.48527,6561.54064 7067.21337,6538.85044 7186.56643,6514.81037 C7312.8866,6489.37921 7443.5301,6463.08248 7599.53301,6308.03278 C7755.53593,6152.97277 7782.00469,6023.13784 7807.5922,5897.57921 C7831.78006,5778.96573 7854.62012,5666.91612 7992.66617,5529.70326 C8130.72258,5392.50071 8243.46104,5369.8002 8362.79337,5345.77044 C8489.13427,5320.32897 8619.75704,5294.02194 8775.78069,5138.97224 L8716.19747,5079.75308 C8578.15142,5216.96594 8465.41296,5239.66644 8346.07026,5263.69621 C8219.71899,5289.13767 8089.10659,5315.4344 7933.09331,5470.49441" id="Fill-6"></path>
                    <path d="M5816.39307,3390.33644 C5660.37888,3545.39644 5633.90997,3675.22107 5608.32232,3800.79 C5584.14468,3919.40349 5561.30448,4031.4428 5423.24727,4168.65565 C5285.20043,4305.8582 5172.47168,4328.55871 5053.1283,4352.58848 C4926.78667,4378.01964 4796.16315,4404.32667 4640.1697,4559.36607 C4484.16588,4714.41577 4457.69697,4844.25071 4432.10931,4969.79903 C4407.93168,5088.41251 4385.10185,5200.45182 4247.06537,5337.64407 C4109.00817,5474.84662 3996.27941,5497.53682 3876.9464,5521.56659 C3750.6255,5546.99775 3619.98125,5573.30478 3463.9878,5728.35448 C3307.99435,5883.39388 3281.52543,6013.22882 3255.93778,6138.78744 C3231.76014,6257.39062 3208.93032,6369.42993 3070.88347,6506.63248 L3130.46704,6565.84133 C3286.45012,6410.79163 3312.9294,6280.967 3338.51706,6155.40837 C3362.6947,6036.79489 3385.52452,5924.76589 3523.57136,5787.56333 C3661.60784,5650.36078 3774.33659,5627.67058 3893.67997,5603.64081 C4020.00087,5578.20965 4150.63476,5551.90262 4306.63857,5396.85292 C4462.64239,5241.81352 4489.10094,5111.97858 4514.67822,4986.43026 C4538.85586,4867.81678 4561.68569,4755.77747 4699.7429,4618.58522 C4837.77937,4481.38267 4950.49775,4458.69247 5069.85151,4434.6524 C5196.18277,4409.22124 5326.80629,4382.91421 5482.82047,4227.8645 C5638.83466,4072.8148 5665.30357,3942.97987 5690.89123,3817.42124 C5715.07923,3698.79745 5737.91943,3586.75814 5875.96627,3449.54529 C6014.02348,3312.34274 6126.75223,3289.64223 6246.09561,3265.60216 C6372.43724,3240.171 6503.06076,3213.86397 6659.06458,3058.80396 L6599.50175,2999.59511 C6461.44454,3136.80796 6348.71579,3159.50847 6229.3724,3183.53824 C6103.0204,3208.9797 5972.40725,3235.27643 5816.39307,3390.33644" id="Fill-1"></path>
                    <path d="M5684.78378,3260.55505 C5528.75922,3415.61506 5502.30068,3545.44999 5476.71302,3671.00862 C5452.53539,3789.62211 5429.69519,3901.66141 5291.62762,4038.87427 C5153.59114,4176.07682 5040.86239,4198.77732 4921.519,4222.80709 C4795.17737,4248.23825 4664.55385,4274.54528 4508.5604,4429.58468 C4352.55659,4584.63439 4326.07731,4714.46932 4300.50002,4840.02795 C4276.32238,4958.63113 4253.48219,5070.67043 4115.45608,5207.86268 C3977.39887,5345.06523 3864.67012,5367.75543 3745.3371,5391.7852 C3619.01621,5417.22667 3488.37195,5443.52339 3332.3785,5598.5731 C3176.38506,5753.6125 3149.91614,5883.44743 3124.31812,6009.00606 C3100.14048,6127.60924 3077.32102,6239.64854 2939.27418,6376.8511 L2998.85775,6436.05995 C3154.84083,6281.01024 3181.30975,6151.18561 3206.90777,6025.62699 C3231.0854,5907.0135 3253.90486,5794.9845 3391.96207,5657.78195 C3529.98818,5520.5794 3642.71693,5497.8892 3762.07068,5473.85943 C3888.39158,5448.42827 4019.0151,5422.12124 4175.02928,5267.07153 C4331.0331,5112.03213 4357.49165,4982.1972 4383.06893,4856.64888 C4407.24657,4738.03539 4430.0764,4625.99609 4568.1336,4488.80384 C4706.17008,4351.60129 4818.88846,4328.91109 4938.24222,4304.87101 C5064.57348,4279.43985 5195.197,4253.13282 5351.20081,4098.08312 C5507.215,3943.03342 5533.69428,3813.19848 5559.28193,3687.63986 C5583.46994,3569.01606 5606.31013,3456.97676 5744.34661,3319.7639 C5882.41419,3182.56135 5995.14294,3159.86085 6114.48632,3135.83108 C6240.82795,3110.38961 6371.45147,3084.08258 6527.45529,2929.02257 L6467.88209,2869.81372 C6329.83525,3007.02658 6217.1065,3029.72708 6097.75274,3053.75685 C5971.41111,3079.19832 5840.79796,3105.49504 5684.78378,3260.55505" id="Fill-4"></path>
                    <path d="M5553.15862,3128.94576 C5397.14534,3284.00577 5370.67657,3413.8304 5345.08907,3539.39933 C5320.91157,3658.01281 5298.07151,3770.06242 5160.0151,3907.26498 C5021.96905,4044.46753 4909.24095,4067.16803 4789.89826,4091.1978 C4663.55736,4116.62896 4532.93459,4142.93599 4376.94204,4297.97539 C4220.93913,4453.02509 4194.47037,4582.86003 4168.87249,4708.40835 C4144.70537,4827.02184 4121.88604,4939.06114 3983.83999,5076.25339 C3845.78358,5213.45594 3733.07622,5236.15645 3613.72315,5260.17591 C3487.40299,5285.60707 3356.75949,5311.9141 3200.76694,5466.9638 C3044.77439,5622.0032 3018.30563,5751.83814 2992.71813,5877.39676 C2968.551,5996.01025 2945.71093,6108.03925 2807.66489,6245.2418 L2867.24811,6304.45066 C3023.24066,6149.41126 3049.70942,6019.57632 3075.29693,5894.0177 C3099.47443,5775.40421 3122.30412,5663.37521 3260.35016,5526.17266 C3398.38584,5388.9701 3511.11394,5366.2799 3630.45664,5342.25014 C3756.7768,5316.81898 3887.4203,5290.52225 4043.42322,5135.47255 C4199.41577,4980.42284 4225.87416,4850.58791 4251.4513,4725.03959 C4275.62879,4606.4261 4298.45849,4494.38679 4436.5149,4357.19455 C4574.55058,4219.99199 4687.27867,4197.30179 4806.63174,4173.26172 C4932.9519,4147.83056 5063.5954,4121.53384 5219.59832,3966.48413 C5375.60124,3811.42412 5402.07,3681.58919 5427.6575,3556.03056 C5451.84537,3437.41708 5474.68543,3325.36747 5612.73147,3188.15461 C5750.78789,3050.95206 5863.52635,3028.25155 5982.85868,3004.22179 C6109.19958,2978.78032 6239.82235,2952.47329 6395.846,2797.42359 L6336.26277,2738.20443 C6198.21673,2875.41729 6085.47826,2898.11779 5966.13557,2922.14756 C5839.7843,2947.58902 5709.1719,2973.88575 5553.15862,3128.94576" id="Fill-6"></path>
                    <path d="M9400.91836,6896.26174 C9244.90418,7051.32174 9218.43526,7181.14637 9192.84761,7306.7153 C9168.66997,7425.32879 9145.82978,7537.3681 9007.77257,7674.58095 C8869.72573,7811.7835 8756.99698,7834.48401 8637.65359,7858.51378 C8511.31196,7883.94494 8380.68844,7910.25197 8224.69499,8065.29137 C8068.69117,8220.34107 8042.22226,8350.17601 8016.63461,8475.72433 C7992.45697,8594.33781 7969.62714,8706.37712 7831.59067,8843.56937 C7693.53346,8980.77192 7580.80471,9003.46212 7461.47169,9027.49189 C7335.15079,9052.92305 7204.50654,9079.23008 7048.51309,9234.27978 C6892.51964,9389.31918 6866.05073,9519.15412 6840.46307,9644.71274 C6816.28544,9763.31592 6793.45561,9875.35523 6655.40877,10012.5578 L6714.99233,10071.7666 C6870.97542,9916.71693 6897.4547,9786.8923 6923.04235,9661.33367 C6947.21999,9542.72019 6970.04982,9430.69119 7108.09666,9293.48863 C7246.13313,9156.28608 7358.86188,9133.59588 7478.20527,9109.56611 C7604.52616,9084.13495 7735.16005,9057.82792 7891.16387,8902.77822 C8047.16768,8747.73882 8073.62623,8617.90388 8099.20352,8492.35556 C8123.38115,8373.74208 8146.21098,8261.70277 8284.26819,8124.51052 C8422.30466,7987.30797 8535.02305,7964.61777 8654.3768,7940.5777 C8780.70806,7915.14654 8911.33158,7888.83951 9067.34577,7733.7898 C9223.35995,7578.7401 9249.82887,7448.90517 9275.41652,7323.34654 C9299.60452,7204.72275 9322.44472,7092.68344 9460.49156,6955.47059 C9598.54877,6818.26804 9711.27752,6795.56753 9830.62091,6771.52746 C9956.96254,6746.0963 10087.5861,6719.78927 10243.5899,6564.72926 L10184.027,6505.52041 C10045.9698,6642.73326 9933.24108,6665.43377 9813.8977,6689.46354 C9687.5457,6714.905 9556.93255,6741.20173 9400.91836,6896.26174" id="Fill-1"></path>
                    <path d="M9271.13698,6766.48035 C9115.11242,6921.54036 9088.65388,7051.37529 9063.06622,7176.93392 C9038.88859,7295.54741 9016.04839,7407.58671 8877.98082,7544.79957 C8739.94434,7682.00212 8627.21559,7704.70262 8507.8722,7728.73239 C8381.53057,7754.16355 8250.90705,7780.47058 8094.91361,7935.50998 C7938.90979,8090.55969 7912.43051,8220.39462 7886.85322,8345.95325 C7862.67558,8464.55643 7839.83539,8576.59573 7701.80928,8713.78798 C7563.75207,8850.99053 7451.02332,8873.68073 7331.6903,8897.7105 C7205.36941,8923.15197 7074.72515,8949.44869 6918.7317,9104.4984 C6762.73826,9259.5378 6736.26934,9389.37273 6710.67132,9514.93136 C6686.49368,9633.53454 6663.67422,9745.57384 6525.62738,9882.7764 L6585.21095,9941.98525 C6741.19403,9786.93554 6767.66295,9657.11091 6793.26097,9531.55229 C6817.4386,9412.9388 6840.25806,9300.9098 6978.31527,9163.70725 C7116.34138,9026.5047 7229.07013,9003.8145 7348.42388,8979.78473 C7474.74478,8954.35357 7605.3683,8928.04654 7761.38248,8772.99683 C7917.3863,8617.95743 7943.84485,8488.1225 7969.42213,8362.57418 C7993.59977,8243.96069 8016.4296,8131.92139 8154.4868,7994.72914 C8292.52328,7857.52659 8405.24166,7834.83639 8524.59542,7810.79631 C8650.92668,7785.36515 8781.5502,7759.05812 8937.55402,7604.00842 C9093.5682,7448.95872 9120.04748,7319.12378 9145.63514,7193.56516 C9169.82314,7074.94136 9192.66333,6962.90206 9330.69981,6825.6892 C9468.76739,6688.48665 9581.49614,6665.78615 9700.83952,6641.75638 C9827.18115,6616.31491 9957.80467,6590.00788 10113.8085,6434.94787 L10054.2353,6375.73902 C9916.18845,6512.95188 9803.4597,6535.65238 9684.10594,6559.68215 C9557.76431,6585.12362 9427.15116,6611.42034 9271.13698,6766.48035" id="Fill-4"></path>
                    <path d="M9137.68391,6634.87106 C8981.67063,6789.93107 8955.20187,6919.7557 8929.61436,7045.32463 C8905.43687,7163.93811 8882.5968,7275.98772 8744.54039,7413.19028 C8606.49435,7550.39283 8493.76625,7573.09333 8374.42355,7597.1231 C8248.08265,7622.55426 8117.45989,7648.86129 7961.46734,7803.90069 C7805.46442,7958.95039 7778.99566,8088.78533 7753.39779,8214.33365 C7729.23066,8332.94714 7706.41133,8444.98644 7568.36529,8582.17869 C7430.30888,8719.38124 7317.60151,8742.08175 7198.24845,8766.10121 C7071.92828,8791.53237 6941.28478,8817.8394 6785.29223,8972.8891 C6629.29969,9127.9285 6602.83093,9257.76344 6577.24342,9383.32206 C6553.07629,9501.93555 6530.23623,9613.96455 6392.19018,9751.1671 L6451.77341,9810.37596 C6607.76596,9655.33656 6634.23472,9525.50162 6659.82222,9399.943 C6683.99972,9281.32951 6706.82941,9169.30051 6844.87546,9032.09796 C6982.91113,8894.8954 7095.63923,8872.2052 7214.98193,8848.17544 C7341.30209,8822.74428 7471.94559,8796.44755 7627.94851,8641.39785 C7783.94106,8486.34814 7810.39945,8356.51321 7835.97659,8230.96489 C7860.15409,8112.3514 7882.98378,8000.31209 8021.04019,7863.11985 C8159.07587,7725.91729 8271.80397,7703.22709 8391.15703,7679.18702 C8517.4772,7653.75586 8648.1207,7627.45914 8804.12361,7472.40943 C8960.12653,7317.34942 8986.59529,7187.51449 9012.1828,7061.95586 C9036.37066,6943.34238 9059.21072,6831.29277 9197.25677,6694.07991 C9335.31318,6556.87736 9448.05165,6534.17685 9567.38398,6510.14709 C9693.72488,6484.70562 9824.34764,6458.39859 9980.37129,6303.34889 L9920.78807,6244.12973 C9782.74202,6381.34259 9670.00356,6404.04309 9550.66086,6428.07286 C9424.30959,6453.51432 9293.6972,6479.81105 9137.68391,6634.87106" id="Fill-6"></path>
                    <path d="M7020.98367,4551.05727 C6864.96948,4706.11728 6838.50057,4835.94191 6812.91292,4961.51084 C6788.73528,5080.12433 6765.89509,5192.16363 6627.83788,5329.37649 C6489.79103,5466.57904 6377.06228,5489.27955 6257.7189,5513.30931 C6131.37727,5538.74047 6000.75375,5565.04751 5844.7603,5720.0869 C5688.75648,5875.13661 5662.28757,6004.97154 5636.69991,6130.51986 C5612.52228,6249.13335 5589.69245,6361.17266 5451.65598,6498.3649 C5313.59877,6635.56746 5200.87002,6658.25766 5081.537,6682.28742 C4955.2161,6707.71858 4824.57185,6734.02561 4668.5784,6889.07532 C4512.58495,7044.11472 4486.11603,7173.94965 4460.52838,7299.50828 C4436.35074,7418.11146 4413.52092,7530.15077 4275.47408,7667.35332 L4335.05764,7726.56217 C4491.04072,7571.51247 4517.52001,7441.68784 4543.10766,7316.12921 C4567.2853,7197.51572 4590.11512,7085.48672 4728.16196,6948.28417 C4866.19844,6811.08162 4978.92719,6788.39142 5098.27058,6764.36165 C5224.59147,6738.93049 5355.22536,6712.62346 5511.22917,6557.57376 C5667.23299,6402.53436 5693.69154,6272.69942 5719.26882,6147.1511 C5743.44646,6028.53761 5766.27629,5916.49831 5904.3335,5779.30606 C6042.36997,5642.10351 6155.08835,5619.41331 6274.44211,5595.37324 C6400.77337,5569.94208 6531.39689,5543.63505 6687.41108,5388.58534 C6843.42526,5233.53564 6869.89417,5103.7007 6895.48183,4978.14208 C6919.66983,4859.51829 6942.51003,4747.47898 7080.55687,4610.26612 C7218.61408,4473.06357 7331.34283,4450.36307 7450.68622,4426.323 C7577.02785,4400.89184 7707.65136,4374.5848 7863.65518,4219.5248 L7804.09235,4160.31594 C7666.03514,4297.5288 7553.30639,4320.22931 7433.963,4344.25907 C7307.61101,4369.70054 7176.99785,4395.99726 7020.98367,4551.05727" id="Fill-1"></path>
                    <path d="M6891.20228,4421.27589 C6735.17773,4576.3359 6708.71919,4706.17083 6683.13153,4831.72946 C6658.95389,4950.34294 6636.1137,5062.38225 6498.04612,5199.5951 C6360.00965,5336.79766 6247.2809,5359.49816 6127.93751,5383.52793 C6001.59588,5408.95909 5870.97236,5435.26612 5714.97891,5590.30552 C5558.9751,5745.35522 5532.49581,5875.19016 5506.91853,6000.74878 C5482.74089,6119.35197 5459.9007,6231.39127 5321.87459,6368.58352 C5183.81738,6505.78607 5071.08863,6528.47627 4951.75561,6552.50604 C4825.43472,6577.9475 4694.79046,6604.24423 4538.79701,6759.29393 C4382.80356,6914.33333 4356.33465,7044.16827 4330.73663,7169.72689 C4306.55899,7288.33008 4283.73953,7400.36938 4145.69269,7537.57193 L4205.27626,7596.78079 C4361.25934,7441.73108 4387.72825,7311.90645 4413.32627,7186.34783 C4437.50391,7067.73434 4460.32337,6955.70534 4598.38058,6818.50279 C4736.40669,6681.30023 4849.13544,6658.61003 4968.48919,6634.58027 C5094.81009,6609.14911 5225.43361,6582.84207 5381.44779,6427.79237 C5537.45161,6272.75297 5563.91015,6142.91804 5589.48744,6017.36972 C5613.66508,5898.75623 5636.4949,5786.71692 5774.55211,5649.52468 C5912.58859,5512.32212 6025.30697,5489.63192 6144.66072,5465.59185 C6270.99199,5440.16069 6401.61551,5413.85366 6557.61932,5258.80396 C6713.63351,5103.75425 6740.11279,4973.91932 6765.70044,4848.36069 C6789.88845,4729.7369 6812.72864,4617.6976 6950.76512,4480.48474 C7088.83269,4343.28219 7201.56144,4320.58168 7320.90483,4296.55192 C7447.24646,4271.11045 7577.86998,4244.80342 7733.8738,4089.74341 L7674.3006,4030.53456 C7536.25376,4167.74742 7423.52501,4190.44792 7304.17125,4214.47769 C7177.82962,4239.91915 7047.21647,4266.21588 6891.20228,4421.27589" id="Fill-4"></path>
                    <path d="M6757.74922,4287.83869 C6601.73594,4442.8987 6575.26718,4572.72333 6549.67967,4698.29226 C6525.50217,4816.90574 6502.66211,4928.95535 6364.6057,5066.15791 C6226.55965,5203.36046 6113.83156,5226.06096 5994.48886,5250.09073 C5868.14796,5275.52189 5737.52519,5301.82892 5581.53265,5456.86832 C5425.52973,5611.91802 5399.06097,5741.75296 5373.4631,5867.30128 C5349.29597,5985.91477 5326.47664,6097.95407 5188.43059,6235.14632 C5050.37418,6372.34887 4937.66682,6395.04938 4818.31376,6419.06884 C4691.99359,6444.5 4561.35009,6470.80703 4405.35754,6625.85673 C4249.36499,6780.89613 4222.89623,6910.73107 4197.30873,7036.28969 C4173.1416,7154.90318 4150.30154,7266.93218 4012.25549,7404.13473 L4071.83871,7463.34359 C4227.83126,7308.30419 4254.30002,7178.46925 4279.88753,7052.91063 C4304.06503,6934.29714 4326.89472,6822.26814 4464.94077,6685.06559 C4602.97644,6547.86303 4715.70454,6525.17283 4835.04724,6501.14307 C4961.3674,6475.71191 5092.0109,6449.41518 5248.01382,6294.36548 C5404.00637,6139.31577 5430.46476,6009.48084 5456.0419,5883.93252 C5480.21939,5765.31903 5503.04909,5653.27972 5641.1055,5516.08748 C5779.14118,5378.88492 5891.86928,5356.19472 6011.22234,5332.15465 C6137.54251,5306.72349 6268.18601,5280.42677 6424.18892,5125.37706 C6580.19184,4970.31705 6606.6606,4840.48212 6632.2481,4714.92349 C6656.43597,4596.31001 6679.27603,4484.2604 6817.32207,4347.04754 C6955.37849,4209.84499 7068.11695,4187.14448 7187.44928,4163.11472 C7313.79018,4137.67325 7444.41295,4111.36622 7600.4366,3956.31652 L7540.85338,3897.09736 C7402.80733,4034.31022 7290.06887,4057.01072 7170.72617,4081.04049 C7044.3749,4106.48195 6913.7625,4132.77868 6757.74922,4287.83869" id="Fill-6"></path>
                    <path d="M8589.32773,6137.6804 C8433.31354,6292.74041 8406.84463,6422.56504 8381.25698,6548.13397 C8357.07934,6666.74746 8334.23915,6778.78676 8196.18194,6915.99962 C8058.13509,7053.20217 7945.40634,7075.90267 7826.06296,7099.93244 C7699.72133,7125.3636 7569.09781,7151.67063 7413.10436,7306.71003 C7257.10054,7461.75974 7230.63163,7591.59467 7205.04397,7717.14299 C7180.86634,7835.75648 7158.03651,7947.79578 7020.00004,8084.98803 C6881.94283,8222.19058 6769.21408,8244.88078 6649.88106,8268.91055 C6523.56016,8294.34171 6392.91591,8320.64874 6236.92246,8475.69845 C6080.92901,8630.73785 6054.46009,8760.57278 6028.87244,8886.13141 C6004.6948,9004.73459 5981.86498,9116.77389 5843.81814,9253.97645 L5903.4017,9313.1853 C6059.38478,9158.13559 6085.86407,9028.31096 6111.45172,8902.75234 C6135.62936,8784.13885 6158.45918,8672.10985 6296.50602,8534.9073 C6434.5425,8397.70475 6547.27125,8375.01455 6666.61464,8350.98478 C6792.93553,8325.55362 6923.56942,8299.24659 7079.57324,8144.19688 C7235.57705,7989.15748 7262.0356,7859.32255 7287.61288,7733.77423 C7311.79052,7615.16074 7334.62035,7503.12144 7472.67756,7365.92919 C7610.71403,7228.72664 7723.43241,7206.03644 7842.78617,7181.99636 C7969.11743,7156.5652 8099.74095,7130.25817 8255.75514,6975.20847 C8411.76932,6820.15877 8438.23823,6690.32383 8463.82589,6564.76521 C8488.01389,6446.14141 8510.85409,6334.10211 8648.90093,6196.88925 C8786.95814,6059.6867 8899.68689,6036.9862 9019.03028,6012.94612 C9145.37191,5987.51496 9275.99542,5961.20793 9431.99924,5806.14793 L9372.43641,5746.93907 C9234.3792,5884.15193 9121.65045,5906.85243 9002.30706,5930.8822 C8875.95507,5956.32367 8745.34191,5982.62039 8589.32773,6137.6804" id="Fill-1"></path>
                    <path d="M8459.54634,6007.89902 C8303.52179,6162.95902 8277.06325,6292.79396 8251.47559,6418.35258 C8227.29795,6536.96607 8204.45776,6649.00538 8066.39018,6786.21823 C7928.35371,6923.42079 7815.62496,6946.12129 7696.28157,6970.15106 C7569.93994,6995.58222 7439.31642,7021.88925 7283.32297,7176.92865 C7127.31916,7331.97835 7100.83987,7461.81329 7075.26259,7587.37191 C7051.08495,7705.97509 7028.24476,7818.0144 6890.21865,7955.20665 C6752.16144,8092.4092 6639.43269,8115.0994 6520.09967,8139.12917 C6393.77878,8164.57063 6263.13452,8190.86736 6107.14107,8345.91706 C5951.14762,8500.95646 5924.67871,8630.7914 5899.08069,8756.35002 C5874.90305,8874.9532 5852.08359,8986.99251 5714.03675,9124.19506 L5773.62032,9183.40391 C5929.6034,9028.35421 5956.07231,8898.52958 5981.67033,8772.97095 C6005.84797,8654.35747 6028.66743,8542.32847 6166.72464,8405.12591 C6304.75075,8267.92336 6417.4795,8245.23316 6536.83325,8221.20339 C6663.15415,8195.77223 6793.77767,8169.4652 6949.79185,8014.4155 C7105.79567,7859.3761 7132.25421,7729.54117 7157.8315,7603.99284 C7182.00914,7485.37936 7204.83896,7373.34005 7342.89617,7236.1478 C7480.93265,7098.94525 7593.65103,7076.25505 7713.00478,7052.21498 C7839.33605,7026.78382 7969.95957,7000.47679 8125.96338,6845.42709 C8281.97757,6690.37738 8308.45685,6560.54245 8334.0445,6434.98382 C8358.23251,6316.36003 8381.0727,6204.32072 8519.10918,6067.10787 C8657.17675,5929.90532 8769.9055,5907.20481 8889.24889,5883.17504 C9015.59052,5857.73358 9146.21404,5831.42655 9302.21786,5676.36654 L9242.64466,5617.15769 C9104.59782,5754.37054 8991.86907,5777.07105 8872.51531,5801.10082 C8746.17368,5826.54228 8615.56053,5852.83901 8459.54634,6007.89902" id="Fill-4"></path>
                    <path d="M8326.09328,5876.28972 C8170.08,6031.34973 8143.61124,6161.17436 8118.02373,6286.74329 C8093.84623,6405.35678 8071.00617,6517.40639 7932.94976,6654.60894 C7794.90371,6791.81149 7682.17562,6814.512 7562.83292,6838.54177 C7436.49202,6863.97293 7305.86925,6890.27996 7149.87671,7045.31936 C6993.87379,7200.36906 6967.40503,7330.20399 6941.80716,7455.75232 C6917.64003,7574.3658 6894.8207,7686.40511 6756.77466,7823.59736 C6618.71824,7960.79991 6506.01088,7983.50041 6386.65782,8007.51988 C6260.33765,8032.95104 6129.69415,8059.25807 5973.7016,8214.30777 C5817.70905,8369.34717 5791.24029,8499.1821 5765.65279,8624.74073 C5741.48566,8743.35422 5718.6456,8855.38322 5580.59955,8992.58577 L5640.18277,9051.79462 C5796.17532,8896.75522 5822.64408,8766.92029 5848.23159,8641.36166 C5872.40909,8522.74818 5895.23878,8410.71917 6033.28483,8273.51662 C6171.3205,8136.31407 6284.0486,8113.62387 6403.3913,8089.5941 C6529.71146,8064.16294 6660.35496,8037.86622 6816.35788,7882.81651 C6972.35043,7727.76681 6998.80882,7597.93187 7024.38596,7472.38355 C7048.56345,7353.77007 7071.39315,7241.73076 7209.44956,7104.53851 C7347.48524,6967.33596 7460.21334,6944.64576 7579.5664,6920.60569 C7705.88657,6895.17453 7836.53007,6868.8778 7992.53298,6713.8281 C8148.5359,6558.76809 8175.00466,6428.93315 8200.59216,6303.37453 C8224.78003,6184.76104 8247.62009,6072.71143 8385.66614,5935.49858 C8523.72255,5798.29602 8636.46101,5775.59552 8755.79334,5751.56575 C8882.13424,5726.12429 9012.75701,5699.81726 9168.78066,5544.76755 L9109.19744,5485.5484 C8971.15139,5622.76125 8858.41293,5645.46176 8739.07023,5669.49153 C8612.71896,5694.93299 8482.10656,5721.22972 8326.09328,5876.28972" id="Fill-6"></path>
                    <path d="M6209.39304,3790.64803 C6053.37885,3945.70804 6026.90994,4075.53267 6001.32228,4201.1016 C5977.14465,4319.71509 5954.30445,4431.75439 5816.24724,4568.96725 C5678.2004,4706.1698 5565.47165,4728.87031 5446.12826,4752.90007 C5319.78663,4778.33123 5189.16311,4804.63826 5033.16967,4959.67766 C4877.16585,5114.72737 4850.69693,5244.5623 4825.10928,5370.11062 C4800.93164,5488.72411 4778.10182,5600.76341 4640.06534,5737.95566 C4502.00813,5875.15821 4389.27938,5897.84842 4269.94636,5921.87818 C4143.62547,5947.30934 4012.98121,5973.61637 3856.98776,6128.66608 C3700.99432,6283.70548 3674.5254,6413.54041 3648.93775,6539.09904 C3624.76011,6657.70222 3601.93028,6769.74152 3463.88344,6906.94408 L3523.46701,6966.15293 C3679.45009,6811.10323 3705.92937,6681.27859 3731.51703,6555.71997 C3755.69466,6437.10648 3778.52449,6325.07748 3916.57133,6187.87493 C4054.60781,6050.67238 4167.33656,6027.98218 4286.67994,6003.95241 C4413.00084,5978.52125 4543.63473,5952.21422 4699.63854,5797.16451 C4855.64236,5642.12512 4882.10091,5512.29018 4907.67819,5386.74186 C4931.85583,5268.12837 4954.68566,5156.08907 5092.74286,5018.89682 C5230.77934,4881.69427 5343.49772,4859.00407 5462.85148,4834.96399 C5589.18274,4809.53283 5719.80626,4783.2258 5875.82044,4628.1761 C6031.83463,4473.1264 6058.30354,4343.29146 6083.8912,4217.73284 C6108.0792,4099.10905 6130.91939,3987.06974 6268.96624,3849.85688 C6407.02345,3712.65433 6519.7522,3689.95383 6639.09558,3665.91375 C6765.43721,3640.48259 6896.06073,3614.17556 7052.06455,3459.11556 L6992.50172,3399.9067 C6854.44451,3537.11956 6741.71576,3559.82007 6622.37237,3583.84983 C6496.02037,3609.2913 6365.40722,3635.58802 6209.39304,3790.64803" id="Fill-1"></path>
                    <path d="M6077.78374,3660.86665 C5921.75919,3815.92665 5895.30065,3945.76159 5869.71299,4071.32021 C5845.53536,4189.9337 5822.69516,4301.97301 5684.62758,4439.18586 C5546.59111,4576.38842 5433.86236,4599.08892 5314.51897,4623.11869 C5188.17734,4648.54985 5057.55382,4674.85688 4901.56037,4829.89628 C4745.55656,4984.94598 4719.07727,5114.78092 4693.49999,5240.33954 C4669.32235,5358.94272 4646.48216,5470.98203 4508.45605,5608.17428 C4370.39884,5745.37683 4257.67009,5768.06703 4138.33707,5792.0968 C4012.01618,5817.53826 3881.37192,5843.83499 3725.37847,5998.88469 C3569.38502,6153.92409 3542.91611,6283.75903 3517.31809,6409.31765 C3493.14045,6527.92083 3470.32099,6639.96014 3332.27415,6777.16269 L3391.85772,6836.37154 C3547.8408,6681.32184 3574.30971,6551.49721 3599.90773,6425.93858 C3624.08537,6307.3251 3646.90483,6195.2961 3784.96204,6058.09354 C3922.98815,5920.89099 4035.7169,5898.20079 4155.07065,5874.17102 C4281.39155,5848.73986 4412.01507,5822.43283 4568.02925,5667.38313 C4724.03307,5512.34373 4750.49161,5382.5088 4776.0689,5256.96047 C4800.24654,5138.34699 4823.07636,5026.30768 4961.13357,4889.11543 C5099.17005,4751.91288 5211.88843,4729.22268 5331.24218,4705.18261 C5457.57345,4679.75145 5588.19697,4653.44442 5744.20078,4498.39472 C5900.21497,4343.34501 5926.69425,4213.51008 5952.2819,4087.95145 C5976.46991,3969.32766 5999.3101,3857.28835 6137.34658,3720.0755 C6275.41415,3582.87295 6388.1429,3560.17244 6507.48629,3536.14267 C6633.82792,3510.70121 6764.45144,3484.39418 6920.45526,3329.33417 L6860.88206,3270.12532 C6722.83522,3407.33818 6610.10647,3430.03868 6490.75271,3454.06845 C6364.41108,3479.50991 6233.79793,3505.80664 6077.78374,3660.86665" id="Fill-4"></path>
                    <path d="M5946.15859,3529.25735 C5790.1453,3684.31736 5763.67654,3814.14199 5738.08904,3939.71092 C5713.91154,4058.32441 5691.07148,4170.37402 5553.01507,4307.57657 C5414.96902,4444.77912 5302.24092,4467.47963 5182.89823,4491.5094 C5056.55733,4516.94056 4925.93456,4543.24759 4769.94201,4698.28699 C4613.9391,4853.33669 4587.47034,4983.17162 4561.87246,5108.71995 C4537.70533,5227.33343 4514.88601,5339.37274 4376.83996,5476.56499 C4238.78355,5613.76754 4126.07619,5636.46804 4006.72312,5660.48751 C3880.40296,5685.91867 3749.75946,5712.2257 3593.76691,5867.2754 C3437.77436,6022.3148 3411.3056,6152.14973 3385.7181,6277.70836 C3361.55097,6396.32185 3338.7109,6508.35085 3200.66486,6645.5534 L3260.24808,6704.76225 C3416.24063,6549.72285 3442.70939,6419.88792 3468.2969,6294.32929 C3492.47439,6175.71581 3515.30409,6063.6868 3653.35013,5926.48425 C3791.38581,5789.2817 3904.11391,5766.5915 4023.4566,5742.56173 C4149.77677,5717.13057 4280.42027,5690.83385 4436.42319,5535.78414 C4592.41573,5380.73444 4618.87413,5250.8995 4644.45126,5125.35118 C4668.62876,5006.7377 4691.45846,4894.69839 4829.51487,4757.50614 C4967.55054,4620.30359 5080.27864,4597.61339 5199.63171,4573.57332 C5325.95187,4548.14216 5456.59537,4521.84543 5612.59829,4366.79573 C5768.6012,4211.73572 5795.06997,4081.90079 5820.65747,3956.34216 C5844.84534,3837.72867 5867.6854,3725.67906 6005.73144,3588.46621 C6143.78785,3451.26365 6256.52632,3428.56315 6375.85865,3404.53338 C6502.19955,3379.09192 6632.82232,3352.78489 6788.84597,3197.73518 L6729.26274,3138.51603 C6591.2167,3275.72888 6478.47823,3298.42939 6359.13554,3322.45916 C6232.78427,3347.90062 6102.17187,3374.19735 5946.15859,3529.25735" id="Fill-6"></path>
                    <path d="M5015.76988,2600.68069 C4859.75569,2755.74069 4833.28678,2885.56532 4807.69912,3011.13425 C4783.52149,3129.74774 4760.68129,3241.78705 4622.62408,3378.9999 C4484.57724,3516.20245 4371.84849,3538.90296 4252.5051,3562.93273 C4126.16347,3588.36389 3995.53995,3614.67092 3839.54651,3769.71032 C3683.54269,3924.76002 3657.07377,4054.59496 3631.48612,4180.14328 C3607.30848,4298.75676 3584.47866,4410.79607 3446.44218,4547.98832 C3308.38497,4685.19087 3195.65622,4707.88107 3076.3232,4731.91084 C2950.00231,4757.342 2819.35805,4783.64903 2663.3646,4938.69873 C2507.37116,5093.73813 2480.90224,5223.57306 2455.31459,5349.13169 C2431.13695,5467.73487 2408.30712,5579.77418 2270.26028,5716.97673 L2329.84385,5776.18558 C2485.82693,5621.13588 2512.30621,5491.31125 2537.89387,5365.75262 C2562.0715,5247.13914 2584.90133,5135.11014 2722.94817,4997.90758 C2860.98465,4860.70503 2973.7134,4838.01483 3093.05678,4813.98506 C3219.37768,4788.5539 3350.01157,4762.24687 3506.01538,4607.19717 C3662.0192,4452.15777 3688.47775,4322.32283 3714.05503,4196.77451 C3738.23267,4078.16103 3761.0625,3966.12172 3899.1197,3828.92947 C4037.15618,3691.72692 4149.87456,3669.03672 4269.22832,3644.99665 C4395.55958,3619.56549 4526.1831,3593.25846 4682.19728,3438.20875 C4838.21147,3283.15905 4864.68038,3153.32412 4890.26804,3027.76549 C4914.45604,2909.1417 4937.29623,2797.10239 5075.34308,2659.88954 C5213.40029,2522.68698 5326.12904,2499.98648 5445.47242,2475.94641 C5571.81405,2450.51525 5702.43757,2424.20822 5858.44139,2269.14821 L5798.87856,2209.93936 C5660.82135,2347.15221 5548.0926,2369.85272 5428.74921,2393.88249 C5302.39721,2419.32395 5171.78406,2445.62068 5015.76988,2600.68069" id="Fill-1"></path>
                    <path d="M4884.16058,2470.8993 C4728.13603,2625.95931 4701.67749,2755.79424 4676.08983,2881.35287 C4651.9122,2999.96636 4629.072,3112.00566 4491.00442,3249.21852 C4352.96795,3386.42107 4240.2392,3409.12157 4120.89581,3433.15134 C3994.55418,3458.5825 3863.93066,3484.88953 3707.93721,3639.92893 C3551.9334,3794.97864 3525.45411,3924.81357 3499.87683,4050.3722 C3475.69919,4168.97538 3452.859,4281.01468 3314.83289,4418.20693 C3176.77568,4555.40948 3064.04693,4578.09968 2944.71391,4602.12945 C2818.39302,4627.57092 2687.74876,4653.86764 2531.75531,4808.91735 C2375.76186,4963.95675 2349.29295,5093.79168 2323.69493,5219.35031 C2299.51729,5337.95349 2276.69783,5449.99279 2138.65099,5587.19535 L2198.23456,5646.4042 C2354.21764,5491.35449 2380.68655,5361.52986 2406.28458,5235.97124 C2430.46221,5117.35775 2453.28167,5005.32875 2591.33888,4868.1262 C2729.36499,4730.92365 2842.09374,4708.23345 2961.44749,4684.20368 C3087.76839,4658.77252 3218.39191,4632.46549 3374.40609,4477.41578 C3530.40991,4322.37638 3556.86845,4192.54145 3582.44574,4066.99313 C3606.62338,3948.37964 3629.4532,3836.34034 3767.51041,3699.14809 C3905.54689,3561.94554 4018.26527,3539.25534 4137.61902,3515.21526 C4263.95029,3489.7841 4394.57381,3463.47707 4550.57762,3308.42737 C4706.59181,3153.37767 4733.07109,3023.54273 4758.65874,2897.98411 C4782.84675,2779.36031 4805.68694,2667.32101 4943.72342,2530.10815 C5081.79099,2392.9056 5194.51974,2370.2051 5313.86313,2346.17533 C5440.20476,2320.73386 5570.82828,2294.42683 5726.8321,2139.36682 L5667.2589,2080.15797 C5529.21206,2217.37083 5416.48331,2240.07133 5297.12955,2264.1011 C5170.78792,2289.54257 5040.17477,2315.83929 4884.16058,2470.8993" id="Fill-4"></path>
                    <path d="M9530.68388,7035.18265 C9374.6706,7190.24266 9348.20184,7320.06729 9322.61433,7445.63622 C9298.43683,7564.24971 9275.59677,7676.29932 9137.54036,7813.50187 C8999.49432,7950.70442 8886.76622,7973.40493 8767.42352,7997.4347 C8641.08262,8022.86586 8510.45985,8049.17289 8354.46731,8204.21229 C8198.46439,8359.26199 8171.99563,8489.09692 8146.39776,8614.64525 C8122.23063,8733.25873 8099.4113,8845.29804 7961.36526,8982.49029 C7823.30884,9119.69284 7710.60148,9142.39334 7591.24842,9166.41281 C7464.92825,9191.84397 7334.28475,9218.151 7178.2922,9373.2007 C7022.29966,9528.2401 6995.83089,9658.07503 6970.24339,9783.63366 C6946.07626,9902.24715 6923.2362,10014.2761 6785.19015,10151.4787 L6844.77338,10210.6876 C7000.76592,10055.6482 7027.23468,9925.81322 7052.82219,9800.25459 C7076.99969,9681.64111 7099.82938,9569.6121 7237.87543,9432.40955 C7375.9111,9295.207 7488.6392,9272.5168 7607.9819,9248.48703 C7734.30206,9223.05587 7864.94556,9196.75915 8020.94848,9041.70944 C8176.94103,8886.65974 8203.39942,8756.8248 8228.97656,8631.27648 C8253.15406,8512.663 8275.98375,8400.62369 8414.04016,8263.43144 C8552.07584,8126.22889 8664.80394,8103.53869 8784.157,8079.49862 C8910.47717,8054.06746 9041.12067,8027.77073 9197.12358,7872.72103 C9353.1265,7717.66102 9379.59526,7587.82609 9405.18276,7462.26746 C9429.37063,7343.65397 9452.21069,7231.60436 9590.25674,7094.39151 C9728.31315,6957.18895 9841.05161,6934.48845 9960.38394,6910.45868 C10086.7248,6885.01722 10217.3476,6858.71019 10373.3713,6703.66048 L10313.788,6644.44133 C10175.742,6781.65418 10063.0035,6804.35469 9943.66083,6828.38446 C9817.30956,6853.82592 9686.69716,6880.12265 9530.68388,7035.18265" id="Fill-6"></path>
                    <path d="M7413.98364,4955.02468 C7257.96945,5110.08469 7231.50054,5239.90932 7205.91289,5365.47825 C7181.73525,5484.09174 7158.89505,5596.13104 7020.83784,5733.3439 C6882.791,5870.54645 6770.06225,5893.24696 6650.71887,5917.27672 C6524.37723,5942.70788 6393.75372,5969.01491 6237.76027,6124.05431 C6081.75645,6279.10402 6055.28753,6408.93895 6029.69988,6534.48727 C6005.52224,6653.10076 5982.69242,6765.14007 5844.65594,6902.33231 C5706.59873,7039.53487 5593.86998,7062.22507 5474.53697,7086.25483 C5348.21607,7111.68599 5217.57182,7137.99302 5061.57837,7293.04273 C4905.58492,7448.08213 4879.116,7577.91706 4853.52835,7703.47569 C4829.35071,7822.07887 4806.52089,7934.11818 4668.47404,8071.32073 L4728.05761,8130.52958 C4884.04069,7975.47988 4910.51997,7845.65525 4936.10763,7720.09662 C4960.28526,7601.48313 4983.11509,7489.45413 5121.16193,7352.25158 C5259.19841,7215.04903 5371.92716,7192.35883 5491.27054,7168.32906 C5617.59144,7142.8979 5748.22533,7116.59087 5904.22914,6961.54117 C6060.23296,6806.50177 6086.69151,6676.66683 6112.26879,6551.11851 C6136.44643,6432.50502 6159.27626,6320.46572 6297.33347,6183.27347 C6435.36994,6046.07092 6548.08832,6023.38072 6667.44208,5999.34065 C6793.77334,5973.90949 6924.39686,5947.60245 7080.41104,5792.55275 C7236.42523,5637.50305 7262.89414,5507.66811 7288.4818,5382.10949 C7312.6698,5263.4857 7335.51,5151.44639 7473.55684,5014.23353 C7611.61405,4877.03098 7724.3428,4854.33048 7843.68618,4830.29041 C7970.02781,4804.85925 8100.65133,4778.55221 8256.65515,4623.49221 L8197.09232,4564.28335 C8059.03511,4701.49621 7946.30636,4724.19672 7826.96297,4748.22648 C7700.61097,4773.66795 7569.99782,4799.96467 7413.98364,4955.02468" id="Fill-1"></path>
                    <path d="M7284.20225,4825.2433 C7128.1777,4980.3033 7101.71915,5110.13824 7076.1315,5235.69687 C7051.95386,5354.31035 7029.11367,5466.34966 6891.04609,5603.56251 C6753.00962,5740.76507 6640.28087,5763.46557 6520.93748,5787.49534 C6394.59585,5812.9265 6263.97233,5839.23353 6107.97888,5994.27293 C5951.97506,6149.32263 5925.49578,6279.15757 5899.9185,6404.71619 C5875.74086,6523.31938 5852.90067,6635.35868 5714.87456,6772.55093 C5576.81735,6909.75348 5464.0886,6932.44368 5344.75558,6956.47345 C5218.43469,6981.91491 5087.79043,7008.21164 4931.79698,7163.26134 C4775.80353,7318.30074 4749.33462,7448.13568 4723.7366,7573.6943 C4699.55896,7692.29748 4676.7395,7804.33679 4538.69266,7941.53934 L4598.27623,8000.74819 C4754.25931,7845.69849 4780.72822,7715.87386 4806.32624,7590.31523 C4830.50388,7471.70175 4853.32334,7359.67275 4991.38055,7222.47019 C5129.40665,7085.26764 5242.1354,7062.57744 5361.48916,7038.54767 C5487.81005,7013.11651 5618.43357,6986.80948 5774.44776,6831.75978 C5930.45158,6676.72038 5956.91012,6546.88545 5982.48741,6421.33713 C6006.66504,6302.72364 6029.49487,6190.68433 6167.55208,6053.49209 C6305.58855,5916.28953 6418.30694,5893.59933 6537.66069,5869.55926 C6663.99195,5844.1281 6794.61547,5817.82107 6950.61929,5662.77137 C7106.63348,5507.72166 7133.11276,5377.88673 7158.70041,5252.3281 C7182.88842,5133.70431 7205.72861,5021.66501 7343.76508,4884.45215 C7481.83266,4747.2496 7594.56141,4724.54909 7713.9048,4700.51932 C7840.24643,4675.07786 7970.86995,4648.77083 8126.87377,4493.71082 L8067.30057,4434.50197 C7929.25372,4571.71483 7816.52497,4594.41533 7697.17122,4618.4451 C7570.82959,4643.88656 7440.21644,4670.18329 7284.20225,4825.2433" id="Fill-4"></path>
                    <path d="M7150.74919,4693.63401 C6994.7359,4848.69401 6968.26714,4978.51864 6942.67964,5104.08757 C6918.50214,5222.70106 6895.66208,5334.75067 6757.60567,5471.95322 C6619.55962,5609.15577 6506.83152,5631.85628 6387.48883,5655.88605 C6261.14793,5681.31721 6130.52516,5707.62424 5974.53261,5862.66364 C5818.5297,6017.71334 5792.06094,6147.54828 5766.46306,6273.0966 C5742.29593,6391.71008 5719.47661,6503.74939 5581.43056,6640.94164 C5443.37415,6778.14419 5330.66679,6800.84469 5211.31372,6824.86416 C5084.99356,6850.29532 4954.35006,6876.60235 4798.35751,7031.65205 C4642.36496,7186.69145 4615.8962,7316.52639 4590.3087,7442.08501 C4566.14157,7560.6985 4543.3015,7672.7275 4405.25546,7809.93005 L4464.83868,7869.1389 C4620.83123,7714.0995 4647.29999,7584.26457 4672.8875,7458.70594 C4697.06499,7340.09246 4719.89469,7228.06346 4857.94073,7090.8609 C4995.97641,6953.65835 5108.70451,6930.96815 5228.04721,6906.93838 C5354.36737,6881.50722 5485.01087,6855.2105 5641.01379,6700.16079 C5797.00633,6545.11109 5823.46473,6415.27615 5849.04187,6289.72783 C5873.21936,6171.11435 5896.04906,6059.07504 6034.10547,5921.88279 C6172.14115,5784.68024 6284.86924,5761.99004 6404.22231,5737.94997 C6530.54247,5712.51881 6661.18597,5686.22208 6817.18889,5531.17238 C6973.19181,5376.11237 6999.66057,5246.27744 7025.24807,5120.71881 C7049.43594,5002.10532 7072.276,4890.05571 7210.32204,4752.84286 C7348.37846,4615.64031 7461.11692,4592.9398 7580.44925,4568.91003 C7706.79015,4543.46857 7837.41292,4517.16154 7993.43657,4362.11183 L7933.85334,4302.89268 C7795.8073,4440.10553 7683.06883,4462.80604 7563.72614,4486.83581 C7437.37487,4512.27727 7306.76247,4538.574 7150.74919,4693.63401" id="Fill-6"></path>
                </g>
            </g>
        </g>
    </g>
</svg>