<?xml version="1.0" encoding="UTF-8"?>
<svg width="1406px" height="1401px" viewBox="0 0 1406 1401" version="1.1" xmlns="http://www.w3.org/2000/svg" xmlns:xlink="http://www.w3.org/1999/xlink">
    <!-- Generator: Sketch 43.1 (39012) - http://www.bohemiancoding.com/sketch -->
    <title>Page 1 Copy 2</title>
    <desc>Created with Sketch.</desc>
    <defs>
        <polygon id="path-1" points="1405.60767 1400.71225 1405.60767 0.00260408922 0.000955914098 0.00260408922 0.000955914098 1400.71225 1405.60767 1400.71225"></polygon>
    </defs>
    <g id="Page-6-Copy" stroke="none" stroke-width="1" fill="none" fill-rule="evenodd">
        <g id="Page-1-Copy-2" transform="translate(703.000000, 700.500000) rotate(-180.000000) translate(-703.000000, -700.500000) ">
            <mask id="mask-2" fill="white">
                <use xlink:href="#path-1"></use>
            </mask>
            <g id="Clip-2"></g>
            <path d="M1398.84763,1338.1438 C1391.98226,1370.31992 1288.50103,1242.63101 1255.5561,1242.63101 C1222.58249,1242.63101 1222.58249,1400.71225 1189.6141,1400.71225 C1156.61963,1400.71225 1156.61963,1242.63101 1123.62255,1242.63101 C1090.63069,1242.63101 989.871619,1374.14273 981.246227,1342.33898 C949.401637,1224.92321 1136.77705,1200.02811 1136.77705,1078.3859 C1136.77966,956.733265 978.495384,956.733265 978.497992,835.080633 C978.497992,713.41498 1136.77966,713.41498 1136.77966,591.746724 C1136.78227,470.078467 1087.85116,490.330469 1001.69112,404.312194 C915.145169,317.916326 935.595274,268.878722 813.225792,268.386549 C690.85631,267.891772 690.214881,425.973008 567.842791,425.478231 C445.449842,424.983454 446.091271,266.902218 323.698322,266.410046 C201.310588,265.915269 175.77338,452.956581 57.7165932,420.702332 C25.9397958,412.020298 157.875953,311.880047 158.01154,278.97738 C158.147126,246.04086 -0.134543591,245.395046 0.00104297358,212.458525 C0.134022104,179.498568 158.418299,180.146986 158.551278,147.192237 C158.689472,114.23228 31.2328867,10.2978708 63.5416006,3.57411245 C215.484598,-28.0447388 234.571015,160.624129 389.781128,161.259527 C544.996455,161.892321 545.640491,3.81108457 700.861034,4.44127416 C856.099828,5.07406784 855.455792,163.157908 1010.69198,163.788098 C1165.93077,164.418287 1267.70674,-79.5145623 1377.46407,30.1306143 C1486.79377,139.346116 1242.34423,240.44988 1242.33902,394.893204 C1242.3338,549.341735 1400.61547,549.346943 1400.61026,703.795475 C1400.60504,858.267443 1210.0981,879.542852 1244.26852,1030.19462 C1282.05024,1196.78081 1431.0703,1187.06235 1398.84763,1338.1438" id="Fill-1" fill="#6F2EFF" mask="url(#mask-2)"></path>
        </g>
    </g>
</svg>