<?xml version="1.0" encoding="UTF-8"?>
<svg width="2602px" height="2600px" viewBox="0 0 2602 2600" version="1.1" xmlns="http://www.w3.org/2000/svg" xmlns:xlink="http://www.w3.org/1999/xlink">
    <!-- Generator: Sketch 42 (36781) - http://www.bohemiancoding.com/sketch -->
    <title>Page 1 Copy 3</title>
    <desc>Created with Sketch.</desc>
    <defs>
        <polygon id="path-1" points="1211.78543 0.478351556 0 0.478351556 0 2422.6638 2423.57085 2422.6638 2423.57085 0.478351556 1211.78543 0.478351556"></polygon>
    </defs>
    <g id="Page-6-Copy" stroke="none" stroke-width="1" fill="none" fill-rule="evenodd">
        <g id="Page-1-Copy-3" transform="translate(0.000000, -1.000000)">
            <g id="Group-3" transform="translate(177.067204, 178.558687)" fill="#E0F600">
                <path d="M1855.27817,265.682078 C1749.90172,370.998444 1732.02385,459.175006 1714.74122,544.461107 C1698.41095,625.023088 1682.98403,701.119902 1589.73623,794.314529 C1496.49544,887.502156 1420.35521,902.920282 1339.74727,919.24124 C1254.41251,936.51402 1166.18564,954.381689 1060.82319,1059.68406 C955.453745,1164.99343 937.575882,1253.17699 920.293247,1338.44909 C903.962978,1419.01107 888.543059,1495.10788 795.309269,1588.28851 C702.061473,1681.47614 625.921245,1696.88727 545.320304,1713.20823 C459.999551,1730.48101 371.758677,1748.34868 266.396231,1853.65804 C161.033785,1958.96041 143.155922,2047.14397 125.873288,2132.42307 C109.543019,2212.97806 94.1230995,2289.07487 0.882306452,2382.2625 L41.1267554,2422.477 C146.482199,2317.16763 164.367065,2228.99107 181.649699,2143.71197 C197.979968,2063.14999 213.399887,1987.06017 306.64068,1893.87255 C399.87447,1800.68492 476.014699,1785.27379 556.622642,1768.95283 C641.943395,1751.68005 730.177266,1733.81238 835.546715,1628.50302 C940.916164,1523.20065 958.787024,1435.01709 976.062656,1349.74498 C992.392925,1269.183 1007.81284,1193.08619 1101.06064,1099.90556 C1194.29443,1006.71793 1270.42766,991.306805 1351.0426,974.978849 C1436.37036,957.706069 1524.59723,939.8384 1629.97368,834.529032 C1735.35013,729.219664 1753.22799,641.036103 1770.51063,555.757001 C1786.8479,475.188021 1802.27482,399.091207 1895.51561,305.896581 C1988.76341,212.708953 2064.90364,197.290827 2145.51158,180.962871 C2230.84634,163.690091 2319.07321,145.822422 2424.44266,40.5060557 L2384.21221,0.291552625 C2290.96442,93.486179 2214.82419,108.904305 2134.21624,125.225262 C2048.87448,142.505041 1960.65462,160.365711 1855.27817,265.682078" id="Fill-1"></path>
            </g>
            <path d="M1944.1213,356.063503 C1838.73785,461.37987 1820.86699,549.56343 1803.58435,634.842532 C1787.25409,715.404514 1771.82716,791.501328 1678.57237,884.695954 C1585.33858,977.883582 1509.19835,993.301707 1428.5904,1009.62266 C1343.25565,1026.89544 1255.02878,1044.76311 1149.66633,1150.06548 C1044.29688,1255.37485 1026.41202,1343.55841 1009.13638,1428.83751 C992.806116,1509.3925 977.379194,1585.48931 884.152406,1678.66994 C790.90461,1771.85757 714.764382,1787.26869 634.163441,1803.58965 C548.842688,1820.86943 460.601815,1838.7301 355.239368,1944.03947 C249.876922,2049.34184 231.999059,2137.5254 214.709422,2222.8045 C198.379153,2303.35948 182.966237,2379.4563 89.7254435,2472.64392 L129.969892,2512.85843 C235.325336,2407.54906 253.203199,2319.3725 270.492836,2234.0934 C286.823105,2153.53141 302.236022,2077.4416 395.483817,1984.25397 C488.710605,1891.06634 564.850833,1875.65522 645.46578,1859.33426 C730.786532,1842.06148 819.013401,1824.19381 924.389852,1718.88444 C1029.7593,1613.58207 1047.63016,1525.39851 1064.90579,1440.12641 C1081.23606,1359.56443 1096.65598,1283.46761 1189.90378,1190.28698 C1283.13757,1097.09936 1359.27079,1081.68823 1439.88574,1065.36027 C1525.21349,1048.08749 1613.44036,1030.21983 1718.80981,924.910457 C1824.18626,819.601089 1842.07113,731.417529 1859.35376,646.138427 C1875.69103,565.569446 1891.11796,489.472633 1984.35175,396.278006 C2077.60655,303.090379 2153.74677,287.672253 2234.35472,271.351295 C2319.68948,254.071517 2407.91634,236.203848 2513.28579,130.887481 L2473.04835,90.672978 C2379.80755,183.867604 2303.66733,199.28573 2223.05238,215.606687 C2137.71762,232.886466 2049.49776,250.747137 1944.1213,356.063503" id="Fill-4" fill="#E0F600"></path>
            <g id="Group-8" transform="translate(0.000000, 0.520344)">
                <mask id="mask-2" fill="white">
                    <use xlink:href="#path-1"></use>
                </mask>
                <g id="Clip-7"></g>
                <path d="M1854.39236,265.868877 C1749.01591,371.185243 1731.13804,459.361805 1713.85541,544.647906 C1697.52514,625.209887 1682.09822,701.3137 1588.85042,794.501328 C1495.60963,887.688955 1419.4694,903.107081 1338.86146,919.428038 C1253.5267,936.700818 1165.29983,954.568488 1059.93739,1059.87086 C954.567937,1165.18022 936.690074,1253.36379 919.400437,1338.63589 C903.077171,1419.19787 887.664254,1495.29468 794.423461,1588.47531 C701.175665,1681.66294 625.049442,1697.08107 544.434496,1713.39503 C459.113743,1730.6678 370.87287,1748.53547 265.510423,1853.84484 C160.147977,1959.14721 142.270114,2047.33077 124.98748,2132.60987 C108.664214,2213.17186 93.2372917,2289.26167 -0.00350134409,2382.4493 L40.2409476,2422.6638 C145.603394,2317.36143 163.481257,2229.17787 180.763891,2143.89877 C197.09416,2063.33679 212.514079,1987.24697 305.754872,1894.05935 C398.988663,1800.87172 475.128891,1785.46059 555.736835,1769.13963 C641.057587,1751.86685 729.298461,1734.00618 834.66791,1628.69681 C940.030356,1523.38745 957.901216,1435.20389 975.176848,1349.93178 C991.507117,1269.3698 1006.92704,1193.27299 1100.17483,1100.09236 C1193.40862,1006.90473 1269.54885,991.493604 1350.1638,975.165648 C1435.48455,957.892868 1523.72542,940.032197 1629.09487,834.722829 C1734.46432,729.406463 1752.34218,641.222902 1769.62482,555.9438 C1785.96209,475.381819 1801.38901,399.278006 1894.62981,306.08338 C1987.8776,212.895752 2064.02483,197.477626 2144.62577,181.156669 C2229.96053,163.87689 2318.1874,146.009221 2423.57085,40.6998534 L2383.3264,0.478351556 C2290.08561,93.672978 2213.93838,109.091104 2133.33044,125.412061 C2047.98868,142.69184 1959.76881,160.55251 1854.39236,265.868877" id="Fill-6" fill="#E0F600" mask="url(#mask-2)"></path>
            </g>
        </g>
    </g>
</svg>