<?xml version="1.0" encoding="UTF-8"?>
<svg width="557px" height="5179px" viewBox="0 0 557 5179" version="1.1" xmlns="http://www.w3.org/2000/svg" xmlns:xlink="http://www.w3.org/1999/xlink">
    <!-- Generator: Sketch 43.1 (39012) - http://www.bohemiancoding.com/sketch -->
    <title>Combined Shape Copy</title>
    <desc>Created with Sketch.</desc>
    <defs></defs>
    <g id="Page-6-Copy" stroke="none" stroke-width="1" fill="none" fill-rule="evenodd">
        <path d="M11.299028,4985.98875 C12.1029684,4988.37523 12.9410472,4990.71072 13.8103273,4992.9996 L13.5800264,4992.9996 C50.4029826,5101.17888 152.864083,5178.9996 273.501187,5178.9996 C424.93665,5178.9996 547.730876,5056.3719 548.000742,4904.9996 L548.000774,4904.9996 L556.177596,4904.9996 L556.177596,2589.4998 L556.177596,274 L548.000774,274 L548.000742,274 C547.730876,122.627708 424.93665,-4.54747351e-13 273.501187,-4.54747351e-13 C152.864083,-4.54747351e-13 50.4029826,77.8207193 13.5800264,186 L13.8103273,186 C12.9410472,188.288881 12.1029684,190.624371 11.299028,193.010858 C7.63176402,204.823696 4.74081101,216.978228 2.68582146,229.414802 C0.958783857,241.249662 -1.97791078e-13,254.232161 -1.98673726e-13,268.646907 C-2.07557076e-13,413.72302 97.1177234,413.72302 97.1177234,558.801112 C97.1177234,703.867322 -2.25323291e-13,703.867322 -2.34206277e-13,848.937493 C-2.4308902e-13,994.003704 97.1177234,994.003704 97.1177234,1139.06793 C97.1177234,1284.13612 -2.60854507e-13,1284.13612 -2.69737251e-13,1429.20234 C-2.78619994e-13,1574.26855 97.1177234,1574.26855 97.1177234,1719.33476 C97.1177234,1864.40295 -2.96385603e-13,1864.40295 -3.05268467e-13,2009.47114 C-3.14150847e-13,2154.53141 97.1177234,2154.53141 97.1177234,2299.59366 C97.1177234,2444.5082 0.200317116,2444.65773 0.000309990421,2589.2755 C-3.40794133e-13,2589.35031 2.5823348e-05,2589.42508 7.74434131e-05,2589.4998 C2.5823348e-05,2589.57453 -3.40794133e-13,2589.64929 -3.40798714e-13,2589.7241 C0.200317116,2734.34187 97.1177234,2734.4914 97.1177234,2879.40595 C97.1177234,3024.4682 -3.14150847e-13,3024.4682 -3.05268467e-13,3169.52847 C-2.96385603e-13,3314.59666 97.1177234,3314.59666 97.1177234,3459.66485 C97.1177234,3604.73106 -2.78619994e-13,3604.73106 -2.69737251e-13,3749.79727 C-2.60854507e-13,3894.86348 97.1177234,3894.86348 97.1177234,4039.93167 C97.1177234,4184.9959 -2.4308902e-13,4184.9959 -2.34206277e-13,4330.06211 C-2.25323291e-13,4475.13228 97.1177234,4475.13228 97.1177234,4620.19849 C97.1177234,4765.27658 -2.07557076e-13,4765.27658 -1.98673726e-13,4910.3527 C-1.97791078e-13,4924.76744 0.958783857,4937.74994 2.68582225,4949.58481 C4.74081101,4962.02138 7.63176402,4974.17591 11.299028,4985.98875 Z" id="Combined-Shape-Copy" fill="#FF141D"></path>
    </g>
</svg>