<?xml version="1.0" encoding="utf-8"?>
<!-- Generator: Adobe Illustrator 20.0.0, SVG Export Plug-In . SVG Version: 6.00 Build 0)  -->
<svg version="1.1" id="Layer_1" xmlns="http://www.w3.org/2000/svg" xmlns:xlink="http://www.w3.org/1999/xlink" x="0px" y="0px"
	 viewBox="0 0 456 456" style="enable-background:new 0 0 456 456;" xml:space="preserve">
<style type="text/css">
	.fb-icon-blue{fill:#000056;}
</style>
<g>
	<path class="fb-icon-blue" d="M370.5,0c23.6,0,43.7,8.4,60.4,25.1C447.6,41.8,456,61.9,456,85.5v285c0,23.6-8.4,43.7-25.1,60.4
		c-16.7,16.7-36.9,25.1-60.4,25.1h-55.8V279.4h59.1l8.9-68.9h-68v-43.9c0-11.1,2.3-19.4,7-24.9c4.7-5.5,13.7-8.3,27.2-8.3L385,133
		V71.5c-12.5-1.8-30.1-2.7-52.8-2.7c-26.9,0-48.4,7.9-64.6,23.7c-16.1,15.8-24.2,38.2-24.2,67.1v50.8h-59.4v68.9h59.4V456H85.5
		c-23.6,0-43.7-8.4-60.4-25.1C8.4,414.2,0,394.1,0,370.5v-285c0-23.6,8.4-43.7,25.1-60.4C41.8,8.4,61.9,0,85.5,0H370.5z"/>
</g>
</svg>
