<svg class="instagram-icon" id="Layer_1" data-name="Layer 1" xmlns="http://www.w3.org/2000/svg" xmlns:xlink="http://www.w3.org/1999/xlink"
	viewBox="0 0 456.26 456.27">
	<defs>
		<style>
			.cls-1{
				fill:none;
			}
			.cls-2{
				clip-path:url(#clip-path);
			}.cls-3{
				fill:#fff;
			}
		</style>
		<clipPath id="clip-path">
			<rect class="cls-1" width="456.28" height="456.28"/>
		</clipPath>
	</defs>
	<title>instagram-icon-white</title>
	<g class="cls-2">
		<path class="cls-3" d="M228.14,41.14c60.92,0,68.13.23,92.19,1.33,22.24,1,34.32,4.73,42.36,7.86A75.55,75.55,0,0,1,406,93.63c3.12,8,6.84,20.12,7.86,42.36,1.09,24,1.29,31.23,1.29,92.15s-.23,68.13-1.33,92.19c-1,22.24-4.73,34.32-7.86,42.36a75.55,75.55,0,0,1-43.3,43.3c-8,3.12-20.12,6.84-42.36,7.85-24,1.1-31.23,1.3-92.15,1.3s-68.13-.23-92.19-1.33c-22.24-1-34.32-4.73-42.36-7.85a75.55,75.55,0,0,1-43.3-43.3c-3.12-8-6.84-20.12-7.86-42.36-1.09-24-1.29-31.24-1.29-92.16s.23-68.13,1.33-92.19c1-22.24,4.73-34.32,7.86-42.36a70.7,70.7,0,0,1,17-26.23A70.69,70.69,0,0,1,93.59,50.29c8-3.12,20.12-6.84,42.36-7.86,24.06-1.09,31.28-1.29,92.19-1.29m0-41.11c-62,0-69.73.26-94.06,1.37S93.21,6.4,78.7,12A111.81,111.81,0,0,0,38.29,38.29,111.83,111.83,0,0,0,12,78.7c-5.64,14.51-9.5,31.1-10.6,55.38S0,166.14,0,228.14s.26,69.73,1.37,94.06,5,40.87,10.6,55.38A116.65,116.65,0,0,0,78.69,444.3c14.51,5.64,31.09,9.5,55.38,10.6s32.1,1.37,94.06,1.37,69.73-.26,94.06-1.37,40.87-5,55.38-10.6a116.65,116.65,0,0,0,66.72-66.72c5.64-14.51,9.5-31.1,10.6-55.38s1.37-32.1,1.37-94.06-.26-69.73-1.37-94.06-5-40.87-10.6-55.38A111.83,111.83,0,0,0,418,38.29,111.81,111.81,0,0,0,377.57,12c-14.51-5.64-31.09-9.5-55.38-10.6s-32-1.38-94-1.38"/>
		<path class="cls-3" d="M228.14,111A117.15,117.15,0,1,0,345.29,228.14h0A117.15,117.15,0,0,0,228.14,111m0,193.15a76,76,0,1,1,76-76,76,76,0,0,1-76,76"/>
		<path class="cls-3" d="M377.3,106.36A27.38,27.38,0,1,1,349.92,79a27.38,27.38,0,0,1,27.38,27.38h0"/>
	</g>
</svg>
