<?xml version="1.0" encoding="utf-8"?>
<!-- Generator: Adobe Illustrator 22.1.0, SVG Export Plug-In . SVG Version: 6.00 Build 0)  -->
<svg version="1.1" id="Layer_1" xmlns="http://www.w3.org/2000/svg" xmlns:xlink="http://www.w3.org/1999/xlink" x="0px" y="0px"
	 viewBox="0 0 218 183" style="enable-background:new 0 0 218 183;" xml:space="preserve">
<style type="text/css">
	.st0{fill:#FFFFFF;}
	.st1{fill:#6B41FB;}
</style>
<title>Logo</title>
<desc>Created with Sketch.</desc>
<g>
	<rect y="61.9" width="218" height="59.2"/>
	<g>
		<path class="st0" d="M19.5,111.2h-8.1v-32H4.9v-7.5h21.2v7.5h-6.6V111.2z"/>
		<path class="st0" d="M43.2,87.3V71.8h8.1v39.5h-8.1v-17h-6v17h-8.1V71.8h8.1v15.6H43.2z"/>
		<path class="st0" d="M65.5,87.9H75v6.6h-9.5v9.9h12.4v6.9H57.4V71.8h20.5v6.9H65.5V87.9z"/>
		<path class="st0" d="M102.8,111.2h-8.1v-32h-6.5v-7.5h21.2v7.5h-6.6V111.2z"/>
		<path class="st0" d="M125.1,71.8l8.9,39.5h-8.2l-1.6-8.5h-7.8l-1.5,8.5h-7.3l9.1-39.5H125.1z M123.4,96.3l-2.2-10.5
			c-0.4-1.6-0.7-3.1-0.8-6.6c-0.2,1.7-0.5,3.8-0.9,6.3l-2.1,10.9H123.4z"/>
		<path class="st0" d="M136.5,71.8h7.9l6.4,18.1c0.7,1.8,1.2,4.5,1.9,7.8c-0.3-4-0.6-10.1-0.6-12V71.8h6.6v39.5h-6.6l-7.4-20.2
			c-1-2.7-1.8-6-2.3-8.1c0.3,3.6,0.7,10,0.7,11.7v16.6h-6.6V71.8z"/>
		<path class="st0" d="M164.7,71.8h8.1v12.9c0,0.5-0.2,3.1-0.3,4.7c0.2-0.9,0.9-3.3,1.5-4.5l5.9-13.1h7.9l-8,14.6l9.2,24.9h-8.3
			l-5.6-17.8l-2.3,5.3v12.5h-8.1V71.8z"/>
		<path class="st0" d="M205.9,82.9c-0.9-3.8-2.8-4.6-4.5-4.6c-3.3,0-3.4,3.2-3.4,3.8c0,2.9,1.2,3.5,7,6.2c2.4,1.2,7.5,3.6,7.5,11.1
			c0,7.3-4.3,12.5-12,12.5c-9,0-10.9-6.8-11.6-10.7l6.5-2.2c0.9,4.2,2.3,5.8,5.1,5.8c3.7,0,4-3.2,4-4.1c0-2.7-1.8-3.8-3.3-4.5
			c-5-2.5-7.4-3.6-9.1-6.3c-1.1-1.7-1.8-4.1-1.8-6.6c0-6,3.8-12,10.8-12c8.1,0,10.1,6.8,10.8,9.1L205.9,82.9z"/>
	</g>
</g>
<g>
	<rect x="149.8" y="49.2" class="st0" width="68.2" height="12.7"/>
	<g>
		<path class="st1" d="M157.1,55.2c0-0.7-0.2-1.3-1-1.3c-1,0-1.1,1.3-1.1,2c0,0.8,0.1,1.9,1.2,1.9c0.7,0,1-0.6,1-1.1l1.4,0.1
			c-0.1,1.4-1.1,2.2-2.5,2.2c-1.8,0-2.6-1.5-2.6-3.1c0-1.7,0.9-3.1,2.7-3.1c1.5,0,2.3,0.9,2.4,2.3L157.1,55.2z"/>
		<path class="st1" d="M159.9,58c-0.4-0.6-0.6-1.4-0.6-2.2c0-1.6,0.8-3.1,2.6-3.1c0.8,0,1.4,0.3,1.9,0.9c0.4,0.6,0.6,1.4,0.6,2.2
			c0,0.7-0.2,1.5-0.6,2.1c-0.5,0.7-1.2,1-2,1C161,58.9,160.3,58.6,159.9,58z M160.9,54.6c-0.1,0.4-0.2,0.9-0.2,1.2
			c0,0.8,0.1,1.9,1.1,1.9c0.5,0,0.7-0.2,0.9-0.7c0.1-0.4,0.2-0.9,0.2-1.3c0-0.4,0-1-0.2-1.4c-0.2-0.4-0.4-0.6-0.9-0.6
			C161.3,53.9,161.1,54.1,160.9,54.6z"/>
		<path class="st1" d="M168.9,58.8h-1l-1.5-4.9h0v4.9h-1.2v-6h2.2l1,3.6l1.1-3.6h2.2v6h-1.4v-4.9h0L168.9,58.8z"/>
		<path class="st1" d="M174.4,58.8H173v-6h1.4V58.8z"/>
		<path class="st1" d="M180.2,58.8H179l-2.3-4h0v4h-1.1v-6h1.5l2,3.5h0v-3.5h1.1V58.8z"/>
		<path class="st1" d="M183.6,56.7v-1.1h2.5v3.2h-0.6l-0.2-0.7c-0.4,0.5-0.9,0.8-1.6,0.8c-1.8,0-2.5-1.5-2.5-3
			c0-1.6,0.8-3.1,2.6-3.1c1.3,0,2.2,0.8,2.4,2.1l-1.3,0.2c-0.1-0.6-0.4-1.1-1.1-1.1c-1,0-1.1,1.3-1.1,2c0,0.8,0.2,1.9,1.2,1.9
			c0.6,0,1-0.4,1-1H183.6z"/>
		<path class="st1" d="M192.8,54.5c-0.2-0.5-0.5-0.7-1-0.7c-0.4,0-0.8,0.1-0.8,0.6c0,0.4,0.5,0.5,0.9,0.6c0.5,0.1,1.1,0.2,1.6,0.5
			c0.5,0.3,0.8,0.8,0.8,1.4c0,0.6-0.3,1.1-0.7,1.5c-0.5,0.4-1.1,0.5-1.7,0.5c-1.1,0-2.2-0.5-2.4-1.7l1.3-0.3
			c0.2,0.6,0.6,0.8,1.2,0.8c0.4,0,0.9-0.1,0.9-0.6s-0.7-0.6-1-0.7c-1.1-0.2-2.1-0.5-2.1-1.8c0-0.6,0.2-1,0.6-1.4
			c0.4-0.4,1-0.5,1.5-0.5c1,0,1.9,0.4,2.3,1.4L192.8,54.5z"/>
		<path class="st1" d="M195.4,58c-0.4-0.6-0.6-1.4-0.6-2.2c0-1.6,0.8-3.1,2.6-3.1c0.8,0,1.4,0.3,1.9,0.9c0.4,0.6,0.6,1.4,0.6,2.2
			c0,0.7-0.2,1.5-0.6,2.1c-0.5,0.7-1.2,1-2,1C196.5,58.9,195.9,58.6,195.4,58z M196.4,54.6c-0.1,0.4-0.2,0.9-0.2,1.2
			c0,0.8,0.1,1.9,1.1,1.9c0.5,0,0.7-0.2,0.9-0.7c0.1-0.4,0.2-0.9,0.2-1.3c0-0.4,0-1-0.2-1.4c-0.2-0.4-0.4-0.6-0.9-0.6
			C196.9,53.9,196.6,54.1,196.4,54.6z"/>
		<path class="st1" d="M201.2,58c-0.4-0.6-0.6-1.4-0.6-2.2c0-1.6,0.8-3.1,2.6-3.1c0.8,0,1.4,0.3,1.9,0.9c0.4,0.6,0.6,1.4,0.6,2.2
			c0,0.7-0.2,1.5-0.6,2.1c-0.5,0.7-1.2,1-2,1C202.3,58.9,201.6,58.6,201.2,58z M202.2,54.6c-0.1,0.4-0.2,0.9-0.2,1.2
			c0,0.8,0.1,1.9,1.1,1.9c0.5,0,0.7-0.2,0.9-0.7c0.1-0.4,0.2-0.9,0.2-1.3c0-0.4,0-1-0.2-1.4c-0.2-0.4-0.4-0.6-0.9-0.6
			C202.6,53.9,202.4,54.1,202.2,54.6z"/>
		<path class="st1" d="M211.2,58.8H210l-2.3-4h0v4h-1.1v-6h1.5l2,3.5h0v-3.5h1.1V58.8z"/>
		<path class="st1" d="M212.4,52.8h1.7l-0.4,4.2h-0.8L212.4,52.8z M212.5,58.8v-1.4h1.4v1.4H212.5z"/>
	</g>
</g>
</svg>
