<?xml version="1.0" encoding="UTF-8" standalone="no"?>
<svg width="218px" height="183px" viewBox="0 0 218 183" version="1.1" xmlns="http://www.w3.org/2000/svg" xmlns:xlink="http://www.w3.org/1999/xlink">
    <!-- Generator: Sketch 40.1 (33804) - http://www.bohemiancoding.com/sketch -->
    <title>Logo</title>
    <desc>Created with Sketch.</desc>
    <defs></defs>
    <g id="Page-3" stroke="none" stroke-width="1" fill="none" fill-rule="evenodd">
        <g id="Desktop-HD-Copy-31" transform="translate(-1652.000000, -1057.000000)">
            <g id="Logo" transform="translate(1652.000000, 1057.000000)">
                <path d="M214.17307,101.791155 L208.449214,101.791155 L208.449214,31.3416179 C208.449214,30.1250776 207.845647,28.9888388 206.841871,28.3136507 C205.1239,27.1572 164.138274,0 108.885035,0 C53.631796,0 12.6629801,27.1572 10.9466368,28.3136507 C9.9428607,28.9888388 9.33929353,30.1250776 9.33929353,31.3416179 L9.33929353,101.791155 L3.61543781,101.791155 C1.61873134,101.791155 0,103.423406 0,105.434221 L0,179.172842 C0,181.183657 1.61873134,182.815907 3.61543781,182.815907 L214.17307,182.815907 C216.169776,182.815907 217.788507,181.183657 217.788507,179.172842 L217.788507,105.434221 C217.788507,103.423406 216.169776,101.791155 214.17307,101.791155" id="Fill-1" fill="#221F20"></path>
                <path d="M199.641363,101.809728 L18.2230647,101.809728 C17.3250348,101.809728 16.596199,101.07609 16.596199,100.170922 L16.596199,36.7392985 C16.596199,35.8341313 17.3250348,35.1004925 18.2230647,35.1004925 L199.641363,35.1004925 C200.539935,35.1004925 201.268229,35.8341313 201.268229,36.7392985 L201.268229,100.170922 C201.268229,101.07609 200.539935,101.809728 199.641363,101.809728" id="Fill-3" fill="#FEFEFE"></path>
                <path d="M208.941612,175.39594 L8.85828358,175.39594 C7.96025373,175.39594 7.23141791,174.662301 7.23141791,173.757134 L7.23141791,110.836272 C7.23141791,109.931104 7.96025373,109.197466 8.85828358,109.197466 L208.941612,109.197466 C209.840184,109.197466 210.568478,109.931104 210.568478,110.836272 L210.568478,173.757134 C210.568478,174.662301 209.840184,175.39594 208.941612,175.39594" id="Fill-5" fill="#FEFEFE"></path>
                <path d="M53.000301,92.8569313 L48.5822761,92.8569313 C47.8339179,92.8569313 47.2227587,92.2407403 47.2227587,91.4868896 L47.2227587,66.8354239 C47.2227587,65.6024955 46.2027139,64.5755104 44.9793109,64.5755104 C44.0275945,64.5755104 43.2119925,65.1911552 42.8719776,66.0815731 L41.1041169,70.6696836 C40.9007587,71.217591 40.356301,71.4918179 39.8129279,71.4918179 C39.2684701,71.4918179 38.725097,71.217591 38.5211965,70.6696836 L36.7533358,66.0815731 C36.4138632,65.1911552 35.5977189,64.5755104 34.6460025,64.5755104 C33.4220572,64.5755104 32.4025547,65.6024955 32.4025547,66.8354239 L32.4025547,91.4868896 C32.4025547,92.2407403 31.7908532,92.8569313 31.0435796,92.8569313 L26.6244701,92.8569313 C25.8766542,92.8569313 25.2649527,92.2407403 25.2649527,91.4868896 L25.2649527,45.4697642 C25.2649527,44.7164597 25.8766542,44.0997224 26.6244701,44.0997224 L31.4508383,44.0997224 C31.995296,44.0997224 32.5386692,44.4422328 32.7425697,44.9906866 L39.8129279,63.2054687 L46.8822015,44.9906866 C47.0866443,44.4422328 47.6300174,44.0997224 48.1739328,44.0997224 L53.000301,44.0997224 C53.7486592,44.0997224 54.3598184,44.7164597 54.3598184,45.4697642 L54.3598184,91.4868896 C54.3598184,92.2407403 53.7486592,92.8569313 53.000301,92.8569313" id="Fill-7" fill="#221F20"></path>
                <path d="M78.3921493,78.3392955 L76.4887164,69.985209 C76.2848159,68.9582239 75.3330995,68.1366358 74.2452687,68.1366358 C73.1579801,68.1366358 72.2062637,68.9582239 72.0018209,69.985209 L70.0989303,78.3392955 C70.030602,78.5446925 70.030602,78.681806 70.030602,78.887203 C70.030602,80.1201313 71.0506468,81.1471164 72.3423781,81.1471164 L76.2164876,81.1471164 C77.4404328,81.1471164 78.4599353,80.1201313 78.4599353,78.887203 C78.4599353,78.681806 78.4599353,78.5446925 78.3921493,78.3392955 M87.0931692,92.8569313 L82.7429303,92.8569313 C82.0629005,92.8569313 81.5867711,92.3773075 81.451199,91.7611164 L81.043398,90.0496567 C80.8394975,89.090409 80.0238955,88.3371045 78.9355224,88.3371045 L69.6905871,88.3371045 C68.6027562,88.3371045 67.6515821,89.090409 67.4471393,90.0496567 L67.0393383,91.7611164 C66.9037662,92.3773075 66.4276368,92.8569313 65.7481493,92.8569313 L61.4651542,92.8569313 C60.7173383,92.8569313 60.1734229,92.1724567 60.1734229,91.4868896 L60.1734229,91.2137552 L70.438403,45.1960836 C70.5745174,44.5793463 71.1862189,44.0997224 71.7979204,44.0997224 L76.6926169,44.0997224 C77.3043184,44.0997224 77.9160199,44.5793463 78.0521343,45.1960836 L88.3849005,91.2137552 L88.3849005,91.5557194 C88.3849005,92.2407403 87.8409851,92.8569313 87.0931692,92.8569313" id="Fill-9" fill="#221F20"></path>
                <path d="M121.194985,92.8569313 L117.048104,92.8569313 C116.504731,92.8569313 116.028602,92.5144209 115.824159,92.0353433 L105.62805,69.8480955 C105.287493,69.0265075 104.471891,68.4786 103.58796,68.4786 C102.364015,68.4786 101.344512,69.5055851 101.344512,70.7379672 L101.344512,91.4868896 C101.344512,92.2407403 100.732811,92.8569313 99.9855373,92.8569313 L95.5664279,92.8569313 C94.8186119,92.8569313 94.2069104,92.2407403 94.2069104,91.4868896 L94.2069104,45.4697642 C94.2069104,44.7164597 94.8186119,44.0997224 95.5664279,44.0997224 L99.9855373,44.0997224 C100.732811,44.0997224 101.344512,44.7164597 101.344512,45.4697642 L101.344512,60.6718746 C101.344512,61.9042567 102.364015,62.9317881 103.58796,62.9317881 C104.471891,62.9317881 105.15192,62.315597 105.62805,61.5622925 L115.756373,44.7852896 C116.028602,44.3739493 116.436403,44.0997224 116.91199,44.0997224 L120.922756,44.0997224 C121.671114,44.0997224 122.282274,44.7852896 122.282274,45.4697642 C122.282274,45.6751612 122.214488,45.9493881 122.078373,46.1547851 L111.065577,64.5066806 C110.930005,64.7126239 110.862219,64.9857582 110.862219,65.1911552 C110.862219,65.3970985 110.930005,65.6024955 110.998333,65.8078925 L122.418388,90.9395284 C122.486174,91.1449254 122.554502,91.2814925 122.554502,91.4868896 C122.554502,92.1724567 121.942259,92.8569313 121.194985,92.8569313" id="Fill-11" fill="#221F20"></path>
                <path d="M156.260448,92.8569313 L129.884617,92.8569313 C129.136259,92.8569313 128.524557,92.2407403 128.524557,91.4868896 L128.524557,45.4697642 C128.524557,44.7164597 129.136259,44.0997224 129.884617,44.0997224 L156.260448,44.0997224 C157.008264,44.0997224 157.619965,44.7164597 157.619965,45.4697642 L157.619965,49.8524776 C157.619965,50.6057821 157.008264,51.2219731 156.260448,51.2219731 L135.662159,51.2219731 L135.662159,64.9180209 L149.802333,64.9180209 C150.550149,64.9180209 151.161851,65.5342119 151.161851,66.2869701 L151.161851,70.6696836 C151.161851,71.4235343 150.550149,72.0391791 149.802333,72.0391791 L135.662159,72.0391791 L135.662159,85.7346806 L156.260448,85.7346806 C157.008264,85.7346806 157.619965,86.3514179 157.619965,87.1047224 L157.619965,91.4868896 C157.619965,92.2407403 157.008264,92.8569313 156.260448,92.8569313" id="Fill-13" fill="#221F20"></path>
                <path d="M178.832667,51.2219185 L170.742806,51.2219185 L170.742806,64.9179663 L178.492652,64.9179663 C182.231731,64.9179663 185.561925,61.8359185 185.561925,58.0699424 C185.561925,54.30342 182.571204,51.2219185 178.832667,51.2219185 M181.551701,71.7654439 L191.612781,90.8711901 C192.088368,91.7610618 191.408881,92.8568767 190.457164,92.8568767 L186.378612,92.8568767 C185.834154,92.8568767 185.426896,92.5826499 185.154667,92.1035722 L175.229701,73.4091663 C174.821358,72.6553155 174.005756,72.0391245 173.122368,72.0391245 C171.830637,72.0391245 170.742806,73.1349394 170.742806,74.4361513 L170.742806,91.4868349 C170.742806,92.2406857 170.131104,92.8568767 169.383289,92.8568767 L164.964179,92.8568767 C164.216905,92.8568767 163.605204,92.2406857 163.605204,91.4868349 L163.605204,45.4697096 C163.605204,44.7164051 164.216905,44.0996678 164.964179,44.0996678 L178.492652,44.0996678 C186.174169,44.0996678 192.700612,50.3320469 192.700612,58.0699424 C192.700612,64.8491364 187.873701,70.4642319 181.551701,71.7654439" id="Fill-15" fill="#221F20"></path>
                <path d="M46.8050338,124.936558 L23.0240537,124.936558 L23.0240537,138.632606 L46.4650189,138.632606 C50.2040985,138.632606 53.5348348,135.550558 53.5348348,131.784582 C53.5348348,128.01806 50.5441134,124.936558 46.8050338,124.936558 M46.8050338,145.75431 L23.0240537,145.75431 L23.0240537,165.202021 C23.0240537,165.955325 22.4123522,166.571516 21.6645363,166.571516 L17.2459692,166.571516 C16.4981532,166.571516 15.8864517,165.955325 15.8864517,165.202021 L15.8864517,119.184349 C15.8864517,118.431045 16.4981532,117.814854 17.2459692,117.814854 L46.4650189,117.814854 C54.1465363,117.814854 60.6729791,124.046687 60.6729791,131.784582 C60.6729791,139.523024 54.4870935,145.75431 46.8050338,145.75431" id="Fill-17" fill="#221F20"></path>
                <path d="M84.5037413,152.17406 L79.7153333,129.86117 C79.5146866,128.852758 78.5933383,128.042096 77.5304527,128.013143 C77.5109303,128.012597 77.4431443,128.012597 77.4290448,128.012597 C76.3591095,128.033901 75.4296269,128.847296 75.2284378,129.86117 L70.4394876,152.17406 C70.3717015,152.379457 70.3717015,152.51657 70.3717015,152.721967 C70.3717015,153.954896 71.391204,154.981881 72.6829353,154.981881 L82.3286219,154.981881 C83.5520249,154.981881 84.5720697,153.954896 84.5720697,152.721967 C84.5720697,152.51657 84.5720697,152.379457 84.5037413,152.17406 M93.2053035,166.691696 L88.8545224,166.691696 C88.1750348,166.691696 87.6989055,166.212072 87.562791,165.595881 L87.1555323,163.884421 C86.9510896,162.925173 86.1349453,162.171869 85.048199,162.171869 L70.0316866,162.171869 C68.9438557,162.171869 67.9921393,162.925173 67.7882388,163.884421 L67.3798955,165.595881 C67.2448657,166.212072 66.7687363,166.691696 66.0892488,166.691696 L61.8062537,166.691696 C61.0578955,166.691696 60.5145224,166.007221 60.5145224,165.321654 L60.5145224,165.048519 L70.7789602,119.030848 C70.9150746,118.41411 71.5273184,117.934487 72.1390199,117.934487 L82.8047512,117.934487 C83.4159104,117.934487 84.0276119,118.41411 84.1637264,119.030848 L94.4970348,165.048519 L94.4970348,165.390484 C94.4970348,166.075504 93.9525771,166.691696 93.2053035,166.691696" id="Fill-19" fill="#221F20"></path>
                <path d="M142.130577,125.056737 L107.350358,125.056737 L107.350358,138.752785 L141.790562,138.752785 C145.529642,138.752785 148.860378,135.670737 148.860378,131.904761 C148.860378,128.138239 145.869114,125.056737 142.130577,125.056737 M144.849612,145.600263 L154.910692,164.706009 C155.386279,165.595881 154.706791,166.691696 153.755075,166.691696 L149.676522,166.691696 C149.132065,166.691696 148.724806,166.417469 148.452577,165.938391 L138.527612,147.243985 C138.119269,146.490134 137.303667,145.873943 136.420279,145.873943 C136.401299,145.873943 109.692502,145.87449 109.674065,145.875036 C108.406736,145.905627 107.350358,146.988878 107.350358,148.27097 L107.350358,165.321654 C107.350358,166.075504 106.739199,166.691696 105.990841,166.691696 L101.572274,166.691696 C100.824458,166.691696 100.212756,166.075504 100.212756,165.321654 L100.212756,119.304528 C100.212756,118.551224 100.824458,117.934487 101.572274,117.934487 L141.790562,117.934487 C149.47208,117.934487 155.998522,124.166319 155.998522,131.904761 C155.998522,138.683955 151.171612,144.299051 144.849612,145.600263" id="Fill-21" fill="#221F20"></path>
                <path d="M200.565423,166.691696 L196.418542,166.691696 C195.874627,166.691696 195.39904,166.349185 195.195139,165.870107 L184.997945,143.68286 C184.658473,142.861272 183.842871,142.313364 182.958398,142.313364 C182.924776,142.313364 170.806254,142.31391 170.772632,142.315549 C169.595323,142.370176 168.630592,143.374764 168.630592,144.572731 L168.630592,165.321654 C168.630592,166.075504 168.019433,166.691696 167.271617,166.691696 L162.85305,166.691696 C162.104692,166.691696 161.49299,166.075504 161.49299,165.321654 L161.49299,119.304528 C161.49299,118.551224 162.104692,117.934487 162.85305,117.934487 L167.271617,117.934487 C168.019433,117.934487 168.630592,118.551224 168.630592,119.304528 L168.630592,134.506639 C168.630592,135.704606 169.594781,136.708648 170.77209,136.763821 C170.805711,136.76546 182.924234,136.766552 182.958398,136.766552 C183.842871,136.766552 184.522358,136.150361 184.997945,135.397057 L195.126811,118.619507 C195.39904,118.208713 195.807383,117.934487 196.28297,117.934487 L200.293194,117.934487 C201.041552,117.934487 201.653254,118.619507 201.653254,119.304528 C201.653254,119.509925 201.584925,119.784152 201.448811,119.989549 L190.4371,138.341445 C190.300985,138.547388 190.232657,138.820522 190.232657,139.025919 C190.232657,139.231863 190.300985,139.43726 190.368771,139.642657 L201.789368,164.774293 C201.857154,164.97969 201.92494,165.116257 201.92494,165.321654 C201.92494,166.007221 201.313781,166.691696 200.565423,166.691696" id="Fill-23" fill="#221F20"></path>
                <path d="M108.885035,7.28673224 C75.0668358,7.28673224 46.3808557,18.170589 29.91101,26.1395561 C29.1295721,26.517574 29.394209,27.6986069 30.2607861,27.6986069 L187.495726,27.6986069 C188.362846,27.6986069 188.627483,26.5170278 187.845502,26.1390099 C171.348542,18.1694964 142.638701,7.28673224 108.885035,7.28673224" id="Fill-25" fill="#FEFEFE"></path>
            </g>
        </g>
    </g>
</svg>
