<?xml version="1.0" encoding="utf-8"?>
<!-- Generator: Adobe Illustrator 21.1.0, SVG Export Plug-In . SVG Version: 6.00 Build 0)  -->
<svg version="1.1" xmlns="http://www.w3.org/2000/svg" xmlns:xlink="http://www.w3.org/1999/xlink" x="0px" y="0px"
	 viewBox="0 0 353.1 106.8" style="enable-background:new 0 0 353.1 106.8;" xml:space="preserve">
<style type="text/css">
	.st0{fill-rule:evenodd;clip-rule:evenodd;fill:#1B1852;}
</style>
<g id="Background">
</g>
<g id="Guides">
</g>
<g id="Foreground">
	<g>
		<path class="st0" d="M267.2,71.2c0,19.6-16.3,35.6-35.9,35.6c-19.6,0-35.6-15.9-35.6-35.6V19c0-8.4-7.4-8.5-7.4-8.5l0-3h30.4l0,3
			c0,0-7.5,0.1-7.5,8.3l0,55.8c0,11.9,9.6,21.5,21.5,21.5c11.8,0,21.2-9.6,21.2-21.5c0-13,0-55.5,0-55.5c0-8.5-7.7-8.6-7.7-8.6l0-3
			h28.5l0,3c0,0-7.5,0.1-7.5,8.6V71.2z"/>
		<path class="st0" d="M125.1,17.8l0,73.4c0,10.3,8.5,10.2,8.5,10.2l0,3.1l-30.8,0l0-3.1c0,0,6.8,0.1,6.8-9.5V19
			c0-8.4-8.3-8.5-8.3-8.5l0-3l28.5,0c21.6,0,31.5,9.1,35,18.7c3.4,9.2,1.7,20.6-5.7,28.1c-3.7,3.7-8.6,5.6-8.6,5.6s2.2,1,6.7,6.6
			c0,0,14.1,18.5,21.2,26.8c4.5,5.1,9.3,8.1,15.9,8l0.5,2.2c-7.4,4.1-16.1,4.4-23.5-0.4c-13.7-9-25-30.6-30.8-36.4
			c-6.1-6.1-10.2-6.3-10.2-6.3l0.4-2.7c1.8,0.3,12,0.3,17.7-5.1c5.7-5.4,9-19-0.8-29.4C139,14.1,126.5,16.6,125.1,17.8z"/>
		<path class="st0" d="M31.7,63.9h23.9L42.4,32.8L31.7,63.9z M43.2,0l42.9,95.7c3.2,5.8,8.1,5.7,8.1,5.7l0,3.1H62.4l0-3.1
			c0,0,9.4,0.1,5.1-9.4l-8.7-20.5H28.9l-7.3,21c-3.3,8.9,5.4,8.9,5.4,8.9v3.1H0l0-3.1c0,0,6-0.1,9.3-9.3L43.2,0z"/>
		<path class="st0" d="M311.3,17.8l0,73.8c0,9.9,8,9.8,8,9.8l0,3.1l-30.7,0l0-3.1c0,0,7,0.1,7-9.4l-0.1-73c0-8.4-7.5-8.5-7.5-8.5
			l0-3l28,0c21.6,0,31.8,9,35.2,18.7c5.1,14.4-1.4,24.8-7,29.9c-13.8,12.6-27.8,2-27.8,2l0.5-2c1.8,0.3,12,1.9,17.7-3.5
			c5.7-5.4,9-19-0.8-29.4C325.2,14.1,312.7,16.6,311.3,17.8z"/>
	</g>
</g>
</svg>
