<?xml version="1.0" encoding="utf-8"?>
<!-- Generator: Adobe Illustrator 22.1.0, SVG Export Plug-In . SVG Version: 6.00 Build 0)  -->
<svg version="1.1" id="Layer_1" xmlns="http://www.w3.org/2000/svg" xmlns:xlink="http://www.w3.org/1999/xlink" x="0px" y="0px"
	 viewBox="0 0 171 80" style="enable-background:new 0 0 171 80;" xml:space="preserve">
<style type="text/css">
	.st0{fill:#000056;}
</style>
<g>
	<g>
		<g>
			<path class="st0" d="M54.6,20.7c-5,0-8.8,3.9-8.8,8.8c0,4.7,3.9,8.6,8.7,8.6c1.5,0,3.1-0.4,4.4-1.2l0.2-0.1v-3.2L58.5,34
				c-1.1,1-2.6,1.6-4.1,1.6c-3.3,0-6-2.8-6-6.2c0-3.4,2.7-6.2,6-6.2c1.5,0,3,0.6,4,1.5l0.5,0.5v-3.2l-0.2-0.1
				C57.6,21.1,56.2,20.7,54.6,20.7z"/>
			<path class="st0" d="M70,20.7c-4.8,0-8.7,3.9-8.7,8.7c0,4.9,3.8,8.7,8.7,8.7c4.9,0,8.7-3.8,8.7-8.7C78.7,24.6,74.8,20.7,70,20.7z
				 M70,35.6c-3.4,0-6.1-2.8-6.1-6.2c0-3.5,2.6-6.2,6.1-6.2c3.5,0,6.1,2.7,6.1,6.2C76.1,32.8,73.4,35.6,70,35.6z"/>
			<polygon class="st0" points="91.7,37.7 91.7,35.3 83.8,35.3 92,21 80.9,21 80.9,23.5 87.6,23.5 79.5,37.7 			"/>
			<polygon class="st0" points="103.9,35.3 97.3,35.3 97.3,29.8 103.8,29.8 103.8,27.4 97.3,27.4 97.3,23.5 103.9,23.5 103.9,21 
				94.7,21 94.7,37.7 103.9,37.7 			"/>
			<polygon class="st0" points="109.9,26.8 121.9,38.2 121.9,21 119.3,21 119.3,31.9 107.3,20.5 107.3,37.7 109.9,37.7 			"/>
		</g>
		<g>
			<polygon class="st0" points="66.8,40.6 64.1,47.8 65.9,48.5 69.3,41.7 			"/>
			<g>
				<path class="st0" d="M54.5,43.9c-4.8,0-8.7,3.9-8.7,8.7c0,4.9,3.8,8.7,8.7,8.7c4.9,0,8.7-3.8,8.7-8.7
					C63.2,47.8,59.3,43.9,54.5,43.9z M54.5,58.7c-3.4,0-6.1-2.8-6.1-6.2c0-3.5,2.6-6.2,6.1-6.2c3.5,0,6.1,2.7,6.1,6.2
					C60.6,56,57.9,58.7,54.5,58.7z"/>
				<path class="st0" d="M76.7,43.9c-5,0-8.8,3.8-8.8,8.8c0,4.7,3.9,8.6,8.7,8.6c1.5,0,3.1-0.4,4.4-1.2l0.2-0.1v-3.2l-0.5,0.5
					c-1.1,1-2.6,1.6-4.1,1.6c-3.3,0-6-2.8-6-6.2c0-3.4,2.7-6.2,6-6.2c1.5,0,3,0.6,4,1.5l0.5,0.5v-3.2L80.9,45
					C79.7,44.3,78.2,43.9,76.7,43.9z"/>
				<path class="st0" d="M92.1,43.9c-4.8,0-8.7,3.9-8.7,8.7c0,4.9,3.8,8.7,8.7,8.7c4.9,0,8.7-3.8,8.7-8.7
					C100.8,47.8,96.9,43.9,92.1,43.9z M92.1,58.7c-3.4,0-6.1-2.8-6.1-6.2c0-3.5,2.6-6.2,6.1-6.2c3.5,0,6.1,2.7,6.1,6.2
					C98.2,56,95.4,58.7,92.1,58.7z"/>
				<polygon class="st0" points="115.6,55 103.6,43.7 103.6,60.9 106.2,60.9 106.2,50 118.2,61.3 118.2,44.2 115.6,44.2 				"/>
				<polygon class="st0" points="134,55 121.9,43.7 121.9,60.9 124.5,60.9 124.5,50 136.6,61.3 136.6,44.2 134,44.2 				"/>
				<path class="st0" d="M148.1,43.9c-4.8,0-8.7,3.9-8.7,8.7c0,4.9,3.8,8.7,8.7,8.7c4.9,0,8.7-3.8,8.7-8.7
					C156.8,47.8,152.9,43.9,148.1,43.9z M148.1,58.7c-3.4,0-6.1-2.8-6.1-6.2c0-3.5,2.6-6.2,6.1-6.2c3.5,0,6.1,2.7,6.1,6.2
					C154.2,56,151.4,58.7,148.1,58.7z"/>
				<path class="st0" d="M169.1,49.1c0-1.7-0.9-3.3-2.3-4.1c-1.4-0.8-3.1-0.8-4.4-0.8h-2.7v16.7h2.6v-6.8h0.4l4.7,6.8h3.2l-5.1-7.1
					C167.7,53.3,169.1,51.5,169.1,49.1z M166.6,49.2c0,1.8-1.2,2.6-3.9,2.6h-0.3v-5.2h0.2C165.4,46.6,166.6,47.4,166.6,49.2z"/>
			</g>
		</g>
	</g>
	<g>
		<path class="st0" d="M38.8,38.2c-1.2-3.6-5.1-5.8-9.4-7.2c2.7,1.8,5,4.1,5.6,7c0.6,2.7-0.9,5.5-4.5,8.2l-4.6,2.8
			c-0.1,0.1-3.8,2-3.1,5.9l0.7,3.3C29.1,55.9,42.7,49.3,38.8,38.2z"/>
		<path class="st0" d="M1.4,48.6C3.8,55.5,12.7,59,20.9,60.8c-5.6-2.8-11.1-6.8-12.4-12.3c-1.1-5.2,3.6-10.6,13.4-15.4
			c1.9-1.1,4.8-3.6,4.3-7.7L24.8,19C17.4,21.7-4.6,31.5,1.4,48.6z"/>
	</g>
</g>
</svg>
