<?xml version="1.0" encoding="utf-8"?>
<!-- Generator: Adobe Illustrator 21.1.0, SVG Export Plug-In . SVG Version: 6.00 Build 0)  -->
<svg version="1.1" id="Layer_1" xmlns="http://www.w3.org/2000/svg" xmlns:xlink="http://www.w3.org/1999/xlink" x="0px" y="0px"
	 viewBox="0 0 576 225.1" style="enable-background:new 0 0 576 225.1;" xml:space="preserve">
<style type="text/css">
	.st0{fill:#1B1852;}
</style>
<g>
	<g>
		<path class="st0" d="M12.9,1.5h13.7v32h0.2l23.1-32H66L38.1,37.9L66,75.5H49.9L26.8,43h-0.2v32.5H12.9V1.5z"/>
		<path class="st0" d="M81.1,1.5h39.8v12.8H94.8v18.1h25v12.8h-25v17.5h26.1v12.8H81.1V1.5z"/>
		<path class="st0" d="M143,1.5h15.6l30.6,53.8h0.2V1.5h13.7v74h-15.3l-30.9-53.8h-0.2v53.8H143V1.5z"/>
		<path class="st0" d="M271.6,54.3c0.7,7.4,5.6,9.9,9.8,9.9c5.4,0,10.2-3.7,10.2-9.3c0-7.6-4.9-9-14.1-12.5
			c-5.7-2.2-17.6-5.7-17.6-21.3c0-11.8,9.2-21.1,21.7-21.1c8.6,0,21.2,6,21.9,21.1h-14c-0.6-6.6-4.6-8.3-8.3-8.3
			c-4.3,0-7.6,3.1-7.6,7.5c0,6.4,4.8,7.8,12.3,10.3c6.1,2,19.4,6.7,19.4,22.8c0,16-12.4,23.6-24,23.6c-9.5,0-23.3-6.4-24.1-22.7
			H271.6z"/>
		<path class="st0" d="M323.3,1.5h19l19.7,56h0.2l19.5-56h19v74H387V20h-0.1h-0.2l-18.9,55.5h-11.6l-19-55.5H337v55.5h-13.7V1.5z"/>
		<path class="st0" d="M423.2,1.5h13.7v74h-13.7V1.5z"/>
		<path class="st0" d="M467.3,14.3h-13.7V1.5h41.2v12.8H481v61.2h-13.7V14.3z"/>
	</g>
	<g>
		<path class="st0" d="M511.1,1.5h13.7v30.1h26.5V1.5H565v74h-13.7V44.4h-26.5v31.1h-13.7V1.5z"/>
	</g>
	<g>
		<path class="st0" d="M467,132.8c-13.9,0-25,11.6-25,25.8c0,13.7,10.9,25.6,25,25.6c14.1,0,25-11.9,25-25.6
			C492,144.4,480.9,132.8,467,132.8z"/>
		<path class="st0" d="M227.1,145.5c0-4.1-2.5-11.2-13.2-11.2h-8.8v22.6h8.8C225.2,156.9,227.1,149.4,227.1,145.5z"/>
		<path class="st0" d="M143,132.8c-13.9,0-25,11.6-25,25.8c0,13.7,10.9,25.6,25,25.6c14.1,0,25-11.9,25-25.6
			C168,144.4,156.9,132.8,143,132.8z"/>
		<path class="st0" d="M0,95.5v129.6h576V95.5H0z M79.4,195.5H68.5l-12-48.9h-0.2l-12.2,48.9H33.3l-21.6-74h14l12.8,51.7h0.2
			l12.7-51.7h10l12.4,51.7H74l12.9-51.7h14L79.4,195.5z M143,197c-21.3,0-38.7-17.1-38.7-38.3c0-21.9,17.7-38.7,38.7-38.7
			c21,0,38.7,16.8,38.7,38.7C181.7,179.9,164.3,197,143,197z M224.9,195.5l-19.6-28.3h-0.2v28.3h-13.7v-74h22.7c8.5,0,13.8,1.6,18,5
			s8.7,9.4,8.7,17.9c0,4.9-1.8,12.6-7.1,17.7c-4.4,4.2-8.6,5.2-12.3,6.1l20.1,27.3H224.9z M305,195.5h-16.1L265.8,163h-0.2v32.5
			h-13.7v-74h13.7v32h0.2l23.1-32H305l-27.9,36.4L305,195.5z M330.3,197c-9.5,0-23.3-6.4-24.1-22.7h14.4c0.7,7.4,5.6,9.9,9.8,9.9
			c5.4,0,10.2-3.7,10.2-9.3c0-7.6-4.9-9-14.1-12.5c-5.7-2.2-17.6-5.7-17.6-21.3c0-11.8,9.2-21.1,21.7-21.1c8.6,0,21.2,6,21.9,21.1
			h-14c-0.6-6.6-4.6-8.3-8.3-8.3c-4.3,0-7.6,3.1-7.6,7.5c0,6.4,4.8,7.8,12.3,10.3c6.1,2,19.4,6.7,19.4,22.8
			C354.3,189.4,341.9,197,330.3,197z M418,195.5h-13.7v-31.1h-26.5v31.1h-13.7v-74h13.7v30.1h26.5v-30.1H418V195.5z M467,197
			c-21.3,0-38.7-17.1-38.7-38.3c0-21.9,17.7-38.7,38.7-38.7c21,0,38.7,16.8,38.7,38.7C505.7,179.9,488.3,197,467,197z M556.5,161.4
			c-7,5.9-13.8,5.9-21.7,5.9h-4.9v28.2h-13.7v-74h18.6c7.9,0,14.7,0,21.7,5.9c4.8,4.4,7,10.1,7,17S561.3,157,556.5,161.4z"/>
		<path class="st0" d="M534.8,134.3h-4.9v20.2h4.4c5.9,0,15.5-0.4,15.5-10.1S540.4,134.3,534.8,134.3z"/>
	</g>
</g>
</svg>
