<?xml version="1.0" encoding="utf-8"?>
<!-- Generator: Adobe Illustrator 21.1.0, SVG Export Plug-In . SVG Version: 6.00 Build 0)  -->
<svg version="1.1" xmlns="http://www.w3.org/2000/svg" xmlns:xlink="http://www.w3.org/1999/xlink" x="0px" y="0px"
	 viewBox="0 0 171 80" style="enable-background:new 0 0 171 80;" xml:space="preserve">
<style type="text/css">
	.st0{display:none;}
	.st1{display:inline;fill:#231F20;}
	.st2{display:inline;}
	.st3{fill:#FFFFFF;}
	.st4{fill:#000056;}
</style>
<g id="_x31_71x80_BW" class="st0">
	<rect x="0" class="st1" width="171" height="80"/>
	<g class="st2">
		<path class="st3" d="M27.6,32.1H31v3.2h0.1c1.6-2.5,4.1-3.7,7.1-3.7c2.7,0,5.1,1.1,6,3.7c1.5-2.3,4.1-3.7,6.8-3.7
			c4.4,0,7.3,1.8,7.3,6.3v16h-3.6V39.6c0-2.7-0.7-4.9-4.2-4.9c-3.5,0-5.7,2.2-5.7,5.6V54h-3.6V39.6c0-2.8-0.9-4.9-4.1-4.9
			c-4.3,0-5.8,3.9-5.8,5.6V54h-3.6V32.1z"/>
		<path class="st3" d="M80.7,53.9c-0.6,0.4-1.4,0.6-2.6,0.6c-1.9,0-3-1-3-3.4c-2,2.3-4.6,3.4-7.7,3.4c-4,0-7.2-1.8-7.2-6.1
			c0-4.9,3.7-6,7.4-6.7c4-0.8,7.4-0.5,7.4-3.2c0-3.1-2.6-3.6-4.9-3.6c-3,0-5.3,0.9-5.5,4.1H61c0.2-5.4,4.4-7.3,9.3-7.3
			c3.9,0,8.2,0.9,8.2,6v11.2c0,1.7,0,2.5,1.1,2.5c0.3,0,0.6,0,1.1-0.2V53.9z M74.8,42.7c-1.4,1-4.1,1.1-6.5,1.5
			c-2.4,0.4-4.4,1.3-4.4,3.9c0,2.4,2,3.2,4.2,3.2c4.7,0,6.7-3,6.7-4.9V42.7z"/>
		<path class="st3" d="M81.6,32.1H85v3.5h0.1c1.5-2.7,4-4,7.1-4c5.7,0,7.5,3.3,7.5,8V54h-3.6V39.2c0-2.7-1.7-4.4-4.4-4.4
			c-4.4,0-6.5,2.9-6.5,6.8V54h-3.6V32.1z"/>
		<path class="st3" d="M122.1,53.9c-0.6,0.4-1.4,0.6-2.6,0.6c-1.9,0-3-1-3-3.4c-2,2.3-4.7,3.4-7.7,3.4c-4,0-7.2-1.8-7.2-6.1
			c0-4.9,3.7-6,7.4-6.7c4-0.8,7.4-0.5,7.4-3.2c0-3.1-2.6-3.6-4.9-3.6c-3,0-5.3,0.9-5.5,4.1h-3.6c0.2-5.4,4.4-7.3,9.3-7.3
			c3.9,0,8.2,0.9,8.2,6v11.2c0,1.7,0,2.5,1.1,2.5c0.3,0,0.6,0,1.1-0.2V53.9z M116.3,42.7c-1.4,1-4.1,1.1-6.5,1.5
			c-2.4,0.4-4.4,1.3-4.4,3.9c0,2.4,2,3.2,4.2,3.2c4.7,0,6.7-3,6.7-4.9V42.7z"/>
		<path class="st3" d="M128.1,32.1h4.4v3.2h-4.4v13.6c0,1.6,0.5,1.9,2.7,1.9h1.6V54h-2.7c-3.7,0-5.2-0.8-5.2-4.8V35.3h-3.7v-3.2h3.7
			v-6.6h3.6V32.1z"/>
		<path class="st3" d="M139,32.1h4.4v3.2H139v13.6c0,1.6,0.5,1.9,2.7,1.9h1.7V54h-2.7c-3.7,0-5.2-0.8-5.2-4.8V35.3h-3.7v-3.2h3.7
			v-6.6h3.6V32.1z"/>
	</g>
</g>
<g id="_x31_71x80">
	<g>
		<path class="st4" d="M105.4,48.1c0,2.4,2,3.2,4.2,3.2c4.7,0,6.7-3,6.7-4.9v-3.7c-1.4,1-4.1,1.1-6.5,1.5
			C107.4,44.6,105.4,45.4,105.4,48.1z"/>
		<path class="st4" d="M63.9,48.1c0,2.4,2,3.2,4.2,3.2c4.7,0,6.7-3,6.7-4.9v-3.7c-1.4,1-4.1,1.1-6.5,1.5
			C66,44.6,63.9,45.4,63.9,48.1z"/>
		<path class="st4" d="M0,0v80h171V0H0z M58.3,54h-3.6V39.6c0-2.7-0.7-4.9-4.2-4.9c-3.5,0-5.7,2.2-5.7,5.6V54h-3.6V39.6
			c0-2.8-0.9-4.9-4.1-4.9c-4.3,0-5.8,3.9-5.8,5.6V54h-3.6V32.1H31v3.2h0.1c1.6-2.5,4.1-3.7,7.1-3.7c2.7,0,5.1,1.1,6,3.7
			c1.5-2.3,4.1-3.7,6.8-3.7c4.4,0,7.3,1.8,7.3,6.3V54z M80.7,53.9c-0.6,0.4-1.4,0.6-2.6,0.6c-1.9,0-3-1-3-3.4
			c-2,2.3-4.6,3.4-7.7,3.4c-4,0-7.2-1.8-7.2-6.1c0-4.9,3.7-6,7.4-6.7c4-0.8,7.4-0.5,7.4-3.2c0-3.1-2.6-3.6-4.9-3.6
			c-3,0-5.3,0.9-5.5,4.1H61c0.2-5.4,4.4-7.3,9.3-7.3c3.9,0,8.2,0.9,8.2,6v11.2c0,1.7,0,2.5,1.1,2.5c0.3,0,0.6,0,1.1-0.2V53.9z
			 M99.7,54h-3.6V39.2c0-2.7-1.7-4.4-4.4-4.4c-4.4,0-6.5,2.9-6.5,6.8V54h-3.6V32.1H85v3.5h0.1c1.5-2.7,4-4,7.1-4
			c5.7,0,7.5,3.3,7.5,8V54z M122.1,53.9c-0.6,0.4-1.4,0.6-2.6,0.6c-1.9,0-3-1-3-3.4c-2,2.3-4.7,3.4-7.7,3.4c-4,0-7.2-1.8-7.2-6.1
			c0-4.9,3.7-6,7.4-6.7c4-0.8,7.4-0.5,7.4-3.2c0-3.1-2.6-3.6-4.9-3.6c-3,0-5.3,0.9-5.5,4.1h-3.6c0.2-5.4,4.4-7.3,9.3-7.3
			c3.9,0,8.2,0.9,8.2,6v11.2c0,1.7,0,2.5,1.1,2.5c0.3,0,0.6,0,1.1-0.2V53.9z M143.4,35.3H139v13.6c0,1.6,0.5,1.9,2.7,1.9h1.7V54
			h-2.7c-3.7,0-5.2-0.8-5.2-4.8V35.3h-3h-0.7h-3.6v13.6c0,1.6,0.5,1.9,2.7,1.9h1.6V54h-2.7c-3.7,0-5.2-0.8-5.2-4.8V35.3h-3.7v-3.2
			h3.7v-6.6h3.6v6.6h3.6h0.7h3v-6.6h3.6v6.6h4.4V35.3z"/>
	</g>
</g>
</svg>
