<?xml version="1.0" encoding="utf-8"?>
<!-- Generator: Adobe Illustrator 21.1.0, SVG Export Plug-In . SVG Version: 6.00 Build 0)  -->
<svg version="1.1" id="Layer_1" xmlns="http://www.w3.org/2000/svg" xmlns:xlink="http://www.w3.org/1999/xlink" x="0px" y="0px"
	 viewBox="0 0 334 66" style="enable-background:new 0 0 334 66;" xml:space="preserve">
<style type="text/css">
	.st0{fill:#000056;}
</style>
<g>
	<path class="st0" d="M20.7,27.8c-0.2,0.2-0.2,0.6-0.2,1.2v15.9c0,1.2,0.9,2.1,2.6,2.6c1.2,0.3,4.1,0.7,8.8,1.1c0.7,0.1,1,0.2,1,0.5
		c0,0.4-0.3,0.6-0.9,0.6H1c-0.4,0-0.7-0.2-0.7-0.5c0-0.4,0.2-0.6,0.7-0.6c4.8-0.4,7.8-0.8,8.7-1.1c1-0.4,1.5-1.2,1.5-2.5L10.8,4.8
		c0-1.4-0.4-2.2-1.3-2.5c-1.1-0.4-4.1-0.8-9-1C0.2,1.3,0,1.1,0,0.7c0-0.4,0.2-0.6,0.7-0.7c1.6,0,10.9,0,27.9-0.1
		c5.7,0,10.3,1.2,14,3.7c4.2,2.8,6.2,6.6,5.8,11.3c-0.3,4.2-2.6,7.4-7,9.7c-3.9,2.1-8.5,3-14,3c-3.2,0-5.1-0.1-5.5,0
		C21.3,27.6,20.9,27.7,20.7,27.8z M20.5,25c0,0.8,0.6,1.2,1.8,1.2h6.5c6.8,0,10.2-3.8,10.2-11.3c0-9-3.3-13.6-9.9-13.6h-5.3
		c-1.2,0-2.1,0.1-2.3,0.2c-0.6,0.2-0.9,0.9-0.9,1.8V25z M49.9,46.7c-3-2.8-4.5-6.7-4.5-11.6c0-4.8,1.6-9,4.7-12.7
		c3.1-3.7,6.9-5.6,11.3-5.6c3.9,0,7.1,1.5,9.4,4.5c2.4,3,3.6,6.9,3.6,11.5c0,0.7-0.2,1-0.8,1H53.6c0,0.4-0.1,1.2-0.2,2.3
		c0,8.9,3,13.3,8.9,13.3c2.7,0,4.9-0.8,6.8-2.4c2.2-1.9,3.5-4.8,4-8.5c0.1-0.6,0.3-0.8,0.7-0.8c0.5,0,0.7,0.3,0.7,1.1
		c-0.5,3.7-1.9,6.7-4.2,8.8c-2.4,2.2-5.3,3.3-9,3.3C56.7,50.9,52.9,49.5,49.9,46.7z M55.6,21.5c-1.3,2.4-2,5.7-2,9.9
		c0,0.7,0.4,1.1,1.3,1.1H66c0.7,0,1.1-0.4,1.1-1.3c0.2-8.7-1.8-13.1-6.1-13.1C58.7,18,56.8,19.1,55.6,21.5z M74.8,18.3
		c0-0.2,0.2-0.5,0.7-0.5c2.7-0.2,6.9-0.4,12.6-0.9c0.7-0.1,1.1,0.2,1.1,0.9c0.1,1.2,0.2,3.1,0.4,5.7h0.3c1.2-2.8,2.6-4.7,4.2-5.6
		c1.2-0.7,3.2-1.1,5.9-1.1c2.7-0.1,5.1,0.8,7,2.7c1.9,1.9,2.9,4.2,2.8,6.9l-0.4,20.1c0,0.9,0.5,1.5,1.6,1.7c1.3,0.2,2.6,0.4,3.9,0.6
		c0.5,0.1,0.7,0.2,0.7,0.5s-0.2,0.4-0.7,0.4H97.2c-0.5,0-0.7-0.2-0.7-0.4c0-0.3,0.2-0.5,0.7-0.5c3.2,0,4.8-0.7,4.8-2.3V24.2
		c0-3.9-1.5-5.7-4.5-5.7c-5.5,0-8.1,6.7-8,19.9l0.1,8.2c0,1.6,1.6,2.3,4.8,2.3c0.5,0,0.7,0.2,0.7,0.5c-0.1,0.2-0.3,0.4-0.7,0.4H76
		c-0.4,0-0.6-0.2-0.6-0.4c0-0.3,0.2-0.5,0.7-0.5c2.2,0,3.6-0.2,4.2-0.3c1.4-0.5,2.1-1.5,2.1-3.2l-0.4-22.5c0-1.5-0.3-2.5-1-2.9
		c-0.7-0.4-2.5-0.7-5.4-0.9C75.1,19,74.8,18.7,74.8,18.3z M113.6,18.8c0-0.5,0.3-0.7,0.9-0.7c3.2,0.2,5.9-1.4,8-4.8
		c1.7-2.9,2.7-6.1,3-9.7c0.1-0.6,0.3-0.9,0.8-0.9c0.6,0,0.8,0.3,0.8,0.9c0,1.1,0,3.1,0.1,5.9c0.1,2.9,0.1,5.1,0.1,6.8
		c0,0.8,0.4,1.2,1.2,1.2h6.4c0.9,0,1.3,0.3,1.3,1c0,0.6-0.5,0.8-1.4,0.8h-7.6v22.8c0,4.5,1.2,6.8,3.8,6.8c3.4,0,5-3,5-8.9
		c0-0.7,0-1.7,0-3c0-1.3,0-2.3,0-3c0-0.6,0.2-0.9,0.7-0.9c0.3,0,0.5,0.3,0.5,0.9c0,0.7,0,1.8,0.1,3.5c0.1,1.6,0.1,2.8,0.1,3.5
		c0,3.9-0.7,6.5-2.2,7.9c-1.3,1.2-3.5,1.8-6.7,1.8c-2.5,0-4.4-0.7-6-2c-1.7-1.6-2.7-3.8-2.7-6.7c0-2.5,0-6.5,0-11.7
		c0-6.2,0.1-9.4,0.1-9.6c0-0.9-0.5-1.3-1.6-1.3h-3.7C113.9,19.5,113.6,19.2,113.6,18.8z M147,19.1c2.7-1.7,5.8-2.5,9.2-2.5
		c3.7,0,6.6,0.8,8.6,2.3c2.1,1.6,3.1,3.6,3.1,6.2v18.7c0,3.1,0.8,4.7,2.5,4.7c2.1,0,3.1-2,3.1-5.8c0-0.6,0-1.5,0-2.6s0.1-2,0.1-2.5
		c0-0.7,0.2-1.1,0.5-1.1c0.4,0,0.6,0.4,0.6,1.1v5.3c0,3-0.7,5-2,6.1c-1.1,0.9-3,1.3-5.5,1.3c-2.9,0-4.9-1.5-6.2-4.4
		c-0.2-0.5-0.3-0.7-0.5-0.7c-0.2,0-0.4,0.2-0.7,0.7c-1.3,1.7-2.5,2.9-3.8,3.5c-1.6,0.8-3.6,1.2-6.2,1.2c-2.6,0-4.8-0.7-6.3-2.1
		c-1.6-1.5-2.4-3.6-2.4-6.4c0-1.6,0.6-3.2,1.6-4.6c1.1-1.4,2.5-2.4,3.9-3c2.4-1,5.4-1.7,9.2-2.1c2.9-0.3,4.4-1.6,4.4-3.9v-5.8
		c0-3.5-2-5.1-6-4.9c-1.6,0.1-3.3,0.6-4.9,1.6c-1.6,1.1-2.5,2.1-2.5,2.8c0,0.2,0.2,0.3,0.7,0.5c0.7,0.2,1,0.3,1.1,0.3
		c1.6,0.9,2.5,2.1,2.5,3.9c0,1.2-0.4,2.1-1.1,2.9c-0.7,0.8-1.7,1.2-3,1.2c-1.3,0-2.4-0.5-3.2-1.4c-0.8-0.9-1.2-2.1-1.2-3.4
		C142.6,23.2,144.2,20.9,147,19.1z M153,49.1c2.1,0,3.9-0.8,5.3-2.5c1.4-1.6,2.1-3.5,2.1-5.6v-7.6c0-1.1-0.2-1.6-0.4-1.6
		c-0.1,0-0.2,0.1-0.5,0.2c-0.2,0.2-0.7,0.3-1.6,0.5c-0.9,0.2-2.1,0.5-3.7,0.7c-1.6,0.2-3,1.2-3.9,2.8c-0.9,1.6-1.4,3.5-1.4,5.7
		C149,46.7,150.3,49.1,153,49.1z M183.4,19.7c2.7-2.4,5.8-3.5,9.4-3.5c1.6,0,3.6,0.3,6.1,0.9c-0.2-5,1.6-7.6,5.3-7.6c2,0,3,1,3,3
		c0,0.7-0.2,1.5-0.7,2.1c-0.6,0.6-1.2,0.8-2,0.7c-1.7-0.2-2.5-1.3-2.5-3.2c0-0.2-0.2-0.4-0.4-0.4c-1,0-1.5,1.2-1.5,3.5
		c0,1.6,0.2,2.4,0.6,2.6c4.1,3,6.1,6.2,5.9,9.6c-0.2,3.7-1.7,6.6-4.8,8.5c-2.5,1.6-5.8,2.3-9.7,2.3c-0.9,0-2.1-0.2-3.5-0.5
		c-1.5-0.4-2.6-0.6-3.5-0.6c-3.4,0-5,1.2-5,3.7c0,2.1,2,3,6,3c1.4,0,3-0.1,4.6-0.2c2.2-0.2,3.7-0.2,4.6-0.2c4.4-0.1,7.7,0.8,10,2.9
		c2.1,1.9,3.2,4.6,3.2,8c0,3.5-1.4,6.4-4.3,8.5c-2.9,2.1-6.5,3-10.8,3c-4.8-0.1-8.8-1.1-12-3c-3.2-1.9-4.8-4-4.8-6.4
		c0-1.1,0.7-2.1,2.1-3c0.2-0.1,1.6-0.8,4.4-2.1v-0.2c-3.7-1.7-5.6-4.4-5.6-8c0-1.8,0.3-3.2,1-4.1c0.9-1.3,2.5-2.3,5-3v-0.2
		c-2.7-2.2-4.1-4.6-4.1-7.3C179.5,25,180.8,22.1,183.4,19.7z M185,52.3c-1.9,0.9-2.9,2.7-2.9,5.3c0,4.6,3.6,7,10.8,7.1
		c3.3,0.1,6.2-0.6,8.5-1.8c2.5-1.3,3.7-3.2,3.7-5.7c0-3.9-3.5-6-10.3-6.2C190.2,51,186.9,51.4,185,52.3z M186.8,27.1
		c0,3.9,0.6,6.5,1.8,8.1c1,1.2,2.5,1.9,4.6,1.9c4.1,0,6.2-3,6.2-9.1c0-7.2-2-10.8-5.9-10.8C189,17.1,186.8,20.5,186.8,27.1z
		 M224.9,46.2c0,1.7,2.4,2.5,7.3,2.5c0.5,0,0.7,0.2,0.7,0.5c0,0.4-0.2,0.6-0.7,0.6h-20.9c-0.4,0-0.7-0.2-0.7-0.6
		c0-0.3,0.2-0.5,0.7-0.5c3-0.2,4.6-0.3,5-0.5c0.8-0.3,1.1-1.2,1.1-2.8l-0.2-22.3c0-1.7-0.3-2.8-0.9-3.1c-0.6-0.4-2.3-0.7-5.1-0.8
		c-0.5,0-0.7-0.2-0.7-0.5c0-0.4,0.2-0.7,0.7-0.7c1.2-0.1,5.3-0.3,12.2-0.9c0.7-0.1,1.1,0.3,1.1,1.2c0.1,2.4,0.2,4.4,0.2,6.2h0.2
		c1.2-2.5,2-4,2.5-4.8c1.3-1.7,3.1-2.7,5.3-2.9c2-0.2,3.5,0.3,4.7,1.5c1.2,1.2,1.8,2.7,1.8,4.4c0,1.3-0.4,2.4-1.2,3.2
		c-0.8,0.9-1.9,1.2-3.2,1.2c-1.2,0-2.1-0.5-2.9-1.4c-0.7-0.8-0.9-1.6-0.9-2.5c0.1-1.6,0.5-2.8,1.4-3.4c0.9-0.7,1.3-1.1,1.2-1.2
		c-0.1-0.5-0.6-0.7-1.5-0.7c-0.6,0-1.2,0.2-2,0.7c-2.1,1.2-3.4,3-4,5.2c-0.7,2.2-1.1,6.1-1.3,11.6L224.9,46.2z M246.7,19.1
		c2.7-1.7,5.8-2.5,9.2-2.5c3.7,0,6.7,0.8,8.8,2.5c2,1.6,3,3.5,3,6.1v18.7c0,3,0.8,4.6,2.5,4.6c2.1,0,3.1-2,3.1-5.8
		c0-0.6,0-1.5,0.1-2.6c0.1-1.1,0.1-2,0.1-2.5c0-0.7,0.2-1.1,0.5-1.1c0.4,0,0.6,0.4,0.6,1.1v5.3c0,3-0.7,5-2.1,6.1
		c-1.1,0.8-2.9,1.3-5.4,1.3c-2.9,0-4.9-1.5-6.2-4.4c-0.2-0.5-0.4-0.7-0.6-0.7s-0.3,0.2-0.6,0.7c-1.4,1.7-2.6,3-3.9,3.6
		c-1.5,0.8-3.5,1.1-6.2,1.1c-2.5,0-4.7-0.7-6.2-2.1c-1.6-1.4-2.4-3.5-2.4-6.3c0-1.7,0.6-3.3,1.7-4.8c1.1-1.3,2.3-2.3,3.8-3
		c2.4-1,5.5-1.7,9.3-2.1c2.9-0.3,4.4-1.6,4.4-3.8v-5.8c0-3.5-2.1-5.2-6.1-5c-1.6,0.1-3.2,0.7-4.8,1.7c-1.6,1.1-2.5,2-2.5,2.7
		c0,0.2,0.2,0.4,0.6,0.5c0.7,0.2,1.1,0.3,1.1,0.4c1.6,0.8,2.4,2.1,2.4,3.8c0,1.2-0.4,2.2-1.1,3c-0.7,0.8-1.7,1.2-3,1.2
		c-1.3,0-2.4-0.5-3.1-1.4c-0.8-1-1.2-2.1-1.2-3.4C242.3,23.3,243.7,20.9,246.7,19.1z M252.8,49.2c2.1,0,3.8-0.8,5.2-2.4
		c1.4-1.6,2.1-3.5,2.1-5.6v-7.7c0-1.1-0.1-1.6-0.3-1.6c-0.2,0-0.3,0.1-0.5,0.2c-0.2,0.2-0.7,0.3-1.6,0.6c-0.9,0.2-2.1,0.4-3.7,0.7
		c-1.6,0.2-3,1.2-3.9,2.9c-0.9,1.6-1.4,3.5-1.4,5.7C248.7,46.7,250,49.2,252.8,49.2z M312.2,18.9c1.4-1.5,3.5-2.2,6.3-2.2
		c3,0,5.5,0.8,7.4,2.5c2,1.7,2.9,3.9,2.8,6.7l-0.5,20.5c0,1.6,1.6,2.5,4.8,2.5c0.6,0,0.9,0.2,0.9,0.5c0,0.2-0.3,0.4-0.9,0.4h-17
		c-0.6,0-0.8-0.2-0.8-0.4c0-0.3,0.2-0.5,0.8-0.5c3.3,0,4.9-0.8,4.9-2.5l0.2-22.7c0-3.6-1.6-5.5-4.6-5.6c-5.2-0.2-7.7,7-7.7,21.4v6.8
		c0,1,0.5,1.6,1.4,2c0.4,0.2,1.3,0.3,2.8,0.5c0.6,0.1,0.8,0.2,0.8,0.5s-0.2,0.4-0.8,0.4h-16.6c-0.6,0-0.8-0.2-0.8-0.4
		c0-0.3,0.2-0.5,0.8-0.5c2.9,0,4.4-0.8,4.7-2.5l0.2-22.5c0-3.5-1.3-5.3-3.9-5.3c-3.4,0-5.7,2.5-7,7.4c-0.7,3-1.1,7.6-1.1,13.8v6.6
		c0,1,0.5,1.6,1.4,2c0.4,0.2,1.3,0.3,2.8,0.5c0.6,0.1,0.8,0.2,0.8,0.5s-0.2,0.4-0.8,0.4h-17.2c-0.5,0-0.7-0.2-0.7-0.4
		c0-0.3,0.2-0.5,0.8-0.5c2.7-0.2,4.4-0.4,4.8-0.7c0.4-0.4,0.7-1.4,0.7-3v-22c0-1.6-0.2-2.5-0.7-2.9c-0.7-0.5-2.5-0.9-5.3-1.1
		c-0.5-0.1-0.7-0.2-0.7-0.6c0-0.4,0.2-0.7,0.7-0.7c2.5-0.2,6.7-0.3,12.5-0.7c0.7-0.1,1.1,0.2,1.1,0.8c0,1.3,0.1,3.4,0.2,6.1h0.3
		c1.7-4.8,5-7.1,9.9-7.1c2.5,0,4.8,0.7,6.5,2.1c1.7,1.4,2.7,3.4,2.8,5.9c0,0.1,0.1,0.1,0.3,0.1C310.4,21.9,311.3,19.9,312.2,18.9z"
		/>
</g>
</svg>
