<?xml version="1.0" encoding="utf-8"?>
<!-- Generator: Adobe Illustrator 21.1.0, SVG Export Plug-In . SVG Version: 6.00 Build 0)  -->
<svg version="1.1" id="Layer_1" xmlns="http://www.w3.org/2000/svg" xmlns:xlink="http://www.w3.org/1999/xlink" x="0px" y="0px"
	 viewBox="0 0 477.1 209.1" style="enable-background:new 0 0 477.1 209.1;" xml:space="preserve">
<style type="text/css">
	.st0{fill:#1B1852;}
</style>
<g>
	<path class="st0" d="M106.3,147.3h-4.1c-0.3,0-0.4,0.1-0.4,0.4v4.9c0,0.3,0.1,0.4,0.4,0.4h4.1c1.4,0,2.7-1.2,2.7-2.7V150
		C108.9,148.5,107.7,147.3,106.3,147.3z"/>
	<path class="st0" d="M382.3,147.3h-4.1c-0.3,0-0.4,0.1-0.4,0.4v4.9c0,0.3,0.1,0.4,0.4,0.4h4.1c1.4,0,2.7-1.2,2.7-2.7V150
		C384.9,148.5,383.7,147.3,382.3,147.3z"/>
	<path class="st0" d="M320.5,47.5h-3.4c-6.5,0-11.6,5-11.6,11.6v35.1c0,6.5,5.1,11.7,11.6,11.7h3.4c6.3,0,11.7-5.2,11.7-11.7V59
		C332.2,52.6,327.1,47.5,320.5,47.5z"/>
	<path class="st0" d="M73.5,153.1c0-0.2-0.2-0.9-0.4-2h-0.1c-0.3,1.1-0.4,1.8-0.4,2l-1.3,4.9c0,0,0,0.1,0,0.1c0,0.2,0.1,0.3,0.4,0.3
		h2.7c0.3,0,0.4-0.1,0.4-0.3c0,0,0-0.1,0-0.1L73.5,153.1z"/>
	<path class="st0" d="M236.6,48.6h-13.8c-0.8,0-1.1,0.3-1.1,1.1v54c0,0.8,0.3,1.1,1.1,1.1h13.8c6.6,0,11.8-5.1,11.8-11.7V60.1
		C248.4,53.7,243.2,48.6,236.6,48.6z"/>
	<path class="st0" d="M0,0v209.1h477.1V0H0z M81.2,166.7h-3.7c-0.2,0-0.3-0.1-0.4-0.3l-1.1-3.9c0-0.2-0.1-0.2-0.4-0.2h-5.3
		c-0.2,0-0.3,0-0.4,0.2l-1.1,3.9c0,0.2-0.2,0.3-0.4,0.3h-3.7c-0.3,0-0.4-0.1-0.4-0.3c0,0,0-0.1,0-0.1l6.9-22.5
		c0.1-0.2,0.1-0.3,0.4-0.3h2.7c0.2,0,0.3,0.1,0.4,0.3l6.9,22.5c0,0.1,0,0.1,0,0.1C81.6,166.6,81.4,166.7,81.2,166.7z M82.3,112h-4.7
		c-10.4,0-16.9-6.1-16.9-9.5c0-0.4,0.2-0.7,0.7-0.9l4.6-2.4c0.2-0.1,0.4-0.1,0.5-0.1c0.4,0,0.5,0.2,0.9,0.5c3,3.2,5.2,6.1,10.2,6.1
		h4.7c6.5,0,11.8-5,11.8-11.7c0-7.3-5.6-10.1-14.8-14.6C68,74.1,61.6,70.1,61.6,59c0-10.7,7.4-17.9,19-17.9h1.7
		c10.2,0,17,6.1,17,9.6c0,0.3-0.3,0.5-0.8,0.8L94,53.8c-0.2,0.1-0.4,0.1-0.5,0.1c-0.3,0-0.5-0.1-0.8-0.4c-3.1-3.2-5.3-6-10.4-6h-1.7
		c-6.4,0-11.6,4.9-11.6,11.2c0,4.9,3.4,8.5,10.4,11.8c5.5,2.6,10.5,4.7,14.4,7.6c5.1,3.9,7.6,9.3,7.6,16
		C101.4,104.8,94,112,82.3,112z M113.2,166.7h-3.8c-0.1,0-0.2-0.1-0.3-0.3l-3.2-9.4l-0.3-0.2h-3.3c-0.3,0-0.4,0.1-0.4,0.4v9.1
		c0,0.3-0.1,0.4-0.4,0.4H98c-0.3,0-0.4-0.1-0.4-0.4v-22.5c0-0.3,0.1-0.4,0.4-0.4h8.3c4.2,0,6.9,2.7,6.9,6.9v0.4c0,1.7-0.9,3.1-1.6,4
		c-0.7,0.6-1.5,1.1-1.5,1.4v0l3.5,10.2c0,0.1,0,0.1,0,0.2C113.5,166.6,113.4,166.7,113.2,166.7z M129.8,49.7v60.2
		c0,0.8-0.3,1.1-1.1,1.1h-5.1c-0.8,0-1.1-0.3-1.1-1.1V49.7c0-0.8-0.3-1.1-1.1-1.1h-13.2c-0.8,0-1.1-0.3-1.1-1.1v-4
		c0-0.8,0.3-1.1,1.1-1.1h35.9c0.8,0,1.1,0.3,1.1,1.1v4c0,0.8-0.3,1.1-1.1,1.1h-13.2C130.2,48.6,129.8,48.9,129.8,49.7z M137.9,163.2
		h1.8c1.1,0,1.7-0.6,2.4-1.8c0.2-0.4,0.4-0.7,0.6-0.7c0.1,0,0.1,0,0.2,0l3.2,1.6c0.1,0.1,0.2,0.1,0.2,0.3c0,0.4-0.5,1.4-1.8,2.7
		c-1.1,1.1-2.7,1.7-4.8,1.7h-1.8c-4.2,0-6.9-2.6-6.9-6.5v-10.9c0-3.9,2.7-6.5,6.9-6.5h1.8c1.7,0,3,0.4,4.2,1.2
		c1.5,1.1,2.4,2.7,2.4,3.1c0,0.1-0.1,0.2-0.2,0.3l-3.2,1.6c-0.1,0-0.1,0-0.2,0c-0.2,0-0.3-0.2-0.5-0.6c-0.6-1.1-1.3-1.8-2.4-1.8
		h-1.8c-1.5,0-2.7,1.2-2.7,2.7v10.9C135.3,162,136.4,163.2,137.9,163.2z M179.3,166.3c0,0.3-0.1,0.4-0.4,0.4h-3.5
		c-0.3,0-0.4-0.1-0.4-0.4v-9.1c0-0.3-0.1-0.4-0.4-0.4h-6.9c-0.3,0-0.4,0.1-0.4,0.4v9.1c0,0.3-0.1,0.4-0.4,0.4h-3.5
		c-0.3,0-0.4-0.1-0.4-0.4v-22.5c0-0.3,0.1-0.4,0.4-0.4h3.5c0.2,0,0.4,0.1,0.4,0.4v8.8c0,0.3,0.1,0.4,0.4,0.4h6.9
		c0.3,0,0.4-0.1,0.4-0.4v-8.8c0-0.3,0.1-0.4,0.4-0.4h3.5c0.3,0,0.4,0.1,0.4,0.4V166.3z M197.4,94.1c0,10.7-7.5,17.9-19.1,17.9H175
		c-11.6,0-19-7.2-19-17.9V43.4c0-0.8,0.3-1.1,1.1-1.1h5.2c0.8,0,1.1,0.3,1.1,1.1v50.7c0,6.5,5.1,11.7,11.6,11.7h3.4
		c6.3,0,11.7-5.2,11.7-11.7V43.4c0-0.8,0.3-1.1,1.1-1.1h5.2c0.8,0,1.1,0.3,1.1,1.1V94.1z M201.9,166.3c0,0.3-0.1,0.4-0.4,0.4h-3.5
		c-0.3,0-0.4-0.1-0.4-0.4v-22.5c0-0.3,0.1-0.4,0.4-0.4h3.5c0.2,0,0.4,0.1,0.4,0.4V166.3z M232.4,146.9c0,0.3-0.1,0.4-0.4,0.4h-4
		c-0.3,0-0.4,0.1-0.4,0.4v18.6c0,0.3-0.1,0.4-0.4,0.4h-3.5c-0.3,0-0.4-0.1-0.4-0.4v-18.6c0-0.3-0.1-0.4-0.4-0.4h-4
		c-0.3,0-0.4-0.1-0.4-0.4v-3.1c0-0.3,0.1-0.4,0.4-0.4h13c0.2,0,0.4,0.1,0.4,0.4V146.9z M215.5,110.9c-0.8,0-1.1-0.3-1.1-1.1V43.4
		c0-0.8,0.3-1.1,1.1-1.1h21.1c11.7,0,19.1,7.4,19.1,18.9v30.6c0,11.7-7.4,19.1-19.1,19.1H215.5z M263,146.9c0,0.3-0.1,0.4-0.4,0.4
		h-8.8c-0.3,0-0.4,0.1-0.4,0.4v4.9c0,0.3,0.1,0.4,0.4,0.4h7.2c0.3,0,0.4,0.1,0.4,0.4v3.1c0,0.3-0.1,0.4-0.4,0.4h-7.2
		c-0.3,0-0.4,0.1-0.4,0.4v5.2c0,0.3,0.1,0.4,0.4,0.4h8.8c0.2,0,0.4,0.1,0.4,0.4v3.1c0,0.3-0.1,0.4-0.4,0.4h-13
		c-0.3,0-0.4-0.1-0.4-0.4v-22.5c0-0.3,0.1-0.4,0.4-0.4h13c0.2,0,0.4,0.1,0.4,0.4V146.9z M274.3,110.9c-0.8,0-1.1-0.3-1.1-1.1V43.4
		c0-0.8,0.3-1.1,1.1-1.1h5.1c0.8,0,1.1,0.3,1.1,1.1v66.4c0,0.8-0.3,1.1-1.1,1.1H274.3z M287,163.2h1.8c1.1,0,1.7-0.6,2.4-1.8
		c0.2-0.4,0.4-0.7,0.6-0.7c0.1,0,0.1,0,0.2,0l3.2,1.6c0.1,0.1,0.2,0.1,0.2,0.3c0,0.4-0.5,1.4-1.8,2.7c-1.1,1.1-2.7,1.7-4.8,1.7H287
		c-4.2,0-6.9-2.6-6.9-6.5v-10.9c0-3.9,2.7-6.5,6.9-6.5h1.8c1.7,0,3,0.4,4.2,1.2c1.5,1.1,2.4,2.7,2.4,3.1c0,0.1-0.1,0.2-0.2,0.3
		l-3.2,1.6c-0.1,0-0.1,0-0.2,0c-0.2,0-0.3-0.2-0.5-0.6c-0.6-1.1-1.3-1.8-2.4-1.8H287c-1.5,0-2.7,1.2-2.7,2.7v10.9
		C284.4,162,285.6,163.2,287,163.2z M324.2,146.9c0,0.3-0.1,0.4-0.4,0.4h-4c-0.3,0-0.4,0.1-0.4,0.4v18.6c0,0.3-0.1,0.4-0.4,0.4h-3.5
		c-0.3,0-0.4-0.1-0.4-0.4v-18.6c0-0.3-0.1-0.4-0.4-0.4h-4c-0.3,0-0.4-0.1-0.4-0.4v-3.1c0-0.3,0.1-0.4,0.4-0.4h13
		c0.2,0,0.4,0.1,0.4,0.4V146.9z M339.6,94.1c0,10.7-7.5,17.9-19.1,17.9h-3.4c-11.6,0-19-7.2-19-17.9V59c0-10.7,7.4-17.9,19-17.9h3.4
		c11.6,0,19.1,7.3,19.1,17.9V94.1z M356.1,160.5c0,3.9-2.7,6.5-6.9,6.5h-1.8c-4.2,0-6.9-2.6-6.9-6.5v-16.7c0-0.3,0.1-0.4,0.4-0.4
		h3.5c0.2,0,0.4,0.1,0.4,0.4v16.7c0,1.5,1.2,2.7,2.7,2.7h1.8c1.5,0,2.6-1.1,2.6-2.7v-16.7c0-0.3,0.1-0.4,0.4-0.4h3.5
		c0.3,0,0.4,0.1,0.4,0.4V160.5z M389.2,166.7h-3.8c-0.1,0-0.2-0.1-0.3-0.3l-3.3-9.4l-0.3-0.2h-3.3c-0.3,0-0.4,0.1-0.4,0.4v9.1
		c0,0.3-0.1,0.4-0.4,0.4H374c-0.3,0-0.4-0.1-0.4-0.4v-22.5c0-0.3,0.1-0.4,0.4-0.4h8.3c4.2,0,6.9,2.7,6.9,6.9v0.4
		c0,1.7-0.9,3.1-1.6,4c-0.7,0.6-1.5,1.1-1.5,1.4v0l3.5,10.2c0,0.1,0,0.1,0,0.2C389.6,166.6,389.4,166.7,389.2,166.7z M419.9,146.9
		c0,0.3-0.1,0.4-0.4,0.4h-8.8c-0.3,0-0.4,0.1-0.4,0.4v4.9c0,0.3,0.1,0.4,0.4,0.4h7.2c0.3,0,0.4,0.1,0.4,0.4v3.1
		c0,0.3-0.1,0.4-0.4,0.4h-7.2c-0.3,0-0.4,0.1-0.4,0.4v5.2c0,0.3,0.1,0.4,0.4,0.4h8.8c0.2,0,0.4,0.1,0.4,0.4v3.1
		c0,0.3-0.1,0.4-0.4,0.4h-13c-0.3,0-0.4-0.1-0.4-0.4v-22.5c0-0.3,0.1-0.4,0.4-0.4h13c0.2,0,0.4,0.1,0.4,0.4V146.9z M401.9,110.9
		h-10.5l-26.9-68.5h14l18.7,51.7l19.2-51.7h13.2L401.9,110.9z"/>
</g>
</svg>
