<?xml version="1.0" encoding="utf-8"?>
<!-- Generator: Adobe Illustrator 21.1.0, SVG Export Plug-In . SVG Version: 6.00 Build 0)  -->
<svg version="1.1" id="normal_logo" xmlns="http://www.w3.org/2000/svg" xmlns:xlink="http://www.w3.org/1999/xlink" x="0px"
	 y="0px" viewBox="0 0 256.1 19.8" style="enable-background:new 0 0 256.1 19.8;" xml:space="preserve">
<style type="text/css">
	.st0{fill:#1B1852;}
</style>
<g>
	<path class="st0" d="M4.5,15.5c-2.3,0-3.3-1.6-3.3-3.2V6.7H0V4.6h1.2V1.2H4v3.3h2v2.1H4v5.4c0,0.7,0.3,1,1,1h1v2.4H4.5z"/>
	<path class="st0" d="M8.5,2.3V0h2.9v2.3H8.5z M8.6,15.5V4.2h2.8v11.3H8.6z"/>
	<path class="st0" d="M17.7,15.5c-2.3,0-3.3-1.6-3.3-3.2V0.1h2.8v12c0,0.7,0.3,1,1,1h1.1v2.4H17.7z"/>
	<path class="st0" d="M24.8,15.5c-2.3,0-3.3-1.6-3.3-3.2V0.1h2.8v12c0,0.7,0.3,1,1,1h1.1v2.4H24.8z"/>
	<path class="st0" d="M36,14.3c-0.7,0.7-1.8,1.4-3.5,1.4c-1.7,0-2.8-0.7-3.5-1.4c-1-1.1-1.3-2.3-1.3-4.4c0-2,0.3-3.3,1.3-4.4
		c0.7-0.7,1.8-1.4,3.5-1.4c1.7,0,2.8,0.6,3.5,1.4c1,1.1,1.3,2.3,1.3,4.4C37.3,11.9,37,13.2,36,14.3z M33.8,7.1
		c-0.3-0.3-0.8-0.5-1.3-0.5c-0.6,0-1,0.2-1.3,0.5c-0.6,0.6-0.7,1.6-0.7,2.7c0,1.2,0.1,2.2,0.7,2.8c0.3,0.3,0.7,0.5,1.3,0.5
		c0.6,0,1-0.2,1.3-0.5c0.6-0.6,0.7-1.6,0.7-2.8C34.4,8.7,34.4,7.7,33.8,7.1z"/>
	<path class="st0" d="M43.5,15.5c-2.3,0-3.3-1.6-3.3-3.2V6.7H39V4.6h1.2V1.2H43v3.3h2v2.1h-2v5.4c0,0.7,0.3,1,1,1h1v2.4H43.5z"/>
	<path class="st0" d="M51.3,15.6c-1.8,0-3.4-0.2-4.8-1.6l1.8-1.8c0.9,0.9,2.1,1.1,3,1.1c1,0,2-0.3,2-1.2c0-0.6-0.3-1-1.2-1l-1.8-0.2
		c-2-0.2-3.3-1.1-3.3-3.2c0-2.3,2.1-3.6,4.4-3.6c1.8,0,3.2,0.3,4.3,1.3L54,7.2c-0.7-0.6-1.6-0.8-2.6-0.8c-1.1,0-1.6,0.5-1.6,1.1
		c0,0.4,0.2,0.9,1.2,1l1.8,0.2c2.2,0.2,3.4,1.4,3.4,3.3C56.1,14.5,53.9,15.6,51.3,15.6z"/>
	<path class="st0" d="M66.2,14.3c-0.7,0.7-1.8,1.4-3.5,1.4c-1.7,0-2.8-0.7-3.5-1.4c-1-1.1-1.3-2.3-1.3-4.4c0-2,0.3-3.3,1.3-4.4
		c0.7-0.7,1.8-1.4,3.5-1.4c1.7,0,2.8,0.6,3.5,1.4c1,1.1,1.3,2.3,1.3,4.4C67.5,11.9,67.3,13.2,66.2,14.3z M64,7.1
		c-0.3-0.3-0.8-0.5-1.3-0.5c-0.6,0-1,0.2-1.3,0.5c-0.6,0.6-0.7,1.6-0.7,2.7c0,1.2,0.1,2.2,0.7,2.8c0.3,0.3,0.7,0.5,1.3,0.5
		c0.6,0,1-0.2,1.3-0.5c0.6-0.6,0.7-1.6,0.7-2.8C64.7,8.7,64.6,7.7,64,7.1z"/>
	<path class="st0" d="M76.8,15.5V8.7c0-1.5-1-2.1-1.9-2.1C74,6.6,73,7.2,73,8.7v6.8h-2.8V4.2H73v1c0.7-0.8,1.8-1.2,2.8-1.2
		c1.1,0,2,0.4,2.7,1c0.9,0.9,1.1,2,1.1,3.2v7.2H76.8z"/>
	<path class="st0" d="M93.9,15.5v-1.1c-0.8,0.9-1.6,1.2-2.8,1.2c-1.1,0-2.1-0.4-2.8-1c-1.1-1.1-1.1-3.1-1.1-4.8c0-1.7,0-3.6,1.1-4.7
		c0.6-0.6,1.6-1,2.8-1c1.1,0,2,0.3,2.8,1.1V0.1h2.8v15.4H93.9z M91.9,6.6C90.2,6.6,90,8,90,9.9s0.2,3.2,1.9,3.2
		c1.7,0,1.9-1.4,1.9-3.2S93.6,6.6,91.9,6.6z"/>
	<path class="st0" d="M102,10.7c0,1.5,0.9,2.5,2.5,2.5c1.2,0,1.8-0.3,2.6-1.1l1.7,1.7c-1.1,1.1-2.3,1.8-4.3,1.8
		c-2.7,0-5.2-1.2-5.2-5.8c0-3.7,2-5.8,4.9-5.8c3.1,0,4.9,2.3,4.9,5.4v1.3H102z M106,7.6c-0.3-0.7-0.9-1.2-1.9-1.2
		c-1,0-1.6,0.5-1.9,1.2C102.1,8,102,8.3,102,8.8h4.3C106.3,8.3,106.2,8,106,7.6z"/>
	<path class="st0" d="M115.4,15.6c-1.8,0-3.4-0.2-4.8-1.6l1.8-1.8c0.9,0.9,2.1,1.1,3,1.1c1,0,2-0.3,2-1.2c0-0.6-0.3-1-1.2-1
		l-1.8-0.2c-2-0.2-3.3-1.1-3.3-3.2c0-2.3,2.1-3.6,4.4-3.6c1.8,0,3.2,0.3,4.3,1.3l-1.7,1.8c-0.7-0.6-1.6-0.8-2.6-0.8
		c-1.1,0-1.6,0.5-1.6,1.1c0,0.4,0.2,0.9,1.2,1l1.8,0.2c2.2,0.2,3.4,1.4,3.4,3.3C120.2,14.5,118.1,15.6,115.4,15.6z"/>
	<path class="st0" d="M122.5,2.3V0h2.9v2.3H122.5z M122.5,15.5V4.2h2.8v11.3H122.5z"/>
	<path class="st0" d="M132.4,19.8c-1.7,0-2.9-0.3-4.1-1.5l1.8-1.8c0.6,0.6,1.3,0.9,2.2,0.9c1.7,0,2.3-1.2,2.3-2.3v-1.1
		c-0.7,0.8-1.6,1.1-2.7,1.1c-1.1,0-2.1-0.4-2.7-1c-1.1-1.1-1.1-2.5-1.1-4.5c0-2,0.1-3.4,1.1-4.5c0.6-0.6,1.6-1,2.7-1
		c1.2,0,2,0.3,2.8,1.2V4.2h2.7v10.9C137.4,17.8,135.4,19.8,132.4,19.8z M132.7,6.6c-1.7,0-1.8,1.4-1.8,2.9s0.2,2.9,1.8,2.9
		c1.7,0,1.9-1.5,1.9-2.9S134.3,6.6,132.7,6.6z"/>
	<path class="st0" d="M147.1,15.5V8.7c0-1.5-1-2.1-1.9-2.1c-0.9,0-1.9,0.5-1.9,2.1v6.8h-2.8V4.2h2.8v1c0.7-0.8,1.8-1.2,2.8-1.2
		c1.1,0,2,0.4,2.7,1c0.9,0.9,1.1,2,1.1,3.2v7.2H147.1z"/>
	<path class="st0" d="M164.4,15.5v-1c-0.9,0.9-1.6,1.1-3.1,1.1c-1.5,0-2.3-0.3-3-1c-0.5-0.5-0.8-1.3-0.8-2.2c0-1.9,1.3-3.1,3.7-3.1
		h3.2v-1c0-1.6-0.8-2.3-2.7-2.3c-1.4,0-2.1,0.3-2.7,1.2l-1.1-1c1-1.2,2-1.6,3.8-1.6c2.9,0,4.3,1.2,4.3,3.6v7.2H164.4z M164.4,10.6
		h-3c-1.6,0-2.4,0.7-2.4,1.9c0,1.2,0.8,1.8,2.5,1.8c0.9,0,1.7-0.1,2.4-0.7c0.4-0.3,0.5-1,0.5-1.8V10.6z"/>
	<path class="st0" d="M173.1,15.6c-1.8,0-3.2-0.4-4.4-1.5l1-1c0.8,0.9,2,1.2,3.3,1.2c1.8,0,2.8-0.6,2.8-1.9c0-0.9-0.5-1.5-1.8-1.6
		l-1.8-0.2c-2.1-0.2-3.2-1.1-3.2-2.9c0-1.9,1.6-3.1,3.9-3.1c1.5,0,2.9,0.4,3.8,1.1l-1,1c-0.8-0.6-1.7-0.8-2.8-0.8
		c-1.6,0-2.4,0.7-2.4,1.8c0,0.9,0.5,1.5,1.9,1.6l1.7,0.2c1.9,0.2,3.1,0.9,3.1,2.9C177.4,14.5,175.7,15.6,173.1,15.6z"/>
	<path class="st0" d="M183.5,15.6c-1.8,0-3.2-0.4-4.4-1.5l1-1c0.8,0.9,2,1.2,3.3,1.2c1.8,0,2.8-0.6,2.8-1.9c0-0.9-0.5-1.5-1.8-1.6
		l-1.8-0.2c-2.1-0.2-3.2-1.1-3.2-2.9c0-1.9,1.6-3.1,3.9-3.1c1.5,0,2.9,0.4,3.8,1.1l-1,1c-0.8-0.6-1.7-0.8-2.8-0.8
		c-1.6,0-2.4,0.7-2.4,1.8c0,0.9,0.5,1.5,1.9,1.6l1.7,0.2c1.9,0.2,3.1,0.9,3.1,2.9C187.8,14.5,186.1,15.6,183.5,15.6z"/>
	<path class="st0" d="M197.7,14.4c-0.7,0.7-1.8,1.2-3.1,1.2s-2.3-0.5-3.1-1.2c-1.1-1.1-1.3-2.6-1.3-4.2c0-1.6,0.2-3.1,1.3-4.2
		c0.7-0.7,1.8-1.2,3.1-1.2s2.3,0.5,3.1,1.2c1.1,1.1,1.3,2.6,1.3,4.2C199,11.8,198.8,13.3,197.7,14.4z M196.6,6.9
		c-0.5-0.5-1.2-0.8-2-0.8c-0.8,0-1.4,0.3-1.9,0.8c-0.8,0.8-0.9,2.1-0.9,3.3c0,1.2,0.1,2.5,0.9,3.3c0.5,0.5,1.2,0.8,1.9,0.8
		c0.8,0,1.5-0.3,2-0.8c0.8-0.8,0.8-2.1,0.8-3.3C197.5,9,197.4,7.7,196.6,6.9z"/>
	<path class="st0" d="M206.5,15.6c-2.7,0-4.7-1.8-4.7-5.5c0-3.6,2-5.5,4.7-5.5c1.5,0,2.4,0.4,3.5,1.6l-1.1,1
		c-0.8-0.9-1.4-1.2-2.5-1.2c-1,0-1.9,0.4-2.5,1.2c-0.5,0.7-0.7,1.5-0.7,2.9c0,1.3,0.2,2.2,0.7,2.9c0.6,0.8,1.4,1.2,2.5,1.2
		c1,0,1.6-0.3,2.5-1.2l1.1,1C208.9,15.3,208,15.6,206.5,15.6z"/>
	<path class="st0" d="M212.9,1.8V0.1h1.8v1.8H212.9z M213,15.5V4.9h1.6v10.7H213z"/>
	<path class="st0" d="M224.5,15.5v-1c-0.9,0.9-1.6,1.1-3.1,1.1c-1.5,0-2.3-0.3-3-1c-0.5-0.5-0.8-1.3-0.8-2.2c0-1.9,1.3-3.1,3.7-3.1
		h3.2v-1c0-1.6-0.8-2.3-2.7-2.3c-1.4,0-2.1,0.3-2.7,1.2l-1.1-1c1-1.2,2-1.6,3.8-1.6c2.9,0,4.3,1.2,4.3,3.6v7.2H224.5z M224.5,10.6
		h-3c-1.6,0-2.4,0.7-2.4,1.9c0,1.2,0.8,1.8,2.5,1.8c0.9,0,1.7-0.1,2.4-0.7c0.4-0.3,0.5-1,0.5-1.8V10.6z"/>
	<path class="st0" d="M232.9,15.5c-1.8,0-2.7-1.3-2.7-2.9V6.1h-1.3V4.9h1.3V1.6h1.6v3.3h2.3v1.2h-2.3v6.5c0,1,0.5,1.6,1.5,1.6h0.8
		v1.3H232.9z"/>
	<path class="st0" d="M237.9,10.6c0,2.3,1.1,3.7,3.1,3.7c1.2,0,1.9-0.4,2.8-1.2l1.1,0.9c-1.1,1.1-2.1,1.6-3.9,1.6
		c-2.8,0-4.7-1.7-4.7-5.5c0-3.4,1.7-5.5,4.4-5.5c2.8,0,4.4,2,4.4,5.2v0.7H237.9z M243.2,7.6c-0.4-1-1.4-1.6-2.5-1.6
		s-2.1,0.6-2.5,1.6c-0.2,0.6-0.3,0.9-0.3,1.8h5.6C243.5,8.6,243.4,8.2,243.2,7.6z"/>
	<path class="st0" d="M251.7,15.6c-1.8,0-3.2-0.4-4.4-1.5l1-1c0.8,0.9,2,1.2,3.3,1.2c1.8,0,2.8-0.6,2.8-1.9c0-0.9-0.5-1.5-1.8-1.6
		l-1.8-0.2c-2.1-0.2-3.2-1.1-3.2-2.9c0-1.9,1.6-3.1,3.9-3.1c1.5,0,2.9,0.4,3.8,1.1l-1,1c-0.8-0.6-1.7-0.8-2.8-0.8
		c-1.6,0-2.4,0.7-2.4,1.8c0,0.9,0.5,1.5,1.9,1.6l1.7,0.2c1.9,0.2,3.1,0.9,3.1,2.9C256.1,14.5,254.3,15.6,251.7,15.6z"/>
</g>
</svg>
