<?xml version="1.0" encoding="utf-8"?>
<!-- Generator: Adobe Illustrator 21.1.0, SVG Export Plug-In . SVG Version: 6.00 Build 0)  -->
<svg version="1.1" id="Layer_1" xmlns="http://www.w3.org/2000/svg" xmlns:xlink="http://www.w3.org/1999/xlink" x="0px" y="0px"
	 viewBox="0 0 326.2 112.8" style="enable-background:new 0 0 326.2 112.8;" xml:space="preserve">
<style type="text/css">
	.st0{fill:#000056;}
</style>
<g>
	<path class="st0" d="M306.2,75c0,10.5,0,10.5,0,10.5c3.2,0,3.2,0,3.2,0c0,16.8,0,16.8,0,16.8c-3.2,0-3.2,0-3.2,0
		c0,10.5,0,10.5,0,10.5c20,0,20,0,20,0c0-10.5,0-10.5,0-10.5c-3.2,0-3.2,0-3.2,0c0-27.2,0-27.2,0-27.2H306.2z M323,61.2
		c-14.8,0-14.8,0-14.8,0c0,9.8,0,9.8,0,9.8c14.8,0,14.8,0,14.8,0V61.2z M284,66c0,9,0,9,0,9c-6.8,0-6.8,0-6.8,0
		c0,10.5,0,10.5,0,10.5c5.8,0,5.8,0,5.8,0c0,18.2,0,18.2,0,18.2c0,2.2,0,4.8,2,6.8c1.8,1.8,4.8,3,9,3c3,0,5.5-0.8,8-1
		c0-9.8,0-9.8,0-9.8c-0.5,0.2-1.2,0.5-2,0.5c-3.5,0-3.5-2.8-3.8-4.2c0-13.5,0-13.5,0-13.5c6,0,6,0,6,0c0-10.5,0-10.5,0-10.5
		c-6,0-6,0-6,0c0-11.8,0-11.8,0-11.8L284,66z M261.2,66c0,9,0,9,0,9c-4.8,0-4.8,0-4.8,0c0,10.5,0,10.5,0,10.5c3.8,0,3.8,0,3.8,0
		c0,18.2,0,18.2,0,18.2c0,2.2,0,4.8,2.2,6.8c1.5,1.8,4.8,3,8.8,3c3,0,5.5-0.8,8-1c0-9.8,0-9.8,0-9.8c-0.5,0.2-1.2,0.5-2,0.5
		c-3.5,0-3.5-2.8-3.5-4.2c0-13.5,0-13.5,0-13.5c7.8,0,7.8,0,7.8,0c0-10.5,0-10.5,0-10.5c-7.8,0-7.8,0-7.8,0c0-11.8,0-11.8,0-11.8
		L261.2,66z M241.8,99.8c-0.2,1.2-0.8,4.8-4.8,4.8c-4.8,0-4.8-5.2-4.8-8c23,0,23,0,23,0c0-3.5,0.2-12.2-5.2-17.5
		c-2.8-2.8-7.5-4.8-13.2-4.8c-7.8,0-14.8,3.5-17.2,12.2c-0.8,2.8-1,5.5-1,7.5c0,14.8,8.8,19.5,18.8,19.5c4.8,0,9.5-1.2,13-4.2
		c3.2-3.2,4-6.8,4.5-9.5H241.8z M232.8,89.2c0-1.5,0-5.8,4.5-5.8c1.5,0,3.5,0.8,4,2.8c0.5,1,0.5,2,0.5,3H232.8z M183.2,98.8
		c0,14,0,14,0,14c10.2,0,10.2,0,10.2,0c0.2-3,0.2-3,0.2-3c1,1.2,3.8,3.8,9.8,3.8c6.5,0,9.2-2.8,10-3.5c2.5-2.5,2.8-6,2.8-8
		c0-8.5-5-10.2-14-12.8c-4-1-4.8-1.2-5.2-2c-0.5-0.2-0.8-0.8-0.8-1.5c0-1.5,1.8-2.8,3.8-2.8c4.2,0,5,3.8,5.2,5.5
		c10.2,0,10.2,0,10.2,0c0-13.2,0-13.2,0-13.2c-10,0-10,0-10,0c-0.2,3-0.2,3-0.2,3C204,76.8,202,74,196,74c-9.2,0-13,6.2-13,11.5
		c0,9,8,11.2,12.2,12.5c2,0.5,3.5,1,5.5,1.5c0.8,0.2,2.2,0.8,2.2,2.5c0,1.2-1.2,2.8-3.8,2.8c-2.5,0.2-5.8-1.5-6-6H183.2z
		 M176.8,102.2c0-14.8,0-14.8,0-14.8c0-2.5-0.2-6-3-8.8C170.5,75.5,165,74,160,74c-5.2,0-12,1.8-14.8,7.2c-1,2-1.2,4-1.2,6
		c12.8,0,12.8,0,12.8,0c0-1.2,0-2.5,1-3.8c0.5-0.5,1.5-1,2.5-1c0.2,0,2.8,0,3.2,2.8c0.2,0.8,0.2,1,0.2,4c-3.8,0-11.2-0.2-16,3
		s-5,8.2-5,10c0,7.2,4,11.2,10.8,11.2s9.5-3.8,10.5-5.2c0.2,4.5,0.2,4.5,0.2,4.5c15.8,0,15.8,0,15.8,0c0-10.5,0-10.5,0-10.5H176.8z
		 M163.8,99.5c-0.2,1-0.2,2.5-1,3.5c-1,1.5-2.2,1.8-3.2,1.8c-2,0-3.2-1.2-3.2-3.8c0-1.8,0.8-4,3.2-4.8c1.5-0.5,2.8-0.2,4.2-0.2V99.5
		z M96.8,75c-15.5,0-15.5,0-15.5,0c0,10.5,0,10.5,0,10.5c3,0,3,0,3,0c0,16.8,0,16.8,0,16.8c-3,0-3,0-3,0c0,10.5,0,10.5,0,10.5
		c19,0,19,0,19,0c0-10.5,0-10.5,0-10.5c-2.2,0-2.2,0-2.2,0c0-10.8,0-10.8,0-10.8c0-2,0-4,1-5c0.5-0.5,1.2-1,2-1c3,0,3,2.8,3,5
		c0,22.2,0,22.2,0,22.2c15.8,0,15.8,0,15.8,0c0-10.5,0-10.5,0-10.5c-2.5,0-2.5,0-2.5,0c0-11.5,0-11.5,0-11.5
		c0.2-1.8,0.2-3.2,1.2-4.2c0.8-0.8,1.5-1,2.2-1c2.8,0,2.8,2.5,2.8,4.2c0,23,0,23,0,23c16.8,0,16.8,0,16.8,0c0-10.5,0-10.5,0-10.5
		c-3.2,0-3.2,0-3.2,0c0-18,0-18,0-18c0-2.5,0-5.5-2.5-7.8c-1.2-1.2-3.5-2.2-7-2.2s-6.5,1-8.8,3c-1,1.2-1.2,2-1.8,3
		c-0.5-1.2-0.8-2-2-3.2c-2.5-2.5-5.5-2.8-7.2-2.8c-6,0-9.2,3.2-10.5,5.8L96.8,75z M41,93.5c0,3.2,0.2,10.2,5.2,15.5
		c2.8,2.8,5.8,3.5,8.8,4.2c1.8,0.2,3.5,0.2,5.2,0.2c3,0,6.8-0.5,9.8-1.8c3-1.5,6-4,8-9.5c1-2.5,1.2-5.5,1.2-8.2
		c0-12-6.2-19.8-19.2-19.8c-3.2,0-6.8,0.5-10.2,2.2C41,81.2,41,90.5,41,93.5 M65.5,93.8c0,2.5,0,9.5-5.5,9.5c-2.5,0-3.8-1.8-4.2-3
		c-1-2-1-4.5-1-6.5c0-2.2,0-6,2-8.2c1-0.8,2-1.2,3.2-1.2C65.5,84.2,65.5,91.2,65.5,93.8 M0,61.2c45.5,0,45.5,0,45.5,0
		c0,16,0,16,0,16c-11,0-11,0-11,0c0-5.5,0-5.5,0-5.5c-5,0-5,0-5,0c0,30.5,0,30.5,0,30.5c3.8,0,3.8,0,3.8,0c0,10.5,0,10.5,0,10.5
		c-21,0-21,0-21,0c0-10.5,0-10.5,0-10.5c3.8,0,3.8,0,3.8,0c0-30.5,0-30.5,0-30.5c-5,0-5,0-5,0c0,5.5,0,5.5,0,5.5c-11,0-11,0-11,0
		V61.2z"/>
	<path class="st0" d="M113.8,41.8c-2.5,0-3.8-1.8-4.5-3c-1-2-1-4.5-1-6.5c0-2.2,0-6.2,2.2-8.5c1-0.8,2-1.2,3.2-1.2
		c5.8,0,5.8,7.2,5.8,9.5C119.5,34.5,119.5,41.8,113.8,41.8 M113.8,12.2c-3.2,0-7,0.5-10.8,2.5c-9,4.5-9,14-9,17
		c0,3.5,0.2,10.8,5.5,15.8c2.8,2.8,6,3.8,9,4.2c1.8,0.5,3.8,0.5,5.5,0.5c3.2,0,7-0.5,10.2-2c3-1.2,6.2-3.8,8.2-9.5
		c1-2.8,1.2-5.5,1.2-8.5C133.8,20.2,127.2,12.2,113.8,12.2"/>
	<path class="st0" d="M152.5,19.8c-0.2-6.8-0.2-6.8-0.2-6.8C137,13,137,13,137,13c0,10.8,0,10.8,0,10.8c3.2,0,3.2,0,3.2,0
		c0,17,0,17,0,17c-3.2,0-3.2,0-3.2,0c0,10.5,0,10.5,0,10.5c21.5,0,21.5,0,21.5,0c0-10.5,0-10.5,0-10.5c-4.8,0-4.8,0-4.8,0
		c0.2-6.2,0.2-6.2,0.2-6.2c0-3.5,0-5.5,1.8-7.2c1.5-1.5,3.8-2.2,6.8-2.2c1.2,0,2.2,0.2,3.2,0.2c0-12.2,0-12.2,0-12.2
		c-1.2-0.2-2-0.2-3.8-0.2C154.5,12.8,153.2,17.8,152.5,19.8"/>
	<path class="st0" d="M89,24c0-2.8-0.2-6.2-2.8-8.8c-1.8-1.5-4.5-3-8.8-3c-7,0-9.2,3.2-11,5.2c0-17.5,0-17.5,0-17.5
		C49.2,0,49.2,0,49.2,0c0,9.8,0,9.8,0,9.8c3.2,0,3.2,0,3.2,0c0,31,0,31,0,31c-3.2,0-3.2,0-3.2,0c0,10.5,0,10.5,0,10.5
		c20.2,0,20.2,0,20.2,0c0-10.5,0-10.5,0-10.5c-3,0-3,0-3,0c0-12.2,0-12.2,0-12.2c0-1.2,0-2.5,1.2-3.8c1-1,2.2-1.2,3-1.2
		c4,0,4,3,4.2,4.8c0,23,0,23,0,23c17.2,0,17.2,0,17.2,0c0-10.5,0-10.5,0-10.5c-3.2,0-3.2,0-3.2,0V24z"/>
	<path class="st0" d="M322.5,40.8c0-17.5,0-17.5,0-17.5c-0.2-2.5-0.2-5.8-2.8-8.2c-1.5-1.5-4.2-3-8.2-3c-4.5,0-7.8,1.8-10,3.8
		c-1.2,1.2-1.8,2.2-2.2,3.2c-0.5-6-0.5-6-0.5-6c-15.5,0-15.5,0-15.5,0c0,10.8,0,10.8,0,10.8c3.2,0,3.2,0,3.2,0c0,17,0,17,0,17
		c-3.2,0-3.2,0-3.2,0c0,10.5,0,10.5,0,10.5c19.8,0,19.8,0,19.8,0c0-10.5,0-10.5,0-10.5c-2.5,0-2.5,0-2.5,0c0-10.5,0-10.5,0-10.5
		c0-2,0-3.8,1.5-5c0.8-0.8,1.8-1.2,2.8-1.2c1.2,0,2.8,0.5,3.2,2c0.2,0.8,0.5,1.5,0.5,2.8c0,22.5,0,22.5,0,22.5c17.2,0,17.2,0,17.2,0
		c0-10.5,0-10.5,0-10.5H322.5z"/>
	<path class="st0" d="M261.2,41.8c-2.5,0-3.8-1.8-4.5-3c-1-2-1-4.5-1-6.5c0-2.2,0-6.2,2.2-8.5c0.8-0.8,2-1.2,3.2-1.2
		c5.8,0,5.8,7.2,5.8,9.5C267,34.5,267,41.8,261.2,41.8 M261.2,12.2c-3.2,0-7,0.5-10.8,2.5c-9,4.5-9,14-9,17c0,3.5,0,10.8,5.5,15.8
		c2.8,2.8,5.8,3.8,9,4.2c1.8,0.5,3.5,0.5,5.5,0.5c3.2,0,7-0.5,10-2c3.2-1.2,6.5-3.8,8.5-9.5c1-2.8,1.2-5.5,1.2-8.5
		C281.2,20.2,274.8,12.2,261.2,12.2"/>
	<path class="st0" d="M231,1.2C218.2,4,218.2,4,218.2,4c0,9,0,9,0,9c-4.5,0-4.5,0-4.5,0c0,10.8,0,10.8,0,10.8c3.2,0,3.2,0,3.2,0
		c0,18.5,0,18.5,0,18.5c0,2.2,0.2,5,2.2,7c1.8,1.5,5,2.8,9.5,2.8c2.8,0,5.5-0.5,8.2-1c0-9.8,0-9.8,0-9.8c-0.8,0.2-1.2,0.5-2.2,0.5
		c-3.5,0-3.8-3-3.8-4.2c0-13.8,0-13.8,0-13.8c6.2,0,6.2,0,6.2,0c0-10.8,0-10.8,0-10.8c-6.2,0-6.2,0-6.2,0V1.2z"/>
	<path class="st0" d="M209.2,23.2c0-2.5,0-5.8-2.8-8.2c-1.2-1.5-4-3-8.2-3s-7.5,1.8-9.8,3.8c-1.2,1.2-1.8,2.2-2.5,3.2
		c-0.2-6-0.2-6-0.2-6c-15.5,0-15.5,0-15.5,0c0,10.8,0,10.8,0,10.8c3,0,3,0,3,0c0,17,0,17,0,17c-3,0-3,0-3,0c0,10.5,0,10.5,0,10.5
		c19.8,0,19.8,0,19.8,0c0-10.5,0-10.5,0-10.5c-2.8,0-2.8,0-2.8,0c0-10.5,0-10.5,0-10.5c0.2-2,0.2-3.8,1.5-5c0.8-0.8,1.8-1.2,3-1.2
		c1,0,2.5,0.5,3.2,2c0.2,0.8,0.2,1.5,0.2,2.8c0,22.5,0,22.5,0,22.5c17.2,0,17.2,0,17.2,0c0-10.5,0-10.5,0-10.5c-3.2,0-3.2,0-3.2,0
		V23.2z"/>
	<polygon class="st0" points="0,0 45.2,0 45.2,16 34.5,16 34.5,10.5 29.2,10.5 29.2,41 33,40.8 33,51.2 12,51.2 12,40.8 15.8,41 
		15.8,10.5 10.8,10.5 10.8,16 0,16 0,0 	"/>
</g>
</svg>
