<?xml version="1.0" encoding="utf-8"?>
<!-- Generator: Adobe Illustrator 21.1.0, SVG Export Plug-In . SVG Version: 6.00 Build 0)  -->
<svg version="1.1" id="VHB_logo" xmlns="http://www.w3.org/2000/svg" xmlns:xlink="http://www.w3.org/1999/xlink" x="0px" y="0px"
	 viewBox="0 0 456.3 229.2" style="enable-background:new 0 0 456.3 229.2;" xml:space="preserve">
<style type="text/css">
	.st0{opacity:0.5;fill:#1B1852;enable-background:new    ;}
	.st1{fill:none;stroke:#808285;stroke-width:9.0458;stroke-miterlimit:10;}
	.st2{fill:#1B1852;}
</style>
<path class="st0" d="M120.1,76c-8.5-6.3-15.4-13.2-21.1-20.1c-21.3,7.8-42.9,22.5-52.7,33.2C63.5,89.9,87.4,86.8,120.1,76z"/>
<path class="st0" d="M13,80c6.7-16.9,35-40,67.8-53.8C76.2,15.4,74.2,7,73.5,3.6c-1.7,0.8-12.6,5.5-17,7.9
	C20.4,31.3-2,55.4,4.3,71.6c0,0,0,0,0,0.1C4.8,72.4,7.1,76.1,13,80z"/>
<path class="st0" d="M95.8,51.8c-5.8-7.7-10-15.1-13.1-21.5c-22.3,9.8-33.1,16.3-46.5,28.1c-9.8,8.6-16.4,16.7-19,24
	c5.4,2.7,12.9,5.2,23,6.2C50.1,76.7,67.7,63.8,95.8,51.8z"/>
<path class="st1" d="M211.3,207.7"/>
<path class="st2" d="M180.1,74.3c0,0,13.7-3.7,10.6-15.2l-3.4-11.5c2.1-0.6-13.6,2.2-10.3,16L180.1,74.3z"/>
<path class="st2" d="M197.6,84l-3.1-11c-1.9,1.4-13.8,3.7-10,17.3l2.5,9.3C187,99.7,200.4,95.1,197.6,84z"/>
<path class="st2" d="M204,38.7c0,0-14.4,7.1-4.7,26.2C199.4,64.9,215.2,57.6,204,38.7z"/>
<path class="st2" d="M205.8,89c1-0.5,15.4-7.4,6.1-25.5C211.9,63.4,197.3,69.2,205.8,89z"/>
<path class="st2" d="M155.4,86.9c5.6-2.4,10.5-4,19.1-8.7c-2.1-6.6-4.7-13.9-7.6-21.3c-5.2,2.7-13.5,6.1-19.4,8.6
	c0.1,0.3,0.2,0.6,0.3,0.9C150.5,73.2,153.1,80.1,155.4,86.9z"/>
<path class="st2" d="M176,82.7c-6.9,3.8-10.9,5.2-19,8.6c2.2,6.8,4.1,13.4,5.5,19.6c5.6-2.3,13.7-5.6,18.6-8.2
	C179.5,95.7,178.6,91.8,176,82.7z"/>
<path class="st2" d="M154.1,140.2c0.6-0.2,1.1-0.4,1.7-0.6c2.8-4.7,2.8-12.8,1.2-22c-3.5,1.4-7,2.7-10.7,4
	c-9.7,3.4-19.3,6.2-28.8,8.2c-22.4,5-43.4,6.2-59.1,3.3C84.6,147.2,117.6,151.8,154.1,140.2z"/>
<path class="st2" d="M141.6,68c-5,2.1-10.1,4.1-15.4,5.9c-0.4,0.2-5.3,1.8-6,2c-32.8,10.9-56.7,14-73.9,13.2
	c-2.1-0.1-4.1-0.2-6.1-0.4c-10.1-1.1-17.6-3.5-23-6.2c-1.6-0.8-3-1.6-4.3-2.5c-5.9-3.8-8.2-7.6-8.6-8.3c0.1,0.2,0.2,0.5,0.3,0.7
	c3.5,9,8.2,17.8,14,25.8c15.6,15.9,64.4,14.7,116.3-3.6c4.9-1.7,9.7-3.6,14.4-5.5C146.5,80.6,141.6,68.3,141.6,68z"/>
<path class="st2" d="M48.2,127c21.7,7.9,58.1,4,96.4-9.5c3.9-1.4,7.8-2.9,11.5-4.4c-1.4-6.5-3.3-13.3-5.4-19.7
	c-4.5,1.9-9.2,3.7-14,5.3c-11.5,4-22.8,7.3-33.6,9.7c-32.7,7.3-59.7,7.9-75.8,0.5C33.5,115.6,40.5,121.7,48.2,127z"/>
<path class="st2" d="M163.3,115.6c1.5,8.6,1.8,16.2,0.2,22.1c4.4-1.8,8.1-3.6,12.8-5.7c8.3-3.7,8.4-11.8,5.7-24.3
	C176.3,110.3,169.5,113,163.3,115.6z"/>
<path class="st2" d="M201.9,98c0,0-13,3.9-11.8,14c0,0,0.9,9.8,0.5,13.7c0,0,14.5-4.1,13.8-14.2C204.4,111.5,204.1,103.7,201.9,98z"
	/>
<path class="st2" d="M221.9,30.5c0,0-13.3,3.4-4.6,23.3C217.3,53.7,232.4,47.6,221.9,30.5z"/>
<path class="st2" d="M293.2,138.1c0,0,8.5-4.5,21.7-2.6c11.4,1.6,25.6,8,24.8,29.9v61.2H315c0,0,0.1-33.3,0.2-48.4
	c0.1-15.9-1.5-22.7-13.3-23.2c0,0-13.6-1.4-18.8,11.3L293.2,138.1z"/>
<path class="st2" d="M197,226.6l-33.5-88.7h27l19.5,64l18.2-64h25.5l-31.5,88.7H197z"/>
<rect x="258.1" y="86.7" class="st2" width="25.3" height="139.9"/>
<path class="st2" d="M433.9,167.6c-2.2-19.1-19.5-42-50.7-29.7l-10.8,29c0.6-1.7,4.9-13.3,20.8-13.3c14.1,0,18.7,11.5,19.4,20.2
	c0.3,4.1,3.2,34.5-19.4,34.3c-24.4-0.1-20.2-30.9-20.1-43.1V86.5h-24.2V171c0,0-1.2,26.6,8,41.7c3.1,5.1,13.9,17.8,37.1,16.4
	C409.2,228.2,439.7,218.5,433.9,167.6z"/>
</svg>
