<?xml version="1.0" encoding="utf-8"?>
<!-- Generator: Adobe Illustrator 21.0.2, SVG Export Plug-In . SVG Version: 6.00 Build 0)  -->
<svg version="1.1" id="Layer_1" xmlns="http://www.w3.org/2000/svg" xmlns:xlink="http://www.w3.org/1999/xlink" x="0px" y="0px"
	 viewBox="0 0 470.7 144" style="enable-background:new 0 0 470.7 144;" xml:space="preserve">
<style type="text/css">
	.st0{fill:#000056;}
</style>
<path class="st0" d="M0,0v144h144V0H0z M119.6,64.4c0,4.5-1.8,8.2-10.3,12.6c-2.3,1.2-6.9,3.3-6.9,3.3c0.2-0.4,0.2-1,0.1-1.4
	c0,0-0.7-0.9-2.2-1.5c0,0,7.8-6.1,10-7.7c5.3-4,7.8-6.7,8.8-8.5C119.2,61.6,119.6,62.6,119.6,64.4z M44.5,74
	c0.7-0.3,1.5-0.9,3.8-0.9c-0.2-1.2-0.2-3.4,0.8-4.9c2.9,0.9,4.1,3.2,5.2,5.5c1.2,2.4,3.2,6.9,3.2,12.6c0,2,0.5,5.5,1,8.1
	c-2.2,0-4.9-0.1-6.5-1.3c0.4-1.3,0.9-2.4,1.7-3.1c-2.3-0.4-5.4-1-6.9-2.7c0.4-1.3,1-2.1,1.9-2.8c-2.2-1-3.8-2.7-4.4-4.8
	c0.9-0.8,2.4-1.3,3.6-1.4C46.5,77.3,44.9,75.6,44.5,74z M99.5,74c-0.4,1.6-1.9,3.3-3.4,4.2c1.2,0.1,2.7,0.6,3.6,1.4
	c-0.6,2.1-2.3,3.8-4.4,4.8c0.9,0.7,1.5,1.5,1.9,2.8c-1.5,1.8-4.6,2.3-6.9,2.7c0.8,0.7,1.4,1.8,1.7,3.1c-1.6,1.2-4.3,1.3-6.5,1.3
	c0.5-2.6,1-6.1,1-8.1c0-5.8,2-10.2,3.2-12.6c1.1-2.2,2.3-4.6,5.2-5.5c1,1.5,1,3.7,0.8,4.9C98,73.1,98.8,73.7,99.5,74z M89.6,65.7
	C87.2,70,85.2,76.8,85,79.4c-0.5-0.9-1-3.3-1-6.3c0-3.1,0.6-8.3,3.9-15.6c1-2.2,3.1-6.8,7-15.6c2.9-6.5,3.9-10.5,3.9-13.7
	c2.7,1.3,4.5,4.4,4.5,7.9c0,4.4-1,7.8-4.4,13.7C96.9,53.1,92.3,61.1,89.6,65.7z M77.2,107.9l-1.7-0.3c-2.3-0.4-4.6-0.4-6.9,0l-2,0.3
	c-2.3-5.7-5.9-14.5-5.9-22.2c0-4.2,1.3-8.4,5.6-9.9c1,0.6,2.1,1.9,2.6,2.7c0.7-1,2.1-2.2,3.2-2.6c1.1,0.4,2.5,1.6,3.2,2.6
	c0.5-0.8,1.6-2.1,2.6-2.7c4.3,1.5,5.6,5.7,5.6,9.9C83.4,93.6,79.5,102.9,77.2,107.9z M82.9,111.4c1,0,1.5,0.8,1.5,1.6
	c0,1.6-3.4,2.5-3.4,2.5s0.8-0.8,0.8-2.1c0-0.2,0-0.6,0-0.9C81.9,111.9,82.2,111.4,82.9,111.4z M73,110.3c0-0.7,0.3-1.2,1.2-1.2
	c1.3,0,1.9,1,1.9,2.2c0,1.8-3.1,3.2-3.1,3.2s0.2-1.1,0.2-2.3C73.2,111.3,73,110.9,73,110.3z M71,114.5c0,0-3.1-1.4-3.1-3.2
	c0-1.2,0.6-2.2,1.9-2.2c0.9,0,1.2,0.6,1.2,1.2c0,0.5-0.2,1-0.2,1.9C70.8,113.4,71,114.5,71,114.5z M63,115.4c0,0-3.4-0.8-3.4-2.5
	c0-0.7,0.5-1.6,1.5-1.6c0.7,0,1,0.5,1.1,1.1c0,0.3,0,0.7,0,0.9C62.2,114.7,63,115.4,63,115.4z M73,58.1c0.1-0.7-2.4-2.4-2.4-3
	c0-0.3,0.3-0.4,0.9-0.4c1.8,0,2.9,0.8,4.5,3.4c0.6,1,2.1,4.4,2.1,4.4s-0.6,0.1-0.9,0.2c-0.6,0.2-0.9,0.5-0.9,1
	c0,1.8,2.5,7.3,4.4,10.9c-0.8-0.5-2.3-1.4-3.3-1.6c-1,0.6-2,1.7-2.5,2.6c-0.5-0.9-1.9-2.1-3-2.5c-1.1,0.5-2.4,1.6-3,2.5
	c-0.5-0.9-1.5-2-2.5-2.6c-1,0.2-2.6,1.2-3.4,1.8c2-3.4,4-6.5,4-10.3c0-2.8-1-4.6-2.6-6.5c-1.1-1.4-1.8-1.8-2.8-1.8
	c-0.6,0-1.6,0.5-1.6,0.5c0.6-1.9,2.2-4.2,4.1-4.2c1.8,0,3.8,1.4,4.7,2.1c0.1,0.1,0.3,0.2,0.2,0.7C68.9,57.9,72.9,58.5,73,58.1z
	 M62.7,70.4c0-2.9-0.6-5.7-2-9v-2.6c0.1,0,0.4-0.1,0.6-0.1c0.6,0,0.9,0.2,1.6,1.1c0.7,1,1.5,2.4,1.5,4.7
	C64.5,66.3,63.7,68.4,62.7,70.4z M83.1,32.8V33l0,28.1c-1,2.9-1.6,5.2-1.8,8.3c-0.7-1.4-1.7-3.7-1.7-3.9c-0.1-0.2-0.2-0.7-0.2-0.9
	c0-0.2,0.2-0.4,0.6-0.5c0.5-0.1,1.2-0.2,1.2-0.2l-3.5-7.7V32.8c0-1-0.6-1.5-1.4-1.5h-0.1h0h0h-0.1c-0.7,0-1.4,0.5-1.4,1.5v20.3
	c-0.5-0.3-1.4-0.8-2.9-0.8c-0.7,0-1.1,0.1-1.3,0.1c-0.4,0-0.5-0.1-0.8-0.3c-0.2-0.1-0.3-0.2-0.4-0.3l0-18.8v-0.2
	c0-1-0.6-1.5-1.4-1.5h-0.1h0h0h-0.1c-0.7,0-1.4,0.5-1.4,1.5l0,17.3c-0.2-0.1-0.8-0.3-1.5-0.3c-2.1,0-3.5,1.4-3.8,1.8V32.8
	c0-1-0.6-1.5-1.4-1.5h-0.3c-0.7,0-1.4,0.5-1.4,1.5v21.4L53,43.1V27h38l0,15.7L86.1,54V33.1c0,0,0,0,0,0v-0.2c0-1-0.6-1.5-1.4-1.5
	h-0.1h0h-0.1C83.7,31.3,83.1,31.8,83.1,32.8z M94.5,24.2H49.5c-3.9,0-5.5-2.8-5.5-5.6h55.9C99.9,21.4,98.3,24.2,94.5,24.2z
	 M45.2,28.2c0,3.2,1,7.2,3.9,13.7c3.9,8.8,6,13.4,7,15.6c3.3,7.3,3.9,12.5,3.9,15.6c0,3-0.5,5.4-1,6.3c-0.3-2.6-2.2-9.4-4.7-13.7
	c-2.7-4.6-7.3-12.6-9.2-15.8c-3.4-5.9-4.4-9.3-4.4-13.7C40.7,32.7,42.6,29.5,45.2,28.2z M44.9,84.4c-0.4,0.5-0.9,1.7-1,2.2
	c0,0-3,0.2-5.1,0.1c-9.8,0-13.3-5-13.3-10.9c0-0.3,0-0.6,0-0.8c0.8,0.6,3,2.7,7.3,4.7C36.5,81.7,43.5,84,44.9,84.4z M38.6,90
	c1.6,0,3.5-0.2,5.5-0.5c1.1,1.4,3.2,2.3,4.9,2.4c-2.8,1.8-8.3,3.3-11,3.4c-4.3,0.1-7.3-2.2-8.3-6.5C30.7,88.9,33.9,90,38.6,90z
	 M43.1,97.8c2.7-0.8,6.6-2.7,6.6-2.7c1,1.1,3.5,1.9,5.1,1.8c0,0-3.2,2.6-4.8,3.9c-1.8,1.4-3.1,2.5-6.7,2.5c-3.2,0-6.2-1.5-7.1-3.9
	C37.2,99.3,39,99,43.1,97.8z M51.9,103.3c2.4-2,7.3-5.8,7.3-5.8c0.3,1.7,1.9,5.4,1.9,5.4s-2.2,3.3-2.5,3.6c-2.2,3.2-4.1,3.8-6.6,3.8
	c-2.6,0-5.8-2-6.6-3C47.3,106.9,50.4,104.5,51.9,103.3z M58.2,116.2c1.6,1.5,4.4,1.9,6,1.9c0,0-0.6,1.2-1.3,2.6
	c-1.2,2.3-3.9,3.2-6.4,3.2c-1.1,0-2.1-0.4-2.9-0.6L58.2,116.2z M63.6,112.1c0-1.1,0.5-2.2,1.7-2.2c0.8,0,1.1,0.5,1.1,1.2
	c0,0.3-0.1,1.1-0.1,1.3c0,1.7,0.2,2.4,0.2,2.4S63.6,113.7,63.6,112.1z M66.5,119.9c0.6-1.3,1.2-2.7,1.2-2.7l4.3-0.9l4.3,0.9
	c0,0,0.6,1.4,1.2,2.7c0.6,1.3,1,2.2,1,2.9c0,1.4-6.5,3.7-6.5,3.7s-6.5-2.3-6.5-3.7C65.5,122.2,65.9,121.3,66.5,119.9z M77.5,114.9
	c0,0,0.2-0.8,0.2-2.4c0-0.2-0.1-1-0.1-1.3c0-0.7,0.4-1.2,1.1-1.2c1.2,0,1.7,1,1.7,2.2C80.4,113.7,77.5,114.9,77.5,114.9z
	 M85.8,116.2l4.6,7.2c-0.8,0.1-1.8,0.6-2.9,0.6c-2.6,0-5.3-0.9-6.4-3.2c-0.7-1.4-1.3-2.6-1.3-2.6C81.4,118.2,84.2,117.7,85.8,116.2z
	 M85.4,106.5c-0.2-0.4-2.5-3.6-2.5-3.6s1.5-3.6,1.9-5.4c0,0,4.8,3.9,7.3,5.8c1.5,1.2,4.6,3.6,6.5,4c-0.8,1-4,3-6.6,3
	C89.5,110.3,87.6,109.7,85.4,106.5z M94,100.8c-1.6-1.3-4.8-3.9-4.8-3.9c1.7,0.1,4.1-0.8,5.1-1.8c0,0,3.9,1.9,6.6,2.7
	c4.1,1.3,5.9,1.5,6.8,1.7c-0.9,2.4-3.9,3.9-7.1,3.9C97.1,103.3,95.8,102.2,94,100.8z M106,95.3c-2.7-0.1-8.3-1.7-11-3.4
	c1.7-0.2,3.8-1,4.9-2.4c2,0.3,3.9,0.5,5.5,0.5c4.8,0,7.9-1.1,8.9-1.2C113.3,93.1,110.3,95.5,106,95.3z M105.4,86.7
	c-2.1,0-5.1-0.1-5.1-0.1c-0.1-0.5-0.7-1.7-1-2.2c1.4-0.4,8.4-2.7,12.2-4.5c4.2-2,6.5-4.1,7.3-4.7c0,0.2,0,0.4,0,0.8
	C118.7,81.7,115.2,86.7,105.4,86.7z M118.2,51.2c0,6.8-3.7,11-8.5,14.9c-3.9,3.1-7.5,6.1-7.5,6.1c0.1,0.2-1.8-1.4-4.4-1.3
	c0,0,9.4-11.4,12.3-15c3.9-4.9,6-7.7,6.8-10C117.7,46.8,118.2,48.9,118.2,51.2z M110.2,28.8c2.8,1.2,4.7,5.4,4.7,8.3
	c0,3.9-1,8.9-6.8,16.1c-4.7,5.8-10.8,13.5-10.8,13.5c-0.1-0.5-0.6-1.4-1-1.8c-1.1,0-2.4,0.4-2.9,0.7c0,0,10.4-17.8,12.9-22.2
	C109.7,37.5,110.2,33,110.2,28.8z M38.7,8.2h66.7v7.5H38.7V8.2z M33.8,28.8c0,4.2,0.5,8.7,3.9,14.5c2.6,4.4,12.9,22.2,12.9,22.2
	c-0.6-0.3-1.8-0.7-2.9-0.7c-0.4,0.4-0.8,1.2-1,1.8c0,0-6.2-7.7-10.8-13.5C30,46,29.1,41.1,29.1,37.1C29.1,34.2,31,30.1,33.8,28.8z
	 M27.1,45.8c0.8,2.3,2.9,5.2,6.8,10c2.9,3.6,12.3,15,12.3,15c-2.6-0.1-4.4,1.5-4.4,1.3c0,0-3.6-3-7.5-6.1c-4.8-3.9-8.5-8.1-8.5-14.9
	C25.8,48.9,26.3,46.8,27.1,45.8z M25,61.2c1,1.8,3.4,4.5,8.8,8.5c2.2,1.6,10,7.7,10,7.7c-1.5,0.6-2.2,1.5-2.2,1.5
	c-0.1,0.3-0.1,1,0.1,1.4c0,0-4.6-2.1-6.9-3.3c-8.5-4.4-10.3-8.1-10.3-12.6C24.4,62.6,24.8,61.6,25,61.2z M23.2,94
	c1.6,0,3.4,0.3,4.8,1.3c0.5,0.4,1.5,1.3,1.5,1.9c0,0.6-0.4,0.9-0.5,1.1c-1.6,2.1-4.2,2.5-6.3,2.5c-3.4,0-6.7-1.6-9.2-3.1
	C14.7,96.9,19.2,94,23.2,94z M18.9,109.1c2-1.9,6.4-6.1,11.5-6.1c1,0,2,0.2,2.9,0.6c0.6,0.3,1.9,1,1.9,1.9c0,0.9-0.8,1.9-1.2,2.3
	c-1.3,1.5-4,2.8-7.6,2.8C23.8,110.6,21,109.8,18.9,109.1z M27,119c2.8-4.1,6.7-9.3,12.3-9.3c1.5,0,2.6,0.5,3.2,0.9
	c0.4,0.2,0.5,0.6,0.5,1.1c0,3.2-4.1,7.5-12.4,7.5C29.4,119.2,28.2,119.1,27,119z M45.1,115.8c1.5-1.2,3.5-2.4,5.7-2.4
	c1.2,0,2.2,0.2,2.6,0.8c0.2,0.3,0.3,0.7,0.3,1.2c0,2.8-2,4.9-3.8,6.3c-2.9,2.3-8.2,3.1-11.4,3.5C39.1,123.7,42.2,118.2,45.1,115.8z
	 M105.3,135.7H38.7v-7.5h66.7V135.7z M94.2,121.8c-1.8-1.4-3.8-3.5-3.8-6.3c0-0.5,0.1-0.9,0.3-1.2c0.4-0.6,1.4-0.8,2.6-0.8
	c2.2,0,4.2,1.2,5.7,2.4c2.9,2.3,6,7.8,6.6,9.4C102.4,125,97.1,124.1,94.2,121.8z M113.3,119.2c-8.3,0-12.4-4.3-12.4-7.5
	c0-0.4,0.2-0.8,0.5-1.1c0.6-0.4,1.7-0.9,3.2-0.9c5.7,0,9.5,5.2,12.3,9.3C115.9,119.1,114.6,119.2,113.3,119.2z M117.6,110.6
	c-3.6,0-6.3-1.3-7.6-2.8c-0.3-0.4-1.2-1.4-1.2-2.3c0-1,1.3-1.7,1.9-1.9c0.9-0.4,1.9-0.6,2.9-0.6c5.1,0,9.4,4.2,11.5,6.1
	C123,109.8,120.2,110.6,117.6,110.6z M121.4,100.9c-2.1,0-4.8-0.4-6.3-2.5c-0.1-0.2-0.5-0.5-0.5-1.1c0-0.7,1-1.6,1.5-1.9
	c1.4-1,3.2-1.3,4.8-1.3c4,0,8.5,2.9,9.8,3.7C128.1,99.2,124.8,100.9,121.4,100.9z"/>
<g>
	<path class="st0" d="M211,48.6h-16.4l-3.7,11.9h-12.5l18-52.3h13.6l18,52.3h-13.3L211,48.6z M202.8,22l-7,22.7h14L202.8,22z"/>
	<path class="st0" d="M231.1,60.5v-3.1h7.2V11.3h-7.2V8.2h27.3v3.1h-7.2v46.2h7.2v3.1H231.1z"/>
	<path class="st0" d="M294.2,48.6h-16.4l-3.7,11.9h-12.5l18-52.3h13.6l18,52.3h-13.3L294.2,48.6z M286,22l-7,22.7h14L286,22z"/>
</g>
<g>
	<path class="st0" d="M191.9,91.5l-2.2-3.6l0.1,4.5l0.2,43.1h-5.2V83.2h7.3l26.8,40l2.8,4.6l-0.1-5.4l-0.2-39.1h5.2v52.3h-5.2
		L191.9,91.5z"/>
	<path class="st0" d="M251.8,136c-9.2,0-16.8-6.4-16.8-18.5c0-12.1,7.3-18.7,16.1-18.7c8.2,0,15.1,6.5,15.1,18.1v0.6h-26.3
		c0,9,5.2,14.5,11.9,14.5c4.3,0,8-2.2,9.3-7h4.6C263.5,133,258.2,136,251.8,136z M240,115.3h21.2c-0.4-7.8-4.7-12.5-10.1-12.5
		C245.4,102.9,240.7,107.5,240,115.3z"/>
	<path class="st0" d="M296.9,99.4l7.8,26.1l1,3.4l0.9-3.4l7.2-26.1h5.2l-10.7,36.1h-5.1l-7.5-24.5l-1.3-4.9l-1.4,4.9l-7.4,24.5h-5.1
		l-10.7-36.1h5.2l7.2,26.1l0.9,3.3l1-3.3l7.8-26.1H296.9z"/>
	<path class="st0" d="M355.7,135.5V113l-17.1-29.7h6l14,24.9l14-24.9h5.8L361.4,113v22.6H355.7z"/>
	<path class="st0" d="M375.2,117.5c0-12.2,8-18.6,17.2-18.6c9.3,0,17.2,6.4,17.2,18.6c0,12.2-8,18.6-17.2,18.6
		C383.2,136.1,375.2,129.7,375.2,117.5z M380.2,117.5c0,9,5.5,14.6,12.2,14.6c6.7,0,12.2-5.6,12.2-14.6c0-9-5.5-14.6-12.2-14.6
		C385.6,102.9,380.2,108.5,380.2,117.5z"/>
	<path class="st0" d="M416.9,135.5V99.4h4.3l0.2,9.1c3.7-6.7,8.7-9.9,14.2-9.6v4.6c-5.3-0.4-10.5,3.1-13.7,10.4v21.7H416.9z"/>
	<path class="st0" d="M450.2,118.4H446v17.1h-5V83.2h5v32.9h3.4l13.4-16.7h5.6l-13.9,17l14.9,19h-5.8L450.2,118.4z"/>
</g>
</svg>
