<?xml version="1.0" encoding="utf-8"?>
<!-- Generator: Adobe Illustrator 20.0.0, SVG Export Plug-In . SVG Version: 6.00 Build 0)  -->
<svg version="1.1" id="Layer_1" xmlns="http://www.w3.org/2000/svg" xmlns:xlink="http://www.w3.org/1999/xlink" x="0px" y="0px"
	 viewBox="0 0 218 183" style="enable-background:new 0 0 218 183;" xml:space="preserve">
<style type="text/css">
	.st0{fill:#221F20;}
	.st1{fill:#FEFEFE;}
</style>
<title>Logo</title>
<desc>Created with Sketch.</desc>
<g id="Page-3">
	<g id="Desktop-HD-Copy-31" transform="translate(-1652.000000, -1057.000000)">
		<g id="Logo" transform="translate(1652.000000, 1057.000000)">
			<path id="Fill-1" class="st0" d="M57.5,161.1h-1.5v-18.9c0-0.3-0.2-0.6-0.4-0.8c-0.5-0.3-11.5-7.6-26.3-7.6s-25.8,7.3-26.3,7.6
				c-0.3,0.2-0.4,0.5-0.4,0.8v18.9H1c-0.5,0-1,0.4-1,1v19.8c0,0.5,0.4,1,1,1h56.5c0.5,0,1-0.4,1-1v-19.8
				C58.4,161.5,58,161.1,57.5,161.1"/>
			<path id="Fill-3" class="st1" d="M53.6,161.1H4.9c-0.2,0-0.4-0.2-0.4-0.4v-17c0-0.2,0.2-0.4,0.4-0.4h48.7c0.2,0,0.4,0.2,0.4,0.4
				v17C54,160.9,53.8,161.1,53.6,161.1"/>
			<path id="Fill-5" class="st1" d="M56.1,180.8H2.4c-0.2,0-0.4-0.2-0.4-0.4v-16.9c0-0.2,0.2-0.4,0.4-0.4h53.7
				c0.2,0,0.4,0.2,0.4,0.4v16.9C56.5,180.6,56.3,180.8,56.1,180.8"/>
			<path id="Fill-7" class="st0" d="M14.2,158.7H13c-0.2,0-0.4-0.2-0.4-0.4v-6.6c0-0.3-0.3-0.6-0.6-0.6c-0.3,0-0.5,0.2-0.6,0.4
				l-0.5,1.2c-0.1,0.1-0.2,0.2-0.3,0.2c-0.1,0-0.3-0.1-0.3-0.2l-0.5-1.2c-0.1-0.2-0.3-0.4-0.6-0.4c-0.3,0-0.6,0.3-0.6,0.6v6.6
				c0,0.2-0.2,0.4-0.4,0.4H7.1c-0.2,0-0.4-0.2-0.4-0.4V146c0-0.2,0.2-0.4,0.4-0.4h1.3c0.1,0,0.3,0.1,0.3,0.2l1.9,4.9l1.9-4.9
				c0.1-0.1,0.2-0.2,0.3-0.2h1.3c0.2,0,0.4,0.2,0.4,0.4v12.3C14.6,158.5,14.4,158.7,14.2,158.7"/>
			<path id="Fill-9" class="st0" d="M21,154.8l-0.5-2.2c-0.1-0.3-0.3-0.5-0.6-0.5c-0.3,0-0.5,0.2-0.6,0.5l-0.5,2.2
				c0,0.1,0,0.1,0,0.1c0,0.3,0.3,0.6,0.6,0.6h1c0.3,0,0.6-0.3,0.6-0.6C21.1,154.9,21.1,154.8,21,154.8 M23.4,158.7h-1.2
				c-0.2,0-0.3-0.1-0.3-0.3l-0.1-0.5c-0.1-0.3-0.3-0.5-0.6-0.5h-2.5c-0.3,0-0.5,0.2-0.6,0.5l-0.1,0.5c0,0.2-0.2,0.3-0.3,0.3h-1.1
				c-0.2,0-0.3-0.2-0.3-0.4v-0.1l2.8-12.3c0-0.2,0.2-0.3,0.4-0.3h1.3c0.2,0,0.3,0.1,0.4,0.3l2.8,12.3v0.1
				C23.7,158.5,23.6,158.7,23.4,158.7"/>
			<path id="Fill-11" class="st0" d="M32.5,158.7h-1.1c-0.1,0-0.3-0.1-0.3-0.2l-2.7-6c-0.1-0.2-0.3-0.4-0.5-0.4
				c-0.3,0-0.6,0.3-0.6,0.6v5.6c0,0.2-0.2,0.4-0.4,0.4h-1.2c-0.2,0-0.4-0.2-0.4-0.4V146c0-0.2,0.2-0.4,0.4-0.4h1.2
				c0.2,0,0.4,0.2,0.4,0.4v4.1c0,0.3,0.3,0.6,0.6,0.6c0.2,0,0.4-0.2,0.5-0.4l2.7-4.5c0.1-0.1,0.2-0.2,0.3-0.2h1.1
				c0.2,0,0.4,0.2,0.4,0.4c0,0.1,0,0.1-0.1,0.2l-3,4.9c0,0.1-0.1,0.1-0.1,0.2c0,0.1,0,0.1,0,0.2l3.1,6.7c0,0.1,0,0.1,0,0.1
				C32.9,158.5,32.7,158.7,32.5,158.7"/>
			<path id="Fill-13" class="st0" d="M41.9,158.7h-7.1c-0.2,0-0.4-0.2-0.4-0.4V146c0-0.2,0.2-0.4,0.4-0.4h7.1c0.2,0,0.4,0.2,0.4,0.4
				v1.2c0,0.2-0.2,0.4-0.4,0.4h-5.5v3.7h3.8c0.2,0,0.4,0.2,0.4,0.4v1.2c0,0.2-0.2,0.4-0.4,0.4h-3.8v3.7h5.5c0.2,0,0.4,0.2,0.4,0.4
				v1.2C42.3,158.5,42.1,158.7,41.9,158.7"/>
			<path id="Fill-15" class="st0" d="M48,147.5h-2.2v3.7h2.1c1,0,1.9-0.8,1.9-1.8C49.8,148.3,49,147.5,48,147.5 M48.7,153l2.7,5.1
				c0.1,0.2-0.1,0.5-0.3,0.5H50c-0.1,0-0.3-0.1-0.3-0.2l-2.7-5c-0.1-0.2-0.3-0.4-0.6-0.4c-0.3,0-0.6,0.3-0.6,0.6v4.6
				c0,0.2-0.2,0.4-0.4,0.4h-1.2c-0.2,0-0.4-0.2-0.4-0.4V146c0-0.2,0.2-0.4,0.4-0.4h3.6c2.1,0,3.8,1.7,3.8,3.7
				C51.7,151.2,50.4,152.7,48.7,153"/>
			<path id="Fill-17" class="st0" d="M12.6,167.3H6.2v3.7h6.3c1,0,1.9-0.8,1.9-1.8C14.4,168.1,13.6,167.3,12.6,167.3 M12.6,172.9
				H6.2v5.2c0,0.2-0.2,0.4-0.4,0.4H4.6c-0.2,0-0.4-0.2-0.4-0.4v-12.3c0-0.2,0.2-0.4,0.4-0.4h7.8c2.1,0,3.8,1.7,3.8,3.7
				C16.3,171.2,14.6,172.9,12.6,172.9"/>
			<path id="Fill-19" class="st0" d="M22.7,174.6l-1.3-6c-0.1-0.3-0.3-0.5-0.6-0.5c0,0,0,0,0,0c-0.3,0-0.5,0.2-0.6,0.5l-1.3,6
				c0,0.1,0,0.1,0,0.1c0,0.3,0.3,0.6,0.6,0.6h2.6c0.3,0,0.6-0.3,0.6-0.6C22.7,174.7,22.7,174.6,22.7,174.6 M25,178.5h-1.2
				c-0.2,0-0.3-0.1-0.3-0.3l-0.1-0.5c-0.1-0.3-0.3-0.5-0.6-0.5h-4c-0.3,0-0.5,0.2-0.6,0.5l-0.1,0.5c0,0.2-0.2,0.3-0.3,0.3h-1.1
				c-0.2,0-0.3-0.2-0.3-0.4V178l2.8-12.3c0-0.2,0.2-0.3,0.4-0.3h2.9c0.2,0,0.3,0.1,0.4,0.3l2.8,12.3v0.1
				C25.4,178.3,25.2,178.5,25,178.5"/>
			<path id="Fill-21" class="st0" d="M38.1,167.3h-9.3v3.7H38c1,0,1.9-0.8,1.9-1.8C39.9,168.1,39.1,167.3,38.1,167.3 M38.9,172.8
				l2.7,5.1c0.1,0.2-0.1,0.5-0.3,0.5h-1.1c-0.1,0-0.3-0.1-0.3-0.2l-2.7-5c-0.1-0.2-0.3-0.4-0.6-0.4c0,0-7.2,0-7.2,0
				c-0.3,0-0.6,0.3-0.6,0.6v4.6c0,0.2-0.2,0.4-0.4,0.4h-1.2c-0.2,0-0.4-0.2-0.4-0.4v-12.3c0-0.2,0.2-0.4,0.4-0.4H38
				c2.1,0,3.8,1.7,3.8,3.7C41.9,171,40.6,172.5,38.9,172.8"/>
			<path id="Fill-23" class="st0" d="M53.8,178.5h-1.1c-0.1,0-0.3-0.1-0.3-0.2l-2.7-6c-0.1-0.2-0.3-0.4-0.5-0.4c0,0-3.3,0-3.3,0
				c-0.3,0-0.6,0.3-0.6,0.6v5.6c0,0.2-0.2,0.4-0.4,0.4h-1.2c-0.2,0-0.4-0.2-0.4-0.4v-12.3c0-0.2,0.2-0.4,0.4-0.4h1.2
				c0.2,0,0.4,0.2,0.4,0.4v4.1c0,0.3,0.3,0.6,0.6,0.6c0,0,3.3,0,3.3,0c0.2,0,0.4-0.2,0.5-0.4l2.7-4.5c0.1-0.1,0.2-0.2,0.3-0.2h1.1
				c0.2,0,0.4,0.2,0.4,0.4c0,0.1,0,0.1-0.1,0.2l-3,4.9c0,0.1-0.1,0.1-0.1,0.2c0,0.1,0,0.1,0,0.2l3.1,6.7c0,0.1,0,0.1,0,0.1
				C54.2,178.3,54,178.5,53.8,178.5"/>
			<path id="Fill-25" class="st1" d="M29.2,135.7c-9.1,0-16.8,2.9-21.2,5.1c-0.2,0.1-0.1,0.4,0.1,0.4h42.2c0.2,0,0.3-0.3,0.1-0.4
				C46,138.6,38.3,135.7,29.2,135.7"/>
		</g>
	</g>
</g>
</svg>
