<?xml version="1.0" encoding="utf-8"?>
<!-- Generator: Adobe Illustrator 20.0.0, SVG Export Plug-In . SVG Version: 6.00 Build 0)  -->
<svg version="1.1" id="Layer_1" xmlns="http://www.w3.org/2000/svg" xmlns:xlink="http://www.w3.org/1999/xlink" x="0px" y="0px"
	 viewBox="0 0 218 183" style="enable-background:new 0 0 218 183;" xml:space="preserve">
<style type="text/css">
	.st0{fill:#221F20;}
	.st1{fill:#FEFEFE;}
</style>
<title>Logo</title>
<desc>Created with Sketch.</desc>
<g id="Page-3">
	<g id="Desktop-HD-Copy-31" transform="translate(-1652.000000, -1057.000000)">
		<g id="Logo" transform="translate(1652.000000, 1057.000000)">
			<path id="Fill-1" class="st0" d="M214.2,101.8h-5.7V31.3c0-1.2-0.6-2.4-1.6-3c-1.7-1.2-42.7-28.3-98-28.3S12.7,27.2,10.9,28.3
				c-1,0.7-1.6,1.8-1.6,3v70.4H3.6c-2,0-3.6,1.6-3.6,3.6v73.7c0,2,1.6,3.6,3.6,3.6h210.6c2,0,3.6-1.6,3.6-3.6v-73.7
				C217.8,103.4,216.2,101.8,214.2,101.8"/>
			<path id="Fill-3" class="st1" d="M199.6,101.8H18.2c-0.9,0-1.6-0.7-1.6-1.6V36.7c0-0.9,0.7-1.6,1.6-1.6h181.4
				c0.9,0,1.6,0.7,1.6,1.6v63.4C201.3,101.1,200.5,101.8,199.6,101.8"/>
			<path id="Fill-5" class="st1" d="M208.9,175.4H8.9c-0.9,0-1.6-0.7-1.6-1.6v-62.9c0-0.9,0.7-1.6,1.6-1.6h200.1
				c0.9,0,1.6,0.7,1.6,1.6v62.9C210.6,174.7,209.8,175.4,208.9,175.4"/>
			<path id="Fill-7" class="st0" d="M53,92.9h-4.4c-0.7,0-1.4-0.6-1.4-1.4V66.8c0-1.2-1-2.3-2.2-2.3c-1,0-1.8,0.6-2.1,1.5l-1.8,4.6
				c-0.2,0.5-0.7,0.8-1.3,0.8c-0.5,0-1.1-0.3-1.3-0.8l-1.8-4.6c-0.3-0.9-1.2-1.5-2.1-1.5c-1.2,0-2.2,1-2.2,2.3v24.7
				c0,0.8-0.6,1.4-1.4,1.4h-4.4c-0.7,0-1.4-0.6-1.4-1.4v-46c0-0.8,0.6-1.4,1.4-1.4h4.8c0.5,0,1.1,0.3,1.3,0.9l7.1,18.2L46.9,45
				c0.2-0.5,0.7-0.9,1.3-0.9H53c0.7,0,1.4,0.6,1.4,1.4v46C54.4,92.2,53.7,92.9,53,92.9"/>
			<path id="Fill-9" class="st0" d="M78.4,78.3L76.5,70c-0.2-1-1.2-1.8-2.2-1.8c-1.1,0-2,0.8-2.2,1.8l-1.9,8.4
				C70,78.5,70,78.7,70,78.9c0,1.2,1,2.3,2.3,2.3h3.9c1.2,0,2.2-1,2.2-2.3C78.5,78.7,78.5,78.5,78.4,78.3 M87.1,92.9h-4.4
				c-0.7,0-1.2-0.5-1.3-1.1L81,90c-0.2-1-1-1.7-2.1-1.7h-9.2c-1.1,0-2,0.8-2.2,1.7L67,91.8c-0.1,0.6-0.6,1.1-1.3,1.1h-4.3
				c-0.7,0-1.3-0.7-1.3-1.4v-0.3l10.3-46c0.1-0.6,0.7-1.1,1.4-1.1h4.9c0.6,0,1.2,0.5,1.4,1.1l10.3,46v0.3
				C88.4,92.2,87.8,92.9,87.1,92.9"/>
			<path id="Fill-11" class="st0" d="M121.2,92.9H117c-0.5,0-1-0.3-1.2-0.8l-10.2-22.2c-0.3-0.8-1.2-1.4-2-1.4c-1.2,0-2.2,1-2.2,2.3
				v20.7c0,0.8-0.6,1.4-1.4,1.4h-4.4c-0.7,0-1.4-0.6-1.4-1.4v-46c0-0.8,0.6-1.4,1.4-1.4h4.4c0.7,0,1.4,0.6,1.4,1.4v15.2
				c0,1.2,1,2.3,2.2,2.3c0.9,0,1.6-0.6,2-1.4l10.1-16.8c0.3-0.4,0.7-0.7,1.2-0.7h4c0.7,0,1.4,0.7,1.4,1.4c0,0.2-0.1,0.5-0.2,0.7
				l-11,18.4c-0.1,0.2-0.2,0.5-0.2,0.7c0,0.2,0.1,0.4,0.1,0.6l11.4,25.1c0.1,0.2,0.1,0.3,0.1,0.5C122.6,92.2,121.9,92.9,121.2,92.9"
				/>
			<path id="Fill-13" class="st0" d="M156.3,92.9h-26.4c-0.7,0-1.4-0.6-1.4-1.4v-46c0-0.8,0.6-1.4,1.4-1.4h26.4
				c0.7,0,1.4,0.6,1.4,1.4v4.4c0,0.8-0.6,1.4-1.4,1.4h-20.6v13.7h14.1c0.7,0,1.4,0.6,1.4,1.4v4.4c0,0.8-0.6,1.4-1.4,1.4h-14.1v13.7
				h20.6c0.7,0,1.4,0.6,1.4,1.4v4.4C157.6,92.2,157,92.9,156.3,92.9"/>
			<path id="Fill-15" class="st0" d="M178.8,51.2h-8.1v13.7h7.7c3.7,0,7.1-3.1,7.1-6.8C185.6,54.3,182.6,51.2,178.8,51.2
				 M181.6,71.8l10.1,19.1c0.5,0.9-0.2,2-1.2,2h-4.1c-0.5,0-1-0.3-1.2-0.8l-9.9-18.7c-0.4-0.8-1.2-1.4-2.1-1.4
				c-1.3,0-2.4,1.1-2.4,2.4v17.1c0,0.8-0.6,1.4-1.4,1.4H165c-0.7,0-1.4-0.6-1.4-1.4v-46c0-0.8,0.6-1.4,1.4-1.4h13.5
				c7.7,0,14.2,6.2,14.2,14C192.7,64.8,187.9,70.5,181.6,71.8"/>
			<path id="Fill-17" class="st0" d="M46.8,124.9H23v13.7h23.4c3.7,0,7.1-3.1,7.1-6.8C53.5,128,50.5,124.9,46.8,124.9 M46.8,145.8
				H23v19.4c0,0.8-0.6,1.4-1.4,1.4h-4.4c-0.7,0-1.4-0.6-1.4-1.4v-46c0-0.8,0.6-1.4,1.4-1.4h29.2c7.7,0,14.2,6.2,14.2,14
				C60.7,139.5,54.5,145.8,46.8,145.8"/>
			<path id="Fill-19" class="st0" d="M84.5,152.2l-4.8-22.3c-0.2-1-1.1-1.8-2.2-1.8c0,0-0.1,0-0.1,0c-1.1,0-2,0.8-2.2,1.8l-4.8,22.3
				c-0.1,0.2-0.1,0.3-0.1,0.5c0,1.2,1,2.3,2.3,2.3h9.6c1.2,0,2.2-1,2.2-2.3C84.6,152.5,84.6,152.4,84.5,152.2 M93.2,166.7h-4.4
				c-0.7,0-1.2-0.5-1.3-1.1l-0.4-1.7c-0.2-1-1-1.7-2.1-1.7H70c-1.1,0-2,0.8-2.2,1.7l-0.4,1.7c-0.1,0.6-0.6,1.1-1.3,1.1h-4.3
				c-0.7,0-1.3-0.7-1.3-1.4V165l10.3-46c0.1-0.6,0.7-1.1,1.4-1.1h10.7c0.6,0,1.2,0.5,1.4,1.1l10.3,46v0.3
				C94.5,166.1,94,166.7,93.2,166.7"/>
			<path id="Fill-21" class="st0" d="M142.1,125.1h-34.8v13.7h34.4c3.7,0,7.1-3.1,7.1-6.8C148.9,128.1,145.9,125.1,142.1,125.1
				 M144.8,145.6l10.1,19.1c0.5,0.9-0.2,2-1.2,2h-4.1c-0.5,0-1-0.3-1.2-0.8l-9.9-18.7c-0.4-0.8-1.2-1.4-2.1-1.4c0,0-26.7,0-26.7,0
				c-1.3,0-2.3,1.1-2.3,2.4v17.1c0,0.8-0.6,1.4-1.4,1.4h-4.4c-0.7,0-1.4-0.6-1.4-1.4v-46c0-0.8,0.6-1.4,1.4-1.4h40.2
				c7.7,0,14.2,6.2,14.2,14C156,138.7,151.2,144.3,144.8,145.6"/>
			<path id="Fill-23" class="st0" d="M200.6,166.7h-4.1c-0.5,0-1-0.3-1.2-0.8L185,143.7c-0.3-0.8-1.2-1.4-2-1.4c0,0-12.2,0-12.2,0
				c-1.2,0.1-2.1,1.1-2.1,2.3v20.7c0,0.8-0.6,1.4-1.4,1.4h-4.4c-0.7,0-1.4-0.6-1.4-1.4v-46c0-0.8,0.6-1.4,1.4-1.4h4.4
				c0.7,0,1.4,0.6,1.4,1.4v15.2c0,1.2,1,2.2,2.1,2.3c0,0,12.2,0,12.2,0c0.9,0,1.6-0.6,2-1.4l10.1-16.8c0.3-0.4,0.7-0.7,1.2-0.7h4
				c0.7,0,1.4,0.7,1.4,1.4c0,0.2-0.1,0.5-0.2,0.7l-11,18.4c-0.1,0.2-0.2,0.5-0.2,0.7c0,0.2,0.1,0.4,0.1,0.6l11.4,25.1
				c0.1,0.2,0.1,0.3,0.1,0.5C201.9,166,201.3,166.7,200.6,166.7"/>
			<path id="Fill-25" class="st1" d="M108.9,7.3c-33.8,0-62.5,10.9-79,18.9c-0.8,0.4-0.5,1.6,0.3,1.6h157.2c0.9,0,1.1-1.2,0.3-1.6
				C171.3,18.2,142.6,7.3,108.9,7.3"/>
		</g>
	</g>
</g>
</svg>
