<?xml version="1.0" encoding="utf-8"?>
<!-- Generator: Adobe Illustrator 21.0.0, SVG Export Plug-In . SVG Version: 6.00 Build 0)  -->
<svg version="1.1" id="Layer_1" xmlns="http://www.w3.org/2000/svg" xmlns:xlink="http://www.w3.org/1999/xlink" x="0px" y="0px"
	 viewBox="0 0 506.6 792" style="enable-background:new 0 0 506.6 792;" xml:space="preserve">
<style type="text/css">
	.st0{fill-rule:evenodd;clip-rule:evenodd;fill:#00FF91;}
</style>
<path class="st0" d="M458.9,680.3L458.9,680.3c-11.6-1.8-22.6-6.2-32-15.7c-40.3-40.7,12.2-92.8-28.2-133.4
	c-40.3-40.7-92.9,11.4-133.2-29.2c-40.3-40.7-17.3-50.1-17.4-107.3c0-57-22.9-66.5,17.3-106.7c40.3-40.3,92.6,12.1,132.9-28.1
	c40.3-40.3-12.1-92.6,28.1-132.9c9.2-9.2,19.9-13.5,31.3-15.2l0,0c27-4.1,47.7-27.4,47.7-55.5c0-31-25.1-56.2-56.2-56.2
	c-29.5,0-53.7,22.8-56,51.7l-0.1-0.1c-1.3,16.9-5.5,35.3-18.3,55.7c-38.5,61.2-108.6,5.2-159.8,56.3
	c-51.1,51.1,1.3,103.5-49.8,154.6C114.3,369.2,0,321.8,0,394.1c0,72.6,114.4,25.6,165.6,77.1c51.2,51.6-1.4,103.7,49.8,155.3
	c51.2,51.6,103.7-0.5,154.8,51c19.2,19.3,23.3,41.1,24.1,62.9l0.1-0.1c2.3,28.9,26.5,51.7,56,51.7c31,0,56.2-25.1,56.2-56.2
	C506.6,707.7,485.9,684.4,458.9,680.3z"/>
</svg>
