<?xml version="1.0" encoding="UTF-8"?>
<svg width="557px" height="3438px" viewBox="0 0 557 3438" version="1.1" xmlns="http://www.w3.org/2000/svg" xmlns:xlink="http://www.w3.org/1999/xlink">
    <!-- Generator: Sketch 43.1 (39012) - http://www.bohemiancoding.com/sketch -->
    <title>Combined Shape Copy</title>
    <desc>Created with Sketch.</desc>
    <defs></defs>
    <g id="Page-6-Copy" stroke="none" stroke-width="1" fill="none" fill-rule="evenodd">
        <path d="M11.2823054,3244.93908 C12.0913911,3247.34297 12.9351148,3249.69512 13.8104777,3252 L13.5788306,3252 C50.4017959,3360.17928 152.862897,3438 273.5,3438 C424.935462,3438 547.729689,3315.37229 547.999554,3164 L547.999586,3164 L556.177596,3164 L556.177596,1718.9998 L556.177596,274 L548.000774,274 L548.000742,274 C547.730876,122.627708 424.93665,0 273.501187,0 C152.864083,0 50.4029826,77.8207193 13.5800264,186 L13.8103273,186 C12.9410472,188.288881 12.1029684,190.624371 11.299028,193.010858 C7.63176402,204.823696 4.74081101,216.978228 2.68582146,229.414802 C0.958783857,241.249662 -1.97791078e-13,254.232161 -1.98673726e-13,268.646907 C-2.07557076e-13,413.72302 97.1177234,413.72302 97.1177234,558.801112 C97.1177234,703.646328 0.295673548,703.866986 0.000675473445,848.275501 C-3.40791953e-13,848.385919 5.62606888e-05,848.496248 0.000168696425,848.606493 C5.62615185e-05,848.716744 -2.34199516e-13,848.827077 -2.34206277e-13,848.937493 C-2.43082259e-13,993.893286 96.969937,994.00362 97.1175547,1138.73694 C96.9699381,1283.46828 -3.14144086e-13,1283.57861 -3.05268467e-13,1428.52847 C-3.05261585e-13,1428.64086 5.83008343e-05,1428.75318 0.000174812161,1428.8654 C5.83016936e-05,1428.97763 -2.69730368e-13,1429.08994 -2.69737251e-13,1429.20234 C-2.78613152e-13,1574.15681 96.968171,1574.26846 97.1175506,1718.9998 C96.9681721,1863.73114 -2.78613152e-13,1863.84279 -2.69737251e-13,2008.79727 C-2.69730368e-13,2008.90967 5.83008343e-05,2009.02198 0.000174812161,2009.1342 C5.83016936e-05,2009.24643 -3.05261585e-13,2009.35874 -3.05268467e-13,2009.47114 C-3.14144086e-13,2154.42099 96.969937,2154.53132 97.1175547,2299.26267 C96.9699381,2443.99598 -2.43082259e-13,2444.10632 -2.34206277e-13,2589.06211 C-2.34199516e-13,2589.17253 5.6260689e-05,2589.28286 0.000168696425,2589.39311 C5.62615184e-05,2589.50335 -3.40791953e-13,2589.61368 -3.40798714e-13,2589.7241 C0.295673548,2734.13262 97.1177234,2734.35328 97.1177234,2879.19849 C97.1177234,3024.27658 -2.07557076e-13,3024.27658 -1.98673726e-13,3169.3527 C-1.97789463e-13,3183.79382 0.962295548,3196.79744 2.6953096,3208.64976 C4.74672361,3221.04627 7.6287531,3233.16241 11.2823054,3244.93908 Z" id="Combined-Shape-Copy" fill="#FF141D"></path>
    </g>
</svg>